<svg width="16" height="13" viewBox="0 0 16 13" fill="none" xmlns="http://www.w3.org/2000/svg">
<g opacity="0.1">
<path d="M1.44504 3.16068C1.5871 3.52525 1.6818 3.90695 1.72677 4.29622C1.7901 3.729 1.64814 3.12752 1.44504 2.58352C1.16222 1.83166 0.768018 1.11076 0.648994 0.314669C0.643534 0.280393 0.64026 0.245012 0.636984 0.204102C0.611987 0.43071 0.616023 0.659636 0.648994 0.885196C0.764742 1.68681 1.16222 2.40772 1.44504 3.16068Z" fill="black"/>
<path d="M14.5989 7.5082C14.3641 8.1495 13.6576 8.48341 12.9915 8.59729C12.3254 8.71118 11.6298 8.67359 10.9878 8.88588C10.1731 9.15456 9.53871 9.78811 8.89118 10.3553C8.24364 10.9225 7.49128 11.461 6.63517 11.4809C5.75505 11.4964 4.96337 10.9535 4.09853 10.7876C3.51542 10.6771 2.89736 10.7346 2.34483 10.5145C1.56407 10.2038 1.0836 9.40887 0.788773 8.60946C0.649648 8.2485 0.556805 7.87096 0.512508 7.48609C0.450266 8.04888 0.587851 8.64594 0.788773 9.18551C1.0836 9.9805 1.56407 10.781 2.34483 11.0906C2.89736 11.3117 3.51542 11.252 4.09853 11.3637C4.96337 11.5296 5.75505 12.0735 6.63517 12.057C7.49128 12.0415 8.24473 11.5041 8.89118 10.9314C9.53762 10.3586 10.1731 9.73061 10.9878 9.46193C11.6298 9.24964 12.3243 9.28724 12.9915 9.17335C13.6587 9.05947 14.3641 8.72556 14.5989 8.08426C14.6851 7.83019 14.7051 7.55787 14.6568 7.2937C14.6427 7.36655 14.6234 7.43824 14.5989 7.5082Z" fill="black"/>
<path d="M13.9044 4.35917C13.9074 4.42917 13.9144 4.49894 13.9252 4.56814C14.1195 3.2546 15.5784 2.25396 15.6723 0.879603C15.6802 0.740782 15.6744 0.601506 15.6548 0.463867C15.4484 1.87913 13.8422 2.91295 13.9044 4.35917Z" fill="black"/>
</g>
</svg>
