<svg width="14" height="19" viewBox="0 0 14 19" fill="none" xmlns="http://www.w3.org/2000/svg">
<g opacity="0.5">
<path d="M3.26086 18.0925C3.26086 18.0925 5.56164 17.9941 5.80406 13.4331C6.04647 8.87222 3.64851 8.09935 3.64851 8.09935C3.64851 8.09935 2.88413 7.66924 2.55654 7.65155C2.22895 7.63386 1.0944 7.74111 1.0944 7.74111L2.33487 7.49897C2.33487 7.49897 0.587726 6.82561 0.0657654 6.77143L1.95378 7.17611C1.95378 7.17611 1.97998 6.11687 1.52791 5.76637C1.52791 5.76637 1.91337 5.73762 2.11976 6.50054C2.17775 6.72065 2.2859 6.92393 2.43552 7.09406C2.58515 7.26419 2.77209 7.39643 2.98132 7.48017C3.68127 7.75659 4.64985 8.19333 4.87042 8.56705C4.87042 8.56705 5.27773 8.99827 5.21548 7.876C5.15324 6.75374 4.85623 5.7907 4.74703 5.76416C4.74703 5.76416 3.91386 4.86745 2.74436 4.81328C2.74436 4.81328 3.42684 4.53465 4.57887 5.40592C4.57887 5.40592 4.67605 4.96365 4.24254 4.44509C3.80903 3.92652 3.13747 2.83411 2.40148 2.71249C2.40148 2.71249 3.43012 2.64946 4.24582 3.99618C4.24582 3.99618 4.5472 4.1941 4.57341 3.69101C4.60648 3.30835 4.67485 2.92967 4.77761 2.55991C4.77761 2.55991 5.02548 3.71755 4.50243 4.23833C4.50243 4.23833 5.50377 5.5585 5.46009 7.03901C5.46009 7.03901 5.7702 7.71236 5.88486 6.9218C5.88486 6.9218 5.95147 5.83492 6.08579 4.91168C6.13954 4.53983 6.11696 4.16075 6.01944 3.79813C5.92193 3.43552 5.75158 3.09718 5.51905 2.80426C5.30066 2.52452 5.14341 2.25142 5.22968 2.111L6.39044 3.51189C6.39044 3.51189 7.36775 1.22314 8.07425 0.733325C8.78076 0.24351 8.87249 0.131836 8.87249 0.131836L7.7292 1.4874L9.16514 0.975469L7.7292 1.64883C7.7292 1.64883 7.06419 2.19614 6.68309 3.69544C6.30199 5.19473 6.26596 6.12793 6.26596 6.12793C6.26596 6.12793 8.31449 4.48489 8.70432 4.53907L7.37867 5.55408C7.01839 5.83011 6.72082 6.18122 6.50606 6.5837C6.29131 6.98618 6.16437 7.43064 6.13383 7.88706C6.13383 7.88706 8.69559 7.22365 9.31583 7.09761L10.4864 5.88136L9.59974 7.03569L11.4255 7.00915L12.4716 6.25508C12.4716 6.25508 11.6472 6.95498 11.7269 6.9992C11.8066 7.04343 13.0121 7.09871 13.0121 7.09871C13.0121 7.09871 9.9448 7.07992 9.60848 7.30437C9.27215 7.52882 8.51651 7.60954 8.51651 7.60954L10.6884 7.94124L8.10047 7.75217C8.10047 7.75217 6.14147 8.11151 6.03446 8.73069C6.03446 8.73069 6.43412 9.78441 6.69947 10.2024C6.91786 10.5506 7.36448 11.6751 7.45293 12.6625C7.54138 13.6499 7.67132 15.1668 7.32954 16.0901C6.98775 17.0133 6.86873 17.5396 7.04016 17.8183C7.2116 18.0969 7.36775 18.4562 6.82177 18.5281C6.27579 18.6 3.86035 18.4916 3.86035 18.4916C3.86035 18.4916 3.11891 18.6387 3.26086 18.0925Z" fill="black"/>
<path opacity="0.1" d="M4.54939 17.6005C4.79058 17.476 5.06714 17.4408 5.33124 17.5009C5.72846 17.565 6.13218 17.5768 6.5324 17.5363L4.54939 17.6005Z" fill="black"/>
<path opacity="0.1" d="M5.99406 12.2257C5.99406 12.2257 6.10326 13.9793 5.90889 14.3265L5.99406 12.2257Z" fill="black"/>
<path opacity="0.1" d="M6.39919 14.3254C6.39919 14.3254 6.25832 15.9696 6.1666 16.2902C6.07487 16.6109 6.39919 14.3254 6.39919 14.3254Z" fill="black"/>
<path opacity="0.1" d="M6.53677 10.2853C6.63614 10.3229 7.0631 11.1997 6.97356 11.4595C6.88402 11.7193 6.53677 10.2853 6.53677 10.2853Z" fill="black"/>
<path opacity="0.1" d="M5.45354 9.37524C5.50049 9.39625 5.69923 9.90155 5.65883 10.0508C5.61842 10.2001 5.45354 9.37524 5.45354 9.37524Z" fill="black"/>
<path opacity="0.1" d="M7.3043 12.3208C7.24984 12.7357 7.2346 13.1547 7.25879 13.5724C7.28572 13.8891 7.28126 14.2076 7.24547 14.5233L7.3043 12.3208Z" fill="black"/>
<path opacity="0.1" d="M1.95488 6.38892C2.01159 6.46273 2.0413 6.55415 2.03896 6.64764C2.03896 6.73942 2.03023 6.83229 2.03896 6.92406C2.0477 7.01583 2.09028 7.13525 2.18638 7.1452L1.95488 6.38892Z" fill="black"/>
<path opacity="0.1" d="M3.59283 3.35156C3.71394 3.47325 3.82125 3.60824 3.91278 3.75403C3.93946 3.80055 3.97016 3.84457 4.00451 3.88561C4.05912 3.93899 4.11791 3.9878 4.18031 4.03156C4.31811 4.14485 4.41645 4.29984 4.46095 4.47382L3.59283 3.35156Z" fill="black"/>
<path opacity="0.1" d="M8.22605 0.733276C8.19817 0.790191 8.16129 0.842106 8.11686 0.886966C8.07645 0.925664 8.03059 0.958835 7.99456 0.997533C7.9655 1.03456 7.93923 1.07374 7.91594 1.11473C7.81823 1.26324 7.70866 1.4034 7.58835 1.53379L8.22605 0.733276Z" fill="black"/>
<path opacity="0.1" d="M6.08034 3.32507C6.11505 3.35425 6.14187 3.39188 6.1583 3.43442C6.17472 3.47697 6.18021 3.52304 6.17425 3.56832C6.16244 3.6589 6.16837 3.75095 6.19171 3.83921C6.20591 3.87791 6.23103 3.91108 6.24741 3.94978C6.27118 4.01743 6.28085 4.08934 6.2758 4.16097C6.2758 4.24279 6.2758 4.32571 6.26815 4.40864C6.2746 4.50844 6.2464 4.60739 6.18844 4.68837L6.08034 3.32507Z" fill="black"/>
<path d="M6.72241 5.90015C6.65115 5.93834 6.58446 5.98472 6.52367 6.03836C6.4624 6.09284 6.42153 6.16702 6.40792 6.24843C6.40638 6.28322 6.40309 6.31791 6.39809 6.35237C6.38459 6.39876 6.36152 6.44172 6.33039 6.47841C6.279 6.54553 6.22279 6.60873 6.16223 6.66749L6.72241 5.90015Z" fill="black"/>
<path opacity="0.1" d="M6.14366 8.24311C6.19457 8.20252 6.24821 8.16558 6.30418 8.13254C6.35568 8.10087 6.41114 8.07633 6.46907 8.05956C6.55887 8.04295 6.64974 8.03297 6.74097 8.02971C6.83316 8.02693 6.92124 7.9904 6.98885 7.92688L6.14366 8.24311Z" fill="black"/>
<path opacity="0.1" d="M9.74825 7.10978C9.63988 7.10479 9.53176 7.12404 9.43158 7.16617C9.38353 7.1927 9.34094 7.22919 9.2918 7.25573C9.22967 7.29076 9.15982 7.3094 9.0887 7.30991L9.74825 7.10978Z" fill="black"/>
<path opacity="0.1" d="M8.25226 7.55983C8.26527 7.55306 8.28024 7.55123 8.29447 7.55468C8.30869 7.55813 8.32122 7.56663 8.32979 7.57863C8.34945 7.60074 8.35928 7.62949 8.38002 7.65161C8.40213 7.67041 8.4277 7.68458 8.45525 7.69331C8.4828 7.70204 8.51179 7.70515 8.54054 7.70247L8.25226 7.55983Z" fill="black"/>
<path opacity="0.1" d="M7.6353 5.24011L7.5261 5.2954C7.4184 5.34829 7.31601 5.41161 7.22035 5.48447L7.6353 5.24011Z" fill="black"/>
<path opacity="0.1" d="M6.45161 6.26728C6.38281 6.25069 6.32385 6.32367 6.31184 6.39332C6.3099 6.46436 6.30407 6.53523 6.29436 6.60561C6.27297 6.66456 6.23819 6.71759 6.19281 6.76041L6.45161 6.26728Z" fill="black"/>
<path opacity="0.1" d="M5.29848 6.39441C5.23623 6.58237 5.36727 6.78692 5.32905 6.98042C5.31704 7.04012 5.29083 7.09098 5.27664 7.1529C5.26312 7.23144 5.26741 7.31206 5.28916 7.38867C5.31091 7.46529 5.34957 7.5359 5.40221 7.59517L5.29848 6.39441Z" fill="black"/>
</g>
</svg>
