<svg width="13" height="19" viewBox="0 0 13 19" fill="none" xmlns="http://www.w3.org/2000/svg">
<g opacity="0.5">
<path d="M9.7867 18.4387C9.7867 18.4387 7.48592 18.3403 7.2435 13.7793C7.00109 9.21842 9.39905 8.44556 9.39905 8.44556C9.39905 8.44556 10.1634 8.01545 10.4965 7.99776C10.8295 7.98007 11.9586 8.08732 11.9586 8.08732L10.7171 7.84517C10.7171 7.84517 12.4642 7.17181 12.9873 7.11874L11.0992 7.52231C11.0992 7.52231 11.0719 6.46307 11.524 6.11257C11.524 6.11257 11.1386 6.08383 10.9333 6.84675C10.875 7.06675 10.7668 7.26991 10.6172 7.44C10.4676 7.6101 10.2808 7.74241 10.0717 7.82638C9.37066 8.10279 8.40317 8.53954 8.1826 8.91326C8.1826 8.91326 7.7742 9.34447 7.83644 8.22221C7.89868 7.09995 8.19133 6.13911 8.29725 6.11257C8.29725 6.11257 9.13042 5.21587 10.301 5.16169C10.301 5.16169 9.61853 4.88306 8.46651 5.75434C8.46651 5.75434 8.36823 5.31207 8.80283 4.7935C9.23744 4.27494 9.91118 3.17811 10.6472 3.06091C10.6472 3.06091 9.61853 2.99899 8.80283 4.3446C8.80283 4.3446 8.50145 4.54251 8.47524 4.03943C8.44158 3.65685 8.37322 3.27822 8.27105 2.90832C8.27105 2.90832 8.02317 4.06707 8.54622 4.58674C8.54622 4.58674 7.54379 5.90692 7.58857 7.38742C7.58857 7.38742 7.27845 8.06078 7.1627 7.27133C7.1627 7.27133 7.09609 6.18334 6.96287 5.2601C6.90896 4.88832 6.93137 4.50928 7.02869 4.14667C7.12602 3.78406 7.29617 3.44568 7.52851 3.15268C7.7469 2.87405 7.90414 2.59984 7.81897 2.45942L6.65821 3.86031C6.65821 3.86031 5.68308 1.57156 4.9733 1.07732C4.26352 0.583081 4.17617 0.47583 4.17617 0.47583L5.31946 1.83139L3.88352 1.32057L5.31946 1.99282C5.31946 1.99282 5.98446 2.54566 6.36556 4.03943C6.74666 5.5332 6.7816 6.47192 6.7816 6.47192C6.7816 6.47192 4.73416 4.82999 4.34433 4.88306L5.66889 5.89807C6.02932 6.17404 6.32706 6.52512 6.542 6.9276C6.75694 7.33007 6.88408 7.77456 6.91482 8.23105C6.91482 8.23105 4.35306 7.56765 3.73283 7.4416L2.56224 6.22535L3.44891 7.37415L1.62314 7.34762L0.577039 6.59355C0.577039 6.59355 1.40147 7.29344 1.32176 7.33877C1.24205 7.38411 0.0365143 7.43718 0.0365143 7.43718C0.0365143 7.43718 3.10276 7.41949 3.44018 7.64394C3.7776 7.86839 4.53215 7.94911 4.53215 7.94911L2.36022 8.28081L4.94928 8.09174C4.94928 8.09174 6.90827 8.45108 7.01419 9.07026C7.01419 9.07026 6.61562 10.1251 6.34918 10.543C6.13079 10.8902 5.68526 12.0147 5.59572 13.0021C5.50618 13.9894 5.38388 15.5064 5.72021 16.4297C6.05653 17.3529 6.18102 17.8836 6.01285 18.1623C5.84469 18.4409 5.68526 18.7991 6.23125 18.871C6.77723 18.9429 9.19157 18.8345 9.19157 18.8345C9.19157 18.8345 9.92865 18.9882 9.7867 18.4387Z" fill="black"/>
<path opacity="0.1" d="M8.49817 17.9488C8.25736 17.8244 7.98116 17.7892 7.71742 17.8493C7.32019 17.9133 6.91648 17.9252 6.51625 17.8847L8.49817 17.9488Z" fill="black"/>
<path opacity="0.1" d="M7.05459 12.5741C7.05459 12.5741 6.94539 14.3288 7.13976 14.6749L7.05459 12.5741Z" fill="black"/>
<path opacity="0.1" d="M6.64838 14.6738C6.64838 14.6738 6.78924 16.318 6.88752 16.6386C6.98579 16.9593 6.64838 14.6738 6.64838 14.6738Z" fill="black"/>
<path opacity="0.1" d="M6.51188 10.6337C6.41142 10.6713 5.98446 11.5481 6.06964 11.8079C6.15481 12.0677 6.51188 10.6337 6.51188 10.6337Z" fill="black"/>
<path opacity="0.1" d="M7.59403 9.72375C7.54816 9.74476 7.34943 10.2501 7.38874 10.3993C7.42805 10.5486 7.59403 9.72375 7.59403 9.72375Z" fill="black"/>
<path opacity="0.1" d="M5.74533 12.6692C5.79979 13.0841 5.81503 13.5031 5.79084 13.9208C5.7639 14.2374 5.76836 14.5559 5.80416 14.8717L5.74533 12.6692Z" fill="black"/>
<path opacity="0.1" d="M11.0927 6.7373C11.0368 6.81148 11.0075 6.90274 11.0097 6.99603C11.0097 7.0878 11.0184 7.18068 11.0097 7.27245C11.001 7.36422 10.9573 7.48364 10.8623 7.49359L11.0927 6.7373Z" fill="black"/>
<path opacity="0.1" d="M9.45584 3.69995C9.33435 3.82158 9.22667 3.95657 9.1348 4.10242C9.10813 4.14867 9.07783 4.19268 9.04417 4.23399C8.98933 4.28711 8.93055 4.33591 8.86836 4.37994C8.73045 4.49313 8.63208 4.64816 8.58772 4.82221L9.45584 3.69995Z" fill="black"/>
<path opacity="0.1" d="M4.82262 1.07727C4.85013 1.13441 4.88706 1.18638 4.93181 1.23096C4.97222 1.26966 5.01808 1.30283 5.05411 1.34153C5.08317 1.37856 5.10945 1.41773 5.13274 1.45873C5.2301 1.60749 5.33969 1.74767 5.46033 1.87778L4.82262 1.07727Z" fill="black"/>
<path opacity="0.1" d="M6.96833 3.67346C6.93366 3.70272 6.9068 3.74032 6.8902 3.78282C6.8736 3.82532 6.8678 3.87136 6.87333 3.91671C6.88605 4.0072 6.88048 4.09936 6.85695 4.1876C6.84166 4.2263 6.81764 4.25947 6.80126 4.29817C6.77823 4.36598 6.76931 4.43788 6.77505 4.50935C6.77505 4.59117 6.77505 4.6741 6.7827 4.75703C6.77569 4.85689 6.80394 4.95603 6.86241 5.03676L6.96833 3.67346Z" fill="black"/>
<path d="M6.32625 6.24854C6.39761 6.287 6.46431 6.33375 6.52499 6.38785C6.58604 6.44205 6.6269 6.51581 6.64073 6.59682C6.64073 6.6322 6.64074 6.66759 6.65056 6.70186C6.66378 6.74838 6.68689 6.7914 6.71826 6.82791C6.76964 6.8947 6.82585 6.95753 6.88643 7.01588L6.32625 6.24854Z" fill="black"/>
<path opacity="0.1" d="M6.90499 8.5926C6.85461 8.5513 6.80091 8.51431 6.74447 8.48203C6.69304 8.44995 6.63758 8.42503 6.57958 8.40795C6.48978 8.39134 6.39891 8.38136 6.30768 8.3781C6.21518 8.37529 6.12677 8.33878 6.05872 8.27527L6.90499 8.5926Z" fill="black"/>
<path opacity="0.1" d="M3.3004 7.4582C3.40853 7.45305 3.51641 7.4727 3.61598 7.51569C3.66512 7.54113 3.7077 7.57761 3.75575 7.60415C3.8178 7.63941 3.88771 7.65806 3.95886 7.65833L3.3004 7.4582Z" fill="black"/>
<path opacity="0.1" d="M4.79641 7.90934C4.78357 7.90222 4.76861 7.90009 4.75434 7.90334C4.74006 7.9066 4.72745 7.91502 4.71888 7.92703C4.69922 7.94914 4.6883 7.979 4.66865 8.00001C4.62337 8.03761 4.56539 8.05586 4.50703 8.05087L4.79641 7.90934Z" fill="black"/>
<path opacity="0.1" d="M5.41228 5.5896L5.52147 5.64378C5.6288 5.69674 5.73082 5.76005 5.82613 5.83285L5.41228 5.5896Z" fill="black"/>
<path opacity="0.1" d="M6.59706 6.61786C6.66476 6.60128 6.72373 6.67425 6.73574 6.74501C6.73772 6.81568 6.74355 6.88618 6.75321 6.9562C6.77502 7.0152 6.81018 7.06822 6.85586 7.11099L6.59706 6.61786Z" fill="black"/>
<path opacity="0.1" d="M7.75018 6.7439C7.81242 6.93076 7.68029 7.13531 7.7196 7.3288C7.73052 7.38851 7.75782 7.43937 7.77201 7.50129C7.78553 7.57982 7.78125 7.66044 7.7595 7.73705C7.73774 7.81367 7.69908 7.88428 7.64644 7.94356L7.75018 6.7439Z" fill="black"/>
</g>
</svg>
