<svg width="10" height="3" viewBox="0 0 10 3" fill="none" xmlns="http://www.w3.org/2000/svg">
<g opacity="0.1">
<path d="M1.36142 0.097168C1.32609 0.118348 1.28964 0.137545 1.25222 0.154665L0.948654 0.341525C1.07327 0.354504 1.19891 0.33029 1.3101 0.271867C1.32101 0.213266 1.34067 0.154663 1.36142 0.097168Z" fill="black"/>
<path d="M1.44115 0.0341797L1.36799 0.0795494L1.36143 0.0972501C1.38664 0.082313 1.41105 0.0660625 1.43459 0.0485645L1.44115 0.0341797Z" fill="black"/>
<path d="M9.13843 1.39094C9.14594 1.69286 9.04942 1.98801 8.86544 2.22573C8.60336 2.52758 8.16002 2.61603 7.77347 2.53642C7.38691 2.45681 7.03857 2.23457 6.71754 1.99796C6.3965 1.76134 6.08638 1.50372 5.72712 1.33455C5.08177 1.02828 4.33377 1.02828 3.63163 1.14438C3.05726 1.23947 2.48288 1.40752 1.90414 1.35224C1.78695 1.34649 1.67231 1.3156 1.56781 1.26158C1.47567 1.20177 1.39922 1.12022 1.34502 1.02394C1.29082 0.927652 1.26048 0.819498 1.2566 0.70874C1.2566 0.72422 1.2566 0.740805 1.2566 0.75739C1.24794 0.883292 1.27237 1.00927 1.32742 1.1225C1.38247 1.23573 1.46617 1.33216 1.57 1.402C1.67475 1.45516 1.78929 1.48566 1.90633 1.49156C2.48507 1.54684 3.05945 1.38099 3.63382 1.28479C4.33596 1.1687 5.08395 1.1676 5.72931 1.47497C6.08856 1.64525 6.39868 1.90398 6.71972 2.13838C7.04075 2.37278 7.38582 2.59613 7.77565 2.67574C8.16549 2.75535 8.60773 2.668 8.86762 2.36504C9.09366 2.10631 9.15044 1.73702 9.14061 1.39094H9.13843Z" fill="black"/>
</g>
</svg>
