<svg width="50" height="41" viewBox="0 0 50 41" fill="none" xmlns="http://www.w3.org/2000/svg">
<path d="M24.6458 15.375L31.25 20.7733V20.5C31.25 19.1408 30.5915 17.8372 29.4194 16.8761C28.2473 15.915 26.6576 15.375 25 15.375H24.6458ZM15.6875 16.7417L18.9166 19.3896C18.8125 19.7483 18.75 20.1071 18.75 20.5C18.75 21.8592 19.4085 23.1628 20.5806 24.1239C21.7527 25.085 23.3424 25.625 25 25.625C25.4583 25.625 25.9166 25.5737 26.3541 25.4883L29.5833 28.1362C28.1875 28.7 26.6458 29.0417 25 29.0417C22.2373 29.0417 19.5878 28.1417 17.6343 26.5399C15.6808 24.938 14.5833 22.7654 14.5833 20.5C14.5833 19.1504 15 17.8862 15.6875 16.7417ZM4.16665 7.29458L8.91665 11.1896L9.85415 11.9583C6.41665 14.1792 3.70831 17.0833 2.08331 20.5C5.68748 27.9996 14.5833 33.3125 25 33.3125C28.2291 33.3125 31.3125 32.8 34.125 31.8775L35.0208 32.595L41.1041 37.5833L43.75 35.4137L6.81248 5.125M25 11.9583C27.7627 11.9583 30.4122 12.8583 32.3657 14.4601C34.3192 16.062 35.4166 18.2346 35.4166 20.5C35.4166 21.5933 35.1458 22.6525 34.6666 23.6092L40.7708 28.6146C43.8958 26.4792 46.3958 23.6775 47.9166 20.5C44.3125 13.0004 35.4166 7.6875 25 7.6875C22.0833 7.6875 19.2916 8.11458 16.6666 8.88333L21.1875 12.5562C22.375 12.1804 23.6458 11.9583 25 11.9583Z" fill="black" fill-opacity="0.8"/>
</svg>
