<svg width="849" height="630" viewBox="0 0 849 630" fill="none" xmlns="http://www.w3.org/2000/svg">
<g clip-path="url(#clip0_130_335)">
<path opacity="0.1" d="M55.567 246.927H129.356V347.925H60.9623C60.7878 348.969 60.6133 350.006 60.4169 351.05H129.356V432.488C129.239 432.488 129.123 432.4 129.014 432.356C127.075 431.582 125.136 430.762 123.197 429.896C122.783 429.706 122.375 429.509 121.954 429.326C120.015 428.406 118.076 427.433 116.137 426.406C115.46 426.048 114.784 425.675 114.122 425.296C103.358 419.264 93.5742 411.617 85.1102 402.618C84.8557 402.377 84.623 402.114 84.383 401.888C83.2051 400.603 82.0489 399.304 80.9292 397.975C80.5074 397.486 80.1003 396.989 79.6858 396.514C78.3624 394.894 77.0827 393.214 75.8466 391.528C75.6575 391.272 75.483 391.024 75.3012 390.798C70.2375 383.762 66.0382 376.138 62.7946 368.091C62.6928 367.85 62.5983 367.587 62.5038 367.361C61.5004 364.805 60.5914 362.213 59.8062 359.57C59.4717 358.468 59.1445 357.38 58.8682 356.234C58.7664 355.905 58.6864 355.569 58.5991 355.241C54.5127 339.068 54.04 322.261 54.04 305.534C54.04 303.587 54.04 301.64 54.04 299.693C54.0982 292.864 54.1782 286.042 54.28 279.228C54.3188 277.475 54.3551 275.716 54.3891 273.949C54.4909 269.476 54.6363 264.993 54.8253 260.5C54.869 259.259 54.9271 258.01 54.9926 256.776C55.0217 256.061 55.058 255.345 55.1016 254.63C55.2325 252.045 55.3877 249.478 55.567 246.927Z" fill="#06A881"/>
<path opacity="0.1" d="M129.356 134.474H88.8767C95.4598 124.139 102.649 114.206 110.407 104.729C116.428 97.3106 122.768 90.0824 129.356 83.1171V134.474Z" fill="#06A881"/>
<path opacity="0.1" d="M129.356 137.584V243.802H55.7997C55.7997 243.496 55.8433 243.182 55.8724 242.875C55.9378 242.035 56.0033 241.203 56.076 240.363C56.1487 239.385 56.2432 238.407 56.3378 237.443C56.4323 236.479 56.5268 235.311 56.6431 234.252C56.7595 233.194 56.854 232.12 56.9704 231.062C57.0867 230.003 57.203 228.944 57.3339 227.893C57.4648 226.841 57.5811 225.775 57.7266 224.724C57.8356 223.855 57.9447 222.979 58.0683 222.103C58.2356 220.869 58.4101 219.635 58.5918 218.409C58.5918 218.219 58.65 218.036 58.6791 217.854C60.008 208.875 61.8139 199.975 64.0889 191.19C66.478 181.976 69.5278 172.947 73.2144 164.175C77.1317 154.984 81.7202 146.096 86.9425 137.584H129.356Z" fill="#06A881"/>
<path opacity="0.1" d="M146.981 246.927V347.925H304.593V246.927H146.981ZM146.981 351.05V437.788C147.883 437.971 148.77 438.153 149.664 438.306C150.864 438.54 152.071 438.752 153.3 438.934L154.027 439.037C154.507 439.117 154.994 439.183 155.481 439.241C156.696 439.416 157.91 439.548 159.117 439.664C159.684 439.723 160.273 439.767 160.848 439.818L162.251 439.92C163.014 439.978 163.771 440.022 164.527 440.051C164.992 440.051 165.458 440.088 165.93 440.103C166.403 440.117 166.657 440.103 167.035 440.103H168.41C169.035 440.103 169.66 440.103 170.278 440.103H171.078C171.704 440.103 172.329 440.103 172.947 440.044H172.983C173.42 440.044 173.849 440.044 174.285 439.993C174.408 440 174.532 440 174.656 439.993C175.019 439.993 175.383 439.993 175.732 439.949C175.814 439.942 175.897 439.942 175.979 439.949C176.786 439.898 177.601 439.832 178.422 439.759C179.244 439.686 180.022 439.599 180.844 439.511L182.494 439.307C189.239 438.359 195.909 436.934 202.454 435.043C217.164 430.925 231.539 425.164 246.241 420.951C265.234 415.512 286.233 412.833 304.586 419.455V351.05H146.981ZM304.593 134.474V0.0145047C287.339 -0.176109 270.132 1.84812 253.389 6.03801C213.477 16.1064 177.637 37.9443 146.981 65.835V134.466H154.914V137.584H146.981V243.802H304.593V137.584H187.366V134.459L304.593 134.474ZM507.083 89.0528C497.209 88.7024 487.393 85.5702 478.507 80.7148C461.536 71.4496 447.968 57.1246 432.815 45.0484C401.33 19.8811 362.283 4.68728 322.226 0.919855V134.474H547.206L547.766 133.882L507.083 89.0528ZM527.581 85.4022L549.315 109.358V79.1013C542 80.0285 535.63 82.1824 527.581 85.373V85.4022ZM549.315 459.327V351.05H502.968C502.852 350.59 502.721 350.122 502.575 349.655C502.713 350.122 502.837 350.59 502.961 351.05H322.226V429.348C323.942 430.626 325.636 431.976 327.316 433.334C329.129 434.824 330.93 436.33 332.718 437.854L334.522 439.351C335.387 440.081 336.267 440.811 337.139 441.504C338.889 442.921 340.651 444.323 342.426 445.71C343.313 446.411 344.205 447.1 345.101 447.776C359.304 458.675 374.284 468.512 389.922 477.207C393.426 479.171 396.967 481.062 400.53 482.91C402.901 484.136 405.288 485.338 407.693 486.516C411.299 488.283 414.935 489.987 418.599 491.627C452.386 506.856 488.113 517.304 524.76 522.672C532.894 523.874 541.064 524.823 549.271 525.519V459.312H549.998L549.315 459.327ZM322.226 137.584V243.802H549.315V137.584H322.226ZM322.226 246.912V347.925H549.315V246.927L322.226 246.912ZM566.941 78.9552V112.76L594.673 82.1897C585.482 80.6662 576.238 79.588 566.941 78.9552ZM566.941 246.927V347.925H787.805V246.927H566.941ZM787.027 467.336L787.805 351.05H566.941V526.695C581.167 527.289 595.415 527.116 609.623 526.177H609.87C616.656 525.738 623.411 525.115 630.135 524.307H630.288C666.168 520.114 701.25 510.704 734.434 496.373M830.415 263.515C829.576 261.568 828.716 259.621 827.833 257.674C826.19 254.024 824.46 250.475 822.671 246.934H805.438V347.925H849C848.964 319.319 841.751 290.114 830.415 263.515ZM805.438 351.05V451.076C817.705 439.27 828.081 425.756 835.541 410.306C844.521 391.696 848.629 371.559 848.971 351.042L805.438 351.05ZM805.438 217.496V243.78H821.057C816.322 234.745 811.108 225.971 805.438 217.496ZM655.65 98.7781C654.501 98.3327 653.345 97.8873 652.189 97.4638C639.999 92.9401 627.541 89.18 614.887 86.2054L572.438 132.977L571.609 133.875L572.154 134.466H723.236C702.193 119.927 679.506 107.947 655.65 98.7781ZM727.672 137.584H570.038L566.941 140.424V243.802H594.099H787.805V193.716C770.29 172.447 750.073 153.576 727.672 137.584Z" fill="#06A881"/>
<path opacity="0.1" d="M129.356 191.168V243.802H55.7997C55.7997 243.496 55.8433 243.182 55.8724 242.875C55.9378 242.035 56.0033 241.203 56.076 240.363C56.1487 239.385 56.2432 238.407 56.3378 237.443C56.4323 236.479 56.5268 235.311 56.6431 234.252C56.7595 233.194 56.854 232.12 56.9704 231.062C57.0867 230.003 57.203 228.944 57.3339 227.893C57.4648 226.841 57.5811 225.775 57.7266 224.724C57.8356 223.855 57.9447 222.979 58.0683 222.103C58.2356 220.869 58.4101 219.635 58.5918 218.409C58.5918 218.219 58.65 218.036 58.6791 217.854C60.008 208.875 61.8139 199.975 64.0889 191.19L129.356 191.168Z" fill="#06A881"/>
<path opacity="0.1" d="M55.567 246.927H129.356V347.925H60.9623C60.7878 348.969 60.6133 350.006 60.4169 351.05H129.356V432.488C129.239 432.488 129.123 432.4 129.014 432.356C127.075 431.582 125.136 430.762 123.197 429.896C122.783 429.706 122.375 429.509 121.954 429.326C120.015 428.406 118.076 427.433 116.137 426.406C115.46 426.048 114.784 425.675 114.122 425.296C103.358 419.264 93.5742 411.617 85.1102 402.618C84.8557 402.377 84.623 402.114 84.383 401.888C83.2051 400.603 82.0489 399.304 80.9292 397.975C80.5074 397.486 80.1003 396.989 79.6858 396.514C78.3624 394.894 77.0827 393.214 75.8466 391.528C75.6575 391.272 75.483 391.024 75.3012 390.798C70.2375 383.762 66.0382 376.138 62.7946 368.091C62.6928 367.85 62.5983 367.587 62.5038 367.361C61.5004 364.805 60.5914 362.213 59.8062 359.57C59.4717 358.468 59.1445 357.38 58.8682 356.234C58.7664 355.905 58.6864 355.569 58.5991 355.241C54.5127 339.068 54.04 322.261 54.04 305.534C54.04 303.587 54.04 301.64 54.04 299.693C54.0982 292.864 54.1782 286.042 54.28 279.228C54.3188 277.475 54.3551 275.716 54.3891 273.949C54.4909 269.476 54.6363 264.993 54.8253 260.5C54.869 259.259 54.9271 258.01 54.9926 256.776C55.0217 256.061 55.058 255.345 55.1016 254.63C55.2325 252.045 55.3877 249.478 55.567 246.927Z" fill="#06A881"/>
<path opacity="0.1" d="M202.461 152.8V243.802H146.974V152.8H154.885V121.989H187.359V152.8H202.461Z" fill="#06A881"/>
<path opacity="0.1" d="M202.454 246.92H146.974V347.918H202.454V246.92Z" fill="#06A881"/>
<path opacity="0.1" d="M146.981 351.05H202.461V435.014C195.917 436.906 189.247 438.328 182.501 439.27C181.949 439.351 181.403 439.416 180.851 439.475C180.036 439.57 179.229 439.657 178.422 439.73L175.986 439.927H175.739L174.663 439.986H174.292C173.856 439.986 173.427 440.037 172.991 440.044H172.954C172.329 440.044 171.711 440.088 171.086 440.103H170.286C169.668 440.103 169.05 440.103 168.417 440.103H167.05H165.938C165.465 440.103 165 440.103 164.527 440.044C163.78 440.015 163.024 439.971 162.258 439.913L160.855 439.811C160.273 439.767 159.691 439.708 159.117 439.65C157.895 439.543 156.684 439.404 155.481 439.234L154.027 439.029L153.3 438.927C152.086 438.745 150.879 438.54 149.664 438.307C148.763 438.146 147.876 437.964 146.981 437.774V351.05Z" fill="#06A881"/>
<path opacity="0.1" d="M549.308 142.052H503.557V243.795H549.308V142.052Z" fill="#06A881"/>
<path opacity="0.1" d="M549.315 246.92V347.925H322.226V304.358H443.184V330.059H503.557V246.92H549.315Z" fill="#06A881"/>
<path opacity="0.1" d="M550.035 459.349C549.795 459.349 549.555 459.349 549.308 459.305V525.563C541.111 524.887 532.942 523.94 524.803 522.723C488.144 517.357 452.403 506.914 418.599 491.693C408.841 487.273 399.282 482.457 389.922 477.244C374.289 468.544 359.311 458.708 345.109 447.813C341.531 445.068 338.007 442.261 334.536 439.395C332.13 437.394 329.745 435.35 327.316 433.371C325.644 432.006 323.949 430.655 322.226 429.37V351.05H502.961C502.83 350.583 502.713 350.123 502.583 349.655C502.721 350.123 502.852 350.583 502.968 351.05H549.315V459.298C549.555 459.305 549.795 459.327 550.035 459.349Z" fill="#06A881"/>
<path opacity="0.1" d="M668.636 134.474H638.824V125.172H652.181V97.4639C653.34 97.8923 654.494 98.3303 655.643 98.7781V125.172H668.629L668.636 134.474Z" fill="#06A881"/>
<path opacity="0.1" d="M740.469 243.802H594.099C594.113 243.806 594.128 243.806 594.142 243.802H594.077H566.94V142.06H574.633V217.262H609.783V172.725H638.831V137.584H668.644V172.747H697.678V217.284H740.476L740.469 243.802Z" fill="#06A881"/>
<path opacity="0.1" d="M566.94 246.927V347.925H740.476V246.927H566.94ZM787.558 466.803L787.805 386.855H740.476V351.079H566.94V526.695C581.167 527.289 595.415 527.116 609.623 526.177H609.87C616.656 525.739 623.411 525.116 630.135 524.308H630.288C666.168 520.114 701.25 510.704 734.434 496.373" fill="#06A881"/>
<path opacity="0.1" d="M808.492 351.05H848.971C848.622 371.559 844.521 391.703 835.541 410.306C828.081 425.763 817.705 439.278 805.438 451.084V386.833H808.492V351.05Z" fill="#06A881"/>
<path opacity="0.1" d="M849 347.925H808.492V263.516H830.415C841.751 290.114 848.964 319.319 849 347.925Z" fill="#06A881"/>
<path opacity="0.1" d="M549.315 170.337H524.803V202.236H549.315V170.337Z" fill="#06A881"/>
<path opacity="0.1" d="M549.315 236.457H524.803V243.802H549.315V236.457Z" fill="#06A881"/>
<path opacity="0.1" d="M549.315 246.92H524.803V268.349H549.315V246.92Z" fill="#06A881"/>
<path opacity="0.1" d="M549.315 302.577H524.803V334.476H549.315V302.577Z" fill="#06A881"/>
<path opacity="0.1" d="M549.315 368.697H524.803V400.596H549.315V368.697Z" fill="#06A881"/>
<path opacity="0.1" d="M549.315 459.298C549.555 459.298 549.795 459.298 550.042 459.349C549.802 459.349 549.562 459.349 549.315 459.305V466.716H524.803V434.817H549.315V459.298Z" fill="#06A881"/>
<path opacity="0.1" d="M549.315 500.929V525.563C541.113 524.887 532.942 523.94 524.803 522.723V500.929H549.315Z" fill="#06A881"/>
<path opacity="0.1" d="M427.274 345.581H322.226V347.925H427.274V345.581Z" fill="#06A881"/>
<path opacity="0.1" d="M427.274 351.042H322.226V360.023H427.274V351.042Z" fill="#06A881"/>
<path opacity="0.1" d="M427.274 389.461H322.226V403.903H427.274V389.461Z" fill="#06A881"/>
<path opacity="0.1" d="M427.274 433.342V447.784H345.109C341.531 445.048 338.007 442.24 334.536 439.358C332.122 437.365 329.737 435.32 327.316 433.342H427.274Z" fill="#06A881"/>
<path opacity="0.1" d="M427.274 477.215V491.693H418.599C408.841 487.273 399.282 482.457 389.922 477.244L427.274 477.215Z" fill="#06A881"/>
<path opacity="0.1" d="M630.302 256.711H609.623V277.475H630.302V256.711Z" fill="#06A881"/>
<path opacity="0.1" d="M182.552 159.962H161.873V180.727H182.552V159.962Z" fill="#06A881"/>
<path opacity="0.1" d="M182.552 208.194H161.873V228.959H182.552V208.194Z" fill="#06A881"/>
<path opacity="0.1" d="M182.552 256.426H161.873V277.191H182.552V256.426Z" fill="#06A881"/>
<path opacity="0.1" d="M182.552 304.651H161.873V325.415H182.552V304.651Z" fill="#06A881"/>
<path opacity="0.1" d="M182.552 352.882H161.873V373.647H182.552V352.882Z" fill="#06A881"/>
<path opacity="0.1" d="M182.552 401.114H161.873V421.879H182.552V401.114Z" fill="#06A881"/>
<path opacity="0.1" d="M709.246 256.711H688.567V277.475H709.246V256.711Z" fill="#06A881"/>
<path opacity="0.1" d="M630.302 307.929H609.623V328.693H630.302V307.929Z" fill="#06A881"/>
<path opacity="0.1" d="M709.246 307.929H688.567V328.693H709.246V307.929Z" fill="#06A881"/>
<path opacity="0.1" d="M630.302 359.14H609.623V379.904H630.302V359.14Z" fill="#06A881"/>
<path opacity="0.1" d="M709.246 359.14H688.567V379.904H709.246V359.14Z" fill="#06A881"/>
<path opacity="0.1" d="M630.302 410.358H609.623V431.122H630.302V410.358Z" fill="#06A881"/>
<path opacity="0.1" d="M709.246 410.358H688.567V431.122H709.246V410.358Z" fill="#06A881"/>
<path opacity="0.1" d="M630.302 461.576H609.623V482.34H630.302V461.576Z" fill="#06A881"/>
<path opacity="0.1" d="M709.246 461.576H688.567V482.34H709.246V461.576Z" fill="#06A881"/>
<path opacity="0.1" d="M609.623 526.177V512.786H630.295V524.271L609.623 526.177Z" fill="#06A881"/>
<path opacity="0.1" d="M58.5918 217.832V229.711H129.356V217.832H58.5918ZM65.6377 228.966H59.8206V218.584H65.6377V228.966ZM72.6835 228.966H66.8665V218.584H72.6835V228.966ZM79.7148 228.966H73.8978V218.584H79.7148V228.966ZM86.7607 228.966H80.9437V218.584H86.7607V228.966ZM93.7993 228.966H87.9822V218.584H93.7993V228.966ZM100.845 228.966H95.0281V218.584H100.845V228.966ZM107.891 228.966H102.074V218.584H107.891V228.966ZM114.93 228.966H109.113V218.584H114.93V228.966ZM121.968 228.966H116.151V218.584H121.968V228.966ZM129.014 228.966H123.197V218.584H129.014V228.966Z" fill="#06A881"/>
<path opacity="0.1" d="M58.5918 252.41V264.289H129.356V252.41H58.5918ZM65.6377 263.545H59.8206V253.162H65.6377V263.545ZM72.6835 263.545H66.8665V253.162H72.6835V263.545ZM79.7148 263.545H73.8978V253.162H79.7148V263.545ZM86.7607 263.545H80.9437V253.162H86.7607V263.545ZM93.7993 263.545H87.9822V253.162H93.7993V263.545ZM100.845 263.545H95.0281V253.162H100.845V263.545ZM107.891 263.545H102.074V253.162H107.891V263.545ZM114.93 263.545H109.113V253.162H114.93V263.545ZM121.968 263.545H116.151V253.162H121.968V263.545ZM129.014 263.545H123.197V253.162H129.014V263.545Z" fill="#06A881"/>
<path opacity="0.1" d="M58.5918 286.996V298.868H129.356V286.996H58.5918ZM65.6377 298.116H59.8206V287.734H65.6377V298.116ZM72.6835 298.116H66.8665V287.734H72.6835V298.116ZM79.7148 298.116H73.8978V287.734H79.7148V298.116ZM86.7607 298.116H80.9437V287.734H86.7607V298.116ZM93.7993 298.116H87.9822V287.734H93.7993V298.116ZM100.845 298.116H95.0281V287.734H100.845V298.116ZM107.891 298.116H102.074V287.734H107.891V298.116ZM114.93 298.116H109.113V287.734H114.93V298.116ZM121.968 298.116H116.151V287.734H121.968V298.116ZM129.014 298.116H123.197V287.734H129.014V298.116Z" fill="#06A881"/>
<path opacity="0.1" d="M58.5918 321.575V333.447H129.356V321.575H58.5918ZM65.6377 332.702H59.8206V322.305H65.6377V332.702ZM72.6835 332.702H66.8665V322.305H72.6835V332.702ZM79.7148 332.702H73.8978V322.305H79.7148V332.702ZM86.7607 332.702H80.9437V322.305H86.7607V332.702ZM93.7993 332.702H87.9822V322.305H93.7993V332.702ZM100.845 332.702H95.0281V322.305H100.845V332.702ZM107.891 332.702H102.074V322.305H107.891V332.702ZM114.93 332.702H109.113V322.305H114.93V332.702ZM121.968 332.702H116.151V322.305H121.968V332.702ZM129.014 332.702H123.197V322.305H129.014V332.702Z" fill="#06A881"/>
<path opacity="0.1" d="M58.9336 356.139C59.2099 357.263 59.5371 358.373 59.8716 359.475V356.891H65.6886V367.266H62.5692C62.6565 367.514 62.751 367.77 62.8528 367.996H129.385V356.139H58.9336ZM72.749 367.266H66.932V356.891H72.749V367.266ZM79.7803 367.266H73.9633V356.891H79.7803V367.266ZM86.8262 367.266H81.0092V356.891H86.8262V367.266ZM93.8647 367.266H88.0477V356.891H93.8647V367.266ZM100.911 367.266H95.0936V356.891H100.911V367.266ZM107.956 367.266H102.139V356.891H107.956V367.266ZM114.995 367.266H109.178V356.891H114.995V367.266ZM122.034 367.266H116.217V356.891H122.034V367.266ZM129.079 367.266H123.262V356.891H129.079V367.266Z" fill="#06A881"/>
<path opacity="0.1" d="M75.323 390.717C75.5121 390.951 75.6866 391.214 75.8683 391.447H79.7148V396.434L80.9582 397.894V391.418H86.7752V401.888H84.383C84.6157 402.129 84.8411 402.385 85.1101 402.618H129.341V390.717H75.323ZM93.8356 401.888H88.0186V391.462H93.8356V401.888ZM100.881 401.888H95.0645V391.462H100.881V401.888ZM107.927 401.888H102.11V391.462H107.927V401.888ZM114.966 401.888H109.149V391.462H114.966V401.888ZM122.005 401.888H116.188V391.462H122.005V401.888ZM129.05 401.888H123.233V391.462H129.05V401.888Z" fill="#06A881"/>
<path opacity="0.1" d="M114.144 425.296C114.813 425.676 115.489 426.026 116.166 426.398V426.033H121.983V429.326C122.404 429.509 122.804 429.706 123.219 429.896V426.033H129.036V432.356C129.146 432.406 129.261 432.448 129.378 432.48V425.296H114.144Z" fill="#06A881"/>
<path opacity="0.1" d="M502.575 349.655C502.713 350.122 502.837 350.59 502.961 351.05C502.852 350.59 502.721 350.122 502.575 349.655ZM154.914 134.474V137.584H187.395V134.459L154.914 134.474ZM502.575 349.655C502.713 350.122 502.837 350.59 502.961 351.05C502.852 350.59 502.721 350.122 502.575 349.655ZM502.575 349.655C502.713 350.122 502.837 350.59 502.961 351.05C502.852 350.59 502.721 350.122 502.575 349.655Z" fill="#06A881"/>
<path opacity="0.1" d="M639.457 630C678.587 630 710.308 624.884 710.308 618.574C710.308 612.263 678.587 607.147 639.457 607.147C600.327 607.147 568.605 612.263 568.605 618.574C568.605 624.884 600.327 630 639.457 630Z" fill="#06A881"/>
<path opacity="0.1" d="M319.914 618.573C359.044 618.573 390.765 613.458 390.765 607.147C390.765 600.836 359.044 595.721 319.914 595.721C280.784 595.721 249.063 600.836 249.063 607.147C249.063 613.458 280.784 618.573 319.914 618.573Z" fill="#06A881"/>
<path d="M401.483 305.008C401.465 304.936 401.427 304.87 401.374 304.818C400.29 303.745 386.475 284.127 386.475 284.127C386.475 284.127 385.748 281.936 384.57 279.089C384.947 278.598 385.231 278.041 385.406 277.446C385.47 277.194 385.516 276.938 385.544 276.68C385.544 276.599 385.602 276.534 385.624 276.453C385.877 275.463 385.851 274.422 385.551 273.445C385.471 273.696 385.371 273.94 385.253 274.175C384.98 273.325 384.614 272.507 384.163 271.737C382.33 268.568 379.713 265.896 377.786 262.807C374.868 258.009 373.708 252.339 374.506 246.774C374.506 247.059 374.506 247.351 374.506 247.635C374.579 246.532 374.725 245.434 374.943 244.35C375.246 243.116 375.653 241.909 376.157 240.743C377.887 236.764 380.687 233.296 382.388 229.302C382.959 227.955 383.393 226.553 383.683 225.118C384.282 222.722 384.501 220.246 384.33 217.781C384.33 218.365 384.235 218.949 384.148 219.526C383.964 213.599 381.581 207.956 377.466 203.704C371.525 197.71 362.996 195.381 354.838 194.154C351.409 193.752 348.135 192.497 345.312 190.503C342.178 188.466 338.128 187.977 334.463 188.422C330.251 188.88 326.338 190.823 323.418 193.906C319.543 198.184 317.863 204.244 313.34 207.851C310.599 210.041 307.124 211.064 303.931 212.553C300.739 214.042 297.722 216.204 296.697 219.402C296.697 219.402 296.697 219.358 296.697 219.336V219.518L296.653 219.635C295.591 223.417 297.642 227.265 298.711 231.04C299.823 234.946 299.896 239.071 299.954 243.109C300.034 248.044 300.107 252.987 300.027 257.93C299.99 259.872 299.925 261.836 299.78 263.771C298.059 264.293 296.387 264.968 294.784 265.786C293.155 266.852 287.062 273.46 287.062 273.46L275.145 319.18L275.304 319.362L275.145 319.983L275.748 319.844C277.435 321.67 282.474 326.868 287.913 330.11L288.422 339.076C288.422 339.076 289.033 348.071 297.271 351.787C297.46 354.905 298.049 367.565 295.322 372.581C293.434 376.245 292.546 380.347 292.748 384.467C292.748 384.467 293.701 392.075 292.617 396.076C291.984 398.75 291.937 401.53 292.479 404.225C292.479 404.225 292.479 405.108 292.479 406.627C292.479 414.724 292.574 440.672 292.479 443.607C292.341 447.075 292.479 498.366 292.479 498.366C292.479 498.366 291.803 524.001 289.636 530.944C287.469 537.888 288.015 560.879 288.015 560.879C288.015 560.879 286.655 588.266 291.461 593.669C291.461 593.91 291.418 594.158 291.41 594.399C291.41 594.509 291.41 594.633 291.41 594.742C291.352 596.823 291.752 599.036 293.534 599.715C297.169 601.116 301.975 605.322 302.884 606.527C303.793 607.731 309.08 610.732 315.973 609.929C320.291 609.442 324.636 609.242 328.981 609.33C328.981 609.33 331.7 608.834 330.821 605.439C330.253 603.321 328.13 600.065 326.618 597.926C326.894 597.999 327.163 598.057 327.418 598.108L327.679 598.159H327.883C327.994 598.166 328.106 598.166 328.217 598.159H328.363C328.498 598.171 328.635 598.171 328.77 598.159C330.595 597.984 337.401 601.168 338.615 603.27C339.83 605.373 344.112 606.972 347.341 607.374C349.261 607.607 354.103 607.213 358.168 606.687C360.215 606.475 362.242 606.104 364.232 605.577C365.192 605.212 365.395 604.044 365.119 602.73C364.793 601.061 363.904 599.555 362.603 598.466C361.425 597.626 359.869 595.414 358.72 593.603L358.415 593.114C360.444 591.172 364.108 584.82 365.221 583.506C366.573 581.907 363.04 523.431 363.04 523.431V494.117L368.457 466.372L372.245 451.69L375.495 429.523C375.495 429.523 381.181 403.633 379.429 401.092C379.429 401.041 377.975 374.384 376.448 367.981C375.786 365.127 375.953 358.701 376.346 352.452C376.756 352.042 377.042 351.525 377.171 350.958C377.3 350.392 377.266 349.801 377.073 349.254C376.965 348.879 376.823 348.515 376.651 348.166C376.651 348.056 376.651 347.939 376.651 347.83C379.792 346.379 383.075 345.258 386.446 344.486C391.863 343.42 390.51 340.616 390.51 340.616C390.51 340.616 391.732 338.214 392.539 336.747C393.346 335.279 392.677 322.327 392.539 321.261C392.488 320.83 392.154 318.45 391.768 315.748C393.506 314.507 395.768 312.967 398.232 311.506C402.922 308.717 401.868 305.775 401.483 305.008ZM330.806 490.116C330.806 490.116 326.741 500.528 328.37 503.193C329.999 505.857 328.101 515.751 328.101 515.751L326.741 530.433C326.741 530.433 322.953 557.667 324.306 564.07C325.367 569.093 325.76 584.097 325.883 590.354C325.79 590.391 325.7 590.435 325.614 590.486L325.433 590.581C326.058 588.12 325.796 583.141 322.691 573.124L322.43 531.748C322.43 531.748 321.95 483.954 325.709 478.609C329.468 473.265 330.799 464.189 330.799 464.189C330.799 464.189 329.984 477.281 329.454 480.749C328.923 484.217 330.806 490.116 330.806 490.116ZM323.237 592.961C323.2 593.049 323.157 593.136 323.128 593.217L322.924 592.954C323.028 592.964 323.132 592.966 323.237 592.961Z" fill="url(#paint0_linear_130_335)"/>
<path d="M364.69 609.359C362.589 610.17 351.195 611.55 348.01 611.163C344.825 610.776 340.608 609.155 339.408 607.038C338.208 604.92 331.482 601.722 329.679 601.927C328.94 601.949 328.202 601.845 327.498 601.62C326.254 601.242 325.039 600.773 323.862 600.218C323.698 599.298 323.725 598.353 323.942 597.444C323.984 597.261 324.037 597.08 324.102 596.904C324.526 595.706 325.404 594.725 326.545 594.173L326.807 594.049C327.311 593.83 327.838 593.669 328.378 593.567C334.093 592.464 357.673 594.677 357.673 594.677C357.673 594.677 358.335 595.867 359.244 597.342C360.378 599.167 361.92 601.394 363.083 602.234C364.372 603.34 365.247 604.854 365.563 606.527C365.839 607.819 365.635 609.002 364.69 609.359Z" fill="white"/>
<path opacity="0.1" d="M364.69 609.36C362.589 610.17 351.202 611.55 348.017 611.163C344.832 610.776 340.615 609.148 339.408 607.038C338.201 604.928 331.49 601.722 329.686 601.927C327.883 602.131 323.869 600.218 323.869 600.218C323.869 600.218 323.244 597.298 325.062 595.305L328.698 597.897C328.698 597.897 338.426 600.927 340.23 603.738C342.033 606.549 345.32 608.118 350.068 608.403C353.616 608.637 361.767 607.25 365.585 606.556C365.839 607.819 365.643 609.002 364.69 609.36Z" fill="black"/>
<path d="M329.883 613.083C325.594 612.999 321.304 613.202 317.042 613.689C310.214 614.492 305 611.499 304.091 610.265C303.183 609.031 298.478 604.862 294.864 603.402C293.097 602.715 292.683 600.481 292.763 598.393C292.763 598.283 292.763 598.159 292.763 598.05C292.83 596.727 293.025 595.414 293.345 594.129L321.637 593.523L324.087 596.86L324.466 597.371L325.956 599.408C325.956 599.408 326.632 600.299 327.519 601.598C329.017 603.789 331.111 607.023 331.671 609.162C332.566 612.587 329.883 613.083 329.883 613.083Z" fill="white"/>
<path opacity="0.1" d="M329.883 613.083C325.594 612.999 321.304 613.202 317.042 613.689C310.221 614.492 305 611.499 304.099 610.265C303.197 609.031 298.478 604.826 294.864 603.416C293.097 602.73 292.683 600.496 292.763 598.408C294.784 598.882 299.031 600.094 300.696 602.204C302.877 605.023 306.782 609.761 312.33 610.06C316.809 610.301 327.716 609.498 331.715 609.177C332.573 612.587 329.883 613.083 329.883 613.083Z" fill="black"/>
<path opacity="0.1" d="M326.516 594.144C326.189 596.582 325.178 597.239 324.451 597.385C324.273 597.42 324.091 597.42 323.913 597.385C323.817 597.379 323.723 597.364 323.629 597.342C323.629 597.342 298.224 602.978 293.09 598.415C292.96 598.298 292.838 598.171 292.727 598.035C292.794 596.713 292.988 595.399 293.308 594.115L321.601 593.509L324.051 596.845C324.476 595.647 325.354 594.666 326.494 594.115L326.516 594.144Z" fill="black"/>
<path opacity="0.1" d="M359.237 597.313C358.67 597.94 358.197 598.298 357.899 598.174C356.561 597.634 345.596 595.757 342.113 597.371C338.63 598.984 326.843 597.634 326.843 597.634C326.843 597.634 326.843 596.232 326.778 593.983C327.282 593.764 327.809 593.603 328.348 593.501C334.064 592.399 357.644 594.611 357.644 594.611C357.644 594.611 358.335 595.838 359.237 597.313Z" fill="black"/>
<path d="M375.83 432.159L372.616 454.457L368.878 469.234L363.527 497.169V526.739C363.527 526.739 367.002 585.572 365.665 587.178C364.327 588.785 359.244 597.933 357.906 597.4C356.568 596.867 345.603 594.983 342.12 596.59C338.637 598.196 326.851 596.86 326.851 596.86C326.851 596.86 326.581 574.029 325.244 567.582C323.906 561.135 327.65 533.733 327.65 533.733L328.988 518.963C328.988 518.963 330.864 509.019 329.257 506.332C327.65 503.645 331.664 493.19 331.664 493.19C331.664 493.19 329.795 487.268 330.333 483.779C330.872 480.289 331.664 467.124 331.664 467.124C331.664 467.124 330.333 476.266 326.618 481.632C322.902 486.998 323.375 535.091 323.375 535.091L323.637 576.708C330.333 598.743 323.637 596.59 323.637 596.59C323.637 596.59 298.231 602.233 293.097 597.663C287.964 593.092 289.433 564.326 289.433 564.326C289.433 564.326 288.902 541.225 291.04 534.245C293.177 527.265 293.854 501.469 293.854 501.469C293.854 501.469 293.715 449.886 293.854 446.404C293.955 443.483 293.854 417.337 293.854 409.167C293.854 407.649 293.854 406.751 293.854 406.751L296.922 399.099L333.278 394.528H350.671C350.671 394.528 376.848 400.705 379.553 403.37C379.61 403.415 379.66 403.469 379.698 403.531C381.45 406.108 375.83 432.159 375.83 432.159Z" fill="#06A881"/>
<path opacity="0.1" d="M331.686 549.285C331.686 549.285 339.684 568.626 343.458 569.97C347.232 571.313 331.686 549.285 331.686 549.285Z" fill="black"/>
<path opacity="0.1" d="M334.645 577.76C334.645 577.76 361.651 579.103 361.382 582.06C361.113 585.017 334.645 577.76 334.645 577.76Z" fill="black"/>
<path opacity="0.1" d="M298.514 570.028C299.583 571.043 319.114 572.948 317.507 574.803C315.9 576.657 300.121 580.264 300.121 580.264L298.514 570.028Z" fill="black"/>
<path opacity="0.1" d="M295.308 536.661C295.308 537.464 299.322 562.449 300.398 563.522C301.474 564.596 310.294 565.669 310.294 565.669L295.308 536.661Z" fill="black"/>
<path d="M324.429 195.154C320.597 199.455 318.939 205.551 314.475 209.187C311.763 211.378 308.331 212.422 305.175 213.911C302.019 215.4 298.893 217.671 297.955 221.044C296.907 224.841 298.929 228.718 299.99 232.515C301.088 236.443 301.154 240.546 301.219 244.656C301.292 249.629 301.372 254.601 301.285 259.573C301.154 267.319 300.514 275.424 296.42 281.988C311.203 286.711 326.923 287.354 342.426 287.96C345.405 288.173 348.397 288.098 351.362 287.734C353.931 287.22 356.472 286.574 358.975 285.799C363.924 284.484 369.024 283.829 374.143 283.849C376.375 283.849 378.651 283.988 380.803 283.404C382.956 282.82 385.028 281.323 385.61 279.162C386.126 277.22 385.37 275.154 384.381 273.409C382.578 270.225 380.018 267.568 378.084 264.428C376.109 261.112 374.938 257.376 374.664 253.523C374.39 249.669 375.021 245.804 376.506 242.24C378.222 238.231 380.985 234.741 382.672 230.726C384.4 226.414 384.859 221.695 383.996 217.129C383.132 212.564 380.982 208.342 377.8 204.967C371.932 198.936 363.512 196.6 355.456 195.359C352.063 194.956 348.827 193.701 346.047 191.708C342.956 189.664 338.95 189.167 335.329 189.62C331.151 190.09 327.282 192.054 324.429 195.154Z" fill="#3F3D56"/>
<g opacity="0.1">
<path d="M376.731 238.027C375.249 241.545 374.614 245.365 374.877 249.176C375.04 246.451 375.667 243.774 376.731 241.261C378.44 237.253 381.203 233.763 382.89 229.747C384.269 226.394 384.849 222.764 384.584 219.146C384.434 221.682 383.862 224.175 382.89 226.52C381.203 230.536 378.44 234.019 376.731 238.027Z" fill="black"/>
<path d="M301.438 243.663C301.481 246.526 301.525 249.395 301.532 252.257C301.532 248.314 301.496 244.379 301.438 240.444C301.379 236.362 301.307 232.23 300.209 228.294C299.482 225.797 298.405 223.264 298.027 220.745C297.38 224.323 299.22 227.951 300.209 231.522C301.307 235.42 301.379 239.582 301.438 243.663Z" fill="black"/>
<path d="M381.051 279.228C378.869 279.819 376.63 279.688 374.397 279.673C369.282 279.64 364.185 280.284 359.237 281.586C356.733 282.358 354.192 283.001 351.624 283.514C348.657 283.883 345.662 283.962 342.68 283.747C327.701 283.156 312.512 282.521 298.165 278.22C297.739 279.175 297.254 280.102 296.711 280.995C311.494 285.711 327.214 286.361 342.709 286.967C345.691 287.182 348.686 287.103 351.653 286.733C354.212 286.226 356.744 285.585 359.237 284.813C364.175 283.506 369.262 282.855 374.368 282.878C376.601 282.878 378.869 283.017 381.021 282.426C383.174 281.834 385.246 280.352 385.828 278.191C386.073 277.19 386.048 276.142 385.755 275.154C385.108 277.198 383.108 278.622 381.051 279.228Z" fill="black"/>
</g>
<path d="M359.513 270.576C358.975 271.788 356.706 282.258 356.168 283.331C355.63 284.404 352.693 301.584 352.424 302.548C352.155 303.512 333.06 298.518 333.06 298.518L321.564 288.843L309.749 277.037C309.749 277.037 309.399 266.385 318.103 262.968C318.695 262.735 319.302 262.544 319.921 262.398C330.479 259.85 329.417 227.615 329.417 227.615L351.086 237.012C351.086 237.012 347.072 255.82 347.21 259.449C347.246 260.668 348.199 261.427 349.442 261.887C351.365 262.437 353.366 262.654 355.361 262.53C355.361 262.53 360.051 269.371 359.513 270.576Z" fill="#FBBEBE"/>
<path d="M398.305 305.899L401.381 306.709C401.381 306.709 403.657 310.185 398.305 313.419C394.907 315.492 391.645 317.782 388.54 320.275L372.725 325.108L369.678 315.507L384.395 304.293L398.305 305.899Z" fill="#06A881"/>
<path opacity="0.1" d="M398.305 305.899L401.381 306.709C401.381 306.709 403.657 310.185 398.305 313.419C394.907 315.492 391.645 317.782 388.54 320.275L372.725 325.108L369.678 315.507L384.395 304.293L398.305 305.899Z" fill="black"/>
<path d="M282.889 315.172L276.737 321.217C276.737 321.217 287.833 334.111 296.369 334.914C304.906 335.717 310.41 325.109 310.41 325.109L303.023 313.427L282.889 315.172Z" fill="#06A881"/>
<path opacity="0.1" d="M282.889 315.172L276.737 321.217C276.737 321.217 287.833 334.111 296.369 334.914C304.906 335.717 310.41 325.109 310.41 325.109L303.023 313.427L282.889 315.172Z" fill="black"/>
<path opacity="0.1" d="M341.32 248.679C353.139 248.679 362.72 239.059 362.72 227.192C362.72 215.325 353.139 205.704 341.32 205.704C329.502 205.704 319.921 215.325 319.921 227.192C319.921 239.059 329.502 248.679 341.32 248.679Z" fill="black"/>
<path d="M341.32 247.066C353.139 247.066 362.72 237.446 362.72 225.578C362.72 213.711 353.139 204.091 341.32 204.091C329.502 204.091 319.921 213.711 319.921 225.578C319.921 237.446 329.502 247.066 341.32 247.066Z" fill="#FBBEBE"/>
<path opacity="0.1" d="M379.713 405.97C374.84 406.529 370.041 407.609 365.396 409.189C357.397 411.862 294.719 409.233 293.846 409.189C293.846 407.671 293.846 406.773 293.846 406.773L296.915 399.121L333.271 394.55H350.664C350.664 394.55 376.841 400.727 379.545 403.392C379.654 404.998 379.713 405.97 379.713 405.97Z" fill="black"/>
<path opacity="0.1" d="M359.513 270.576C358.975 271.788 356.706 282.258 356.168 283.331C355.63 284.404 352.693 301.584 352.424 302.548C352.155 303.512 333.06 298.518 333.06 298.518L321.564 288.843L309.749 277.037C309.749 277.037 309.399 266.385 318.103 262.968L339.713 287.916L349.442 261.887C351.365 262.437 353.366 262.654 355.361 262.53C355.361 262.53 360.051 269.371 359.513 270.576Z" fill="black"/>
<path d="M339.713 288.719L317.594 263.165C316.299 262.335 314.82 261.841 313.288 261.728C311.756 261.614 310.22 261.885 308.818 262.515C303.866 264.669 297.715 266.414 296.108 267.487C294.501 268.561 288.48 275.205 288.48 275.205L306.411 322.305L298.514 353.328C298.514 353.328 299.721 369.179 296.646 374.954C294.773 378.647 293.896 382.767 294.101 386.906C294.101 386.906 295.039 394.565 293.97 398.588C293.345 401.278 293.298 404.07 293.832 406.78C293.832 406.78 357.375 409.467 365.396 406.78C370.039 405.195 374.839 404.115 379.713 403.56C379.713 403.56 378.258 376.692 376.804 370.245C375.35 363.798 378.011 339.222 378.011 339.222L376.273 312.894L386.7 285.879C386.7 285.879 381.051 268.561 375.161 266.816C375.161 266.816 364.465 264.26 362.189 263.056C359.913 261.851 353.223 260.77 353.223 260.77L349.711 261.953L339.713 288.719Z" fill="#06A881"/>
<path opacity="0.1" d="M370.574 312.005L324.029 308.827C322.851 308.746 321.832 309.64 321.752 310.823L316.755 384.614C316.674 385.796 317.564 386.82 318.742 386.901L365.287 390.079C366.465 390.159 367.485 389.266 367.565 388.083L372.562 314.292C372.642 313.109 371.752 312.085 370.574 312.005Z" fill="black"/>
<path d="M372.177 310.402L325.632 307.224C324.454 307.144 323.434 308.037 323.354 309.22L318.357 383.011C318.277 384.194 319.167 385.218 320.345 385.298L366.89 388.476C368.068 388.557 369.088 387.663 369.168 386.48L374.165 312.689C374.245 311.506 373.355 310.482 372.177 310.402Z" fill="#3F3D56"/>
<path d="M370.641 316.186L326.374 313.164L321.825 380.34L366.092 383.363L370.641 316.186Z" fill="white"/>
<path opacity="0.1" d="M366.672 333.333L330.512 330.791L329.806 340.911L365.966 343.452L366.672 333.333Z" fill="black"/>
<path opacity="0.1" d="M365.363 373.547L359.625 373.155L359.268 378.429L365.006 378.821L365.363 373.547Z" fill="black"/>
<path opacity="0.1" d="M359.703 360.819L330.33 358.813L329.972 364.087L359.346 366.093L359.703 360.819Z" fill="black"/>
<path d="M365.162 313.675L334.577 311.586L334.028 319.694L364.613 321.782L365.162 313.675Z" fill="#3F3D56"/>
<path opacity="0.1" d="M365.162 313.675L334.577 311.586L334.028 319.694L364.613 321.782L365.162 313.675Z" fill="black"/>
<path opacity="0.1" d="M342.389 404.487C342.389 404.487 342.12 444.25 331.686 467.081C331.686 467.081 344.265 436.992 344.265 435.788C344.265 434.583 351.217 421.952 349.355 418.192C347.494 414.432 342.389 404.487 342.389 404.487Z" fill="black"/>
<path opacity="0.1" d="M342.956 220.205C342.557 216.685 343.415 213.138 345.378 210.195C345.144 213.145 345.975 216.08 347.719 218.466C349.462 220.852 352.002 222.529 354.874 223.191C354.629 222.977 354.454 222.694 354.372 222.379C354.29 222.063 354.306 221.73 354.416 221.424C355.907 223.118 357.048 225.126 358.735 226.615C360.422 228.105 362.952 228.995 364.938 227.937C367.635 226.476 367.664 222.629 366.966 219.635C365.468 213.26 362.395 207.367 358.03 202.499C356.941 201.028 355.527 199.83 353.9 198.999C352.272 198.168 350.475 197.727 348.65 197.71C344.52 197.388 340.23 197.753 336.529 199.615C334.446 200.756 332.495 202.125 330.712 203.697L320.532 212.035C319.552 212.743 318.714 213.63 318.06 214.648C317.623 215.5 317.361 216.431 317.289 217.386C317.029 220.117 317.532 222.867 318.742 225.326C319.952 227.786 321.821 229.858 324.138 231.31C324.089 229.152 324.681 227.027 325.837 225.207C326.993 223.387 328.662 221.953 330.632 221.088C330.94 221.347 331.19 221.669 331.364 222.033C331.539 222.397 331.633 222.794 331.642 223.198L333.787 219.358C334.106 218.659 334.609 218.061 335.242 217.627C336.565 216.897 338.216 217.759 339.343 218.788C340.47 219.818 341.568 221.103 343.08 221.263L343.138 215.546" fill="black"/>
<path d="M342.956 219.402C342.556 215.88 343.414 212.33 345.378 209.384C344.723 215.225 349.108 221.256 354.881 222.38C354.636 222.169 354.461 221.887 354.379 221.572C354.297 221.258 354.312 220.926 354.423 220.621C355.914 222.315 357.055 224.315 358.742 225.812C360.429 227.309 362.96 228.192 364.945 227.126C367.642 225.666 367.671 221.818 366.973 218.832C365.475 212.457 362.402 206.564 358.037 201.696C356.683 200.038 354.976 198.706 353.042 197.797C351.642 197.277 350.17 196.977 348.679 196.906C344.549 196.585 340.259 196.943 336.558 198.805C334.476 199.951 332.526 201.322 330.741 202.893L320.561 211.231C319.58 211.938 318.741 212.825 318.089 213.845C317.651 214.697 317.389 215.628 317.318 216.583C317.058 219.313 317.562 222.061 318.772 224.519C319.982 226.978 321.85 229.048 324.167 230.499C324.12 228.342 324.712 226.218 325.868 224.398C327.024 222.579 328.692 221.145 330.661 220.278C330.968 220.538 331.217 220.86 331.391 221.224C331.566 221.588 331.661 221.984 331.671 222.388L333.809 218.562C334.126 217.862 334.629 217.263 335.263 216.832C336.587 216.101 338.237 216.963 339.364 217.992C340.491 219.022 341.589 220.3 343.102 220.468L343.16 214.743" fill="#3F3D56"/>
<path d="M353.093 354.934C351.224 353.985 320.321 358.826 320.321 358.826C320.321 358.826 315.231 357.365 302.928 355.336C290.625 353.306 289.84 341.23 289.84 341.23L288.495 317.055L292.647 313.405L310.432 325.087C310.432 325.087 310.708 330.993 310.432 332.059C310.258 332.789 309.792 333.658 309.836 334.25C309.849 334.41 309.915 334.561 310.023 334.68C310.131 334.799 310.274 334.878 310.432 334.907C311.639 335.213 328.087 337.886 328.087 337.886C328.087 337.886 366.21 335.265 375.713 348.158C376.466 349.105 377.036 350.185 377.393 351.342C379.749 360.154 354.787 355.774 353.093 354.934Z" fill="#FBBEBE"/>
<path opacity="0.1" d="M377.415 351.393C375.961 352.043 375.059 352.51 375.059 352.51C375.059 352.51 361.418 352.108 353.754 349.319C346.09 346.53 336.776 347.027 336.776 347.027C336.776 347.027 304.84 341.507 309.792 334.301C309.806 334.461 309.871 334.612 309.979 334.731C310.087 334.85 310.231 334.93 310.388 334.958C311.596 335.265 328.043 337.937 328.043 337.937C328.043 337.937 366.166 335.316 375.67 348.21C376.446 349.151 377.038 350.231 377.415 351.393Z" fill="black"/>
<path d="M390.678 308.856C390.678 308.856 392.554 322.152 392.685 323.232C392.815 324.313 393.492 337.331 392.685 338.813C391.877 340.295 390.678 342.704 390.678 342.704C390.678 342.704 392.016 345.523 386.664 346.603C381.312 347.684 375.03 350.896 375.03 350.896C375.03 350.896 361.382 350.495 353.762 347.677C346.141 344.858 336.776 345.391 336.776 345.391C336.776 345.391 296.239 338.404 313.631 329.876C331.024 321.348 343.327 332.899 343.327 332.899L362.72 331.694C362.72 331.694 369.947 327.255 371.954 327.664C373.371 327.845 374.81 327.612 376.099 326.992L376.237 312.886L390.678 308.856Z" fill="#FBBEBE"/>
<path opacity="0.1" d="M292.341 276.22L288.458 276.015L276.693 322.013C276.693 322.013 289.396 318.786 294.872 322.013C300.347 325.24 310.388 325.904 310.388 325.904L306.644 289.238L292.341 276.22Z" fill="black"/>
<path d="M292.341 275.409L288.458 275.205L276.693 321.202C276.693 321.202 289.396 317.975 294.872 321.202C300.347 324.43 310.388 325.094 310.388 325.094L306.644 288.427L292.341 275.409Z" fill="#06A881"/>
<path opacity="0.1" d="M381.32 285.485L386.664 286.697C386.664 286.697 400.312 306.41 401.381 307.513C402.45 308.615 396.291 312.623 393.753 312.623C391.216 312.623 378.775 314.084 375.161 317.457C371.547 320.83 373.052 303.855 373.052 303.468C373.052 303.081 377.539 292.37 377.539 292.37L381.32 285.485Z" fill="black"/>
<path d="M381.32 284.682L386.664 285.886C386.664 285.886 400.312 305.636 401.381 306.709C402.45 307.783 396.291 311.82 393.753 311.82C391.216 311.82 378.775 313.281 375.161 316.654C371.547 320.027 373.052 303.052 373.052 302.665C373.052 302.278 377.568 291.53 377.568 291.53L381.32 284.682Z" fill="#06A881"/>
<g opacity="0.1">
<path d="M345.341 209.45C345.31 208.89 345.322 208.329 345.378 207.771C344.271 209.439 343.509 211.313 343.138 213.283V214.977C343.138 214.977 343.138 214.94 343.138 214.919V215.32C343.138 216.503 343.138 217.693 343.102 218.876H343V219.423C343 219.234 343 219.051 342.964 218.861C341.509 218.628 340.47 217.401 339.386 216.423C338.303 215.444 336.609 214.51 335.285 215.262C334.651 215.693 334.148 216.292 333.831 216.992L331.671 220.818C331.662 220.415 331.567 220.02 331.392 219.657C331.218 219.294 330.969 218.973 330.661 218.715C328.691 219.58 327.022 221.014 325.866 222.834C324.71 224.654 324.118 226.779 324.167 228.937C322.181 227.687 320.519 225.98 319.319 223.958C318.119 221.935 317.416 219.655 317.267 217.306C317.141 219.929 317.714 222.539 318.926 224.866C320.139 227.193 321.949 229.153 324.167 230.543C324.12 228.385 324.712 226.262 325.868 224.442C327.024 222.623 328.692 221.188 330.661 220.321C330.968 220.581 331.217 220.904 331.391 221.268C331.566 221.631 331.661 222.028 331.671 222.432L333.809 218.606C334.126 217.906 334.63 217.307 335.263 216.875C336.587 216.145 338.237 217.007 339.364 218.036C340.491 219.066 341.589 220.343 343.102 220.511C343.102 218.642 343.121 216.778 343.16 214.919C343.517 212.968 344.258 211.109 345.341 209.45Z" fill="black"/>
<path d="M342.884 216.802C342.92 216.306 342.979 215.809 343.052 215.342L343.132 213.327C342.912 214.472 342.829 215.638 342.884 216.802Z" fill="black"/>
<path d="M364.945 225.513C362.96 226.579 360.429 225.688 358.742 224.198C357.055 222.709 355.914 220.701 354.423 219.007C354.313 219.314 354.298 219.647 354.379 219.962C354.461 220.277 354.636 220.561 354.881 220.774C354.736 220.774 354.598 220.701 354.46 220.665C355.914 222.344 357.07 224.315 358.742 225.776C360.415 227.236 362.96 228.156 364.945 227.09C366.93 226.024 367.497 223.527 367.322 221.095C367.192 223.008 366.508 224.666 364.945 225.513Z" fill="black"/>
<path d="M354.416 220.65C351.984 219.985 349.813 218.589 348.194 216.65C346.575 214.71 345.585 212.321 345.356 209.8C344.942 215.532 349.246 221.278 354.881 222.38C354.641 222.171 354.469 221.895 354.386 221.586C354.303 221.278 354.313 220.952 354.416 220.65Z" fill="black"/>
</g>
<path d="M703.611 339.981C703.611 339.981 700.746 339.58 700.746 335.396C700.746 331.212 698.696 323.378 698.696 323.378C698.696 323.378 696.922 309.747 694.471 307.586C692.021 305.424 688.872 292.735 688.872 292.735C688.872 292.735 688.334 285.85 687.236 284.368C686.138 282.886 684.655 279.257 682.466 274.08C680.278 268.904 671.174 265.355 671.174 265.355C671.174 265.355 654.675 255.747 650 252.615C649.572 252.355 649.173 252.052 648.808 251.709C647.993 250.643 644.445 250.622 644.445 250.622C644.074 248.263 643.718 245.562 643.601 243.116C643.601 242.853 643.601 242.59 643.601 242.327C648.815 239.233 652.742 234.354 654.661 228.586C654.748 228.309 654.821 228.024 654.901 227.74C655.22 227.641 655.515 227.475 655.765 227.254C656.016 227.032 656.217 226.76 656.355 226.455C656.77 225.513 656.784 224.417 657.308 223.534C657.918 222.497 659.082 221.942 659.998 221.168C662.31 219.19 662.907 215.868 662.797 212.852C662.725 210.399 662.332 207.931 662.485 205.5C662.485 205.296 662.485 205.091 662.528 204.887C662.572 204.529 662.623 204.157 662.688 203.806C663.045 201.995 663.823 200.287 664.259 198.491C664.695 196.695 664.739 194.672 663.721 193.124C662.23 190.854 659.126 190.401 656.399 190.204C653.308 189.941 650.582 190.277 648.568 187.7C647.644 186.354 646.602 185.093 645.456 183.932C645.048 183.553 641.093 181.121 641.093 180.968C637.223 179.161 632.832 178.821 628.732 180.011C626.674 180.61 624.747 181.589 622.66 182.078C618.181 183.144 613.018 181.99 609.208 184.567C607.085 186.028 605.813 188.357 604.62 190.613C603.651 192.472 602.667 194.334 601.668 196.198C600.054 199.257 598.425 202.368 597.749 205.756C597.607 206.496 597.517 207.245 597.48 207.997C597.48 208.267 597.48 208.537 597.48 208.807C597.48 208.924 597.48 209.041 597.48 209.158C597.48 209.406 597.48 209.654 597.523 209.888C597.567 210.122 597.523 210.187 597.574 210.341C597.625 210.494 597.64 210.837 597.683 211.071C597.727 211.304 597.814 211.721 597.901 212.035C597.901 212.173 597.989 212.305 598.032 212.443C598.076 212.582 598.192 212.933 598.287 213.174C598.381 213.415 598.389 213.429 598.447 213.553C598.556 213.809 598.687 214.057 598.818 214.283C598.876 214.378 598.919 214.473 598.978 214.568C599.177 214.91 599.401 215.237 599.647 215.546C601.195 217.496 603.493 218.737 605.187 220.562C605.187 220.635 605.187 220.708 605.187 220.781C605.187 220.979 605.187 221.176 605.187 221.38C605.291 225.451 606.384 229.435 608.371 232.986C610.358 236.536 613.179 239.545 616.589 241.751C616.589 242.028 616.625 242.313 616.64 242.597C616.781 244.762 616.755 246.935 616.56 249.096C616.263 248.746 615.892 248.468 615.474 248.281C615.057 248.094 614.603 248.003 614.145 248.015C613.833 247.999 613.52 248.026 613.215 248.095L613.149 248.044V248.11C611.55 248.504 609.579 250.176 607.696 254.929C607.696 254.929 601.966 261.413 597.603 261.143C593.241 260.872 582.196 267.896 582.196 267.896C582.196 267.896 571.42 274.913 569.107 282.068C567.815 286.126 566.263 290.097 564.461 293.954L551.104 321.494L548.653 343.398C548.653 343.398 550.013 353.116 549.744 354.605C549.475 356.095 555.335 369.456 555.335 369.456C555.335 369.456 574.699 403.611 582.61 405.364L583.177 404.969C583.517 405.141 583.876 405.274 584.246 405.364L585.875 404.217C585.976 405.501 585.932 406.791 585.744 408.065C584.661 411.445 586.158 433.451 588.063 437.766C589.969 442.081 589.292 498.666 589.292 498.666L589.023 503.653C589.023 503.653 589.023 503.813 589.089 504.091L589.023 505.273L589.22 505.376C589.423 506.962 589.357 508.572 589.023 510.136C588.34 512.326 588.063 518.51 588.063 518.51C588.063 518.51 582.61 553.469 585.199 560.492C587.787 567.516 589.976 575.212 589.976 575.212C589.976 575.212 592.703 583.973 590.107 585.433C587.511 586.894 580.16 589.486 581.657 593.129C583.039 596.502 588.282 605.541 589.06 606.862L588.994 607.593L587.925 619.223C588.098 620.759 588.513 622.257 589.154 623.663C590.325 626.203 592.593 628.825 596.927 628.54C597.654 628.489 598.49 628.408 599.312 628.299C607.23 627.226 616.974 623.677 616.974 623.677C616.469 623.356 616.007 622.971 615.6 622.531C615.211 622.152 614.902 621.698 614.693 621.196C614.485 620.694 614.38 620.154 614.385 619.61C614.502 617.486 610.553 607.403 609.565 604.913L609.339 604.358C609.339 604.358 618.341 594.903 616.843 586.536C616.843 586.536 606.881 580.695 610.161 577.482C613.44 574.27 619.301 565.07 619.301 565.07C619.301 565.07 619.57 530.645 619.301 525.512C619.02 521.942 619.189 518.351 619.802 514.823C619.912 514.298 620.042 513.779 620.181 513.261C624.72 513.949 629.304 514.298 633.894 514.305C635.571 514.305 637.268 514.271 638.984 514.203C638.984 514.69 639.006 515.215 639.05 515.78C639.428 524.308 640.133 539.268 640.707 544.824C641.522 552.782 646.023 574.255 646.023 574.255C646.023 574.255 637.435 579.782 647.521 593.428C647.521 593.428 647.521 598.364 646.852 599.087C646.137 601.428 645.561 603.81 645.128 606.22C644.707 608.783 644.532 611.389 645.216 612.733C646.852 615.96 656.668 615.697 656.668 615.697C656.747 615.679 656.827 615.666 656.908 615.66C658.761 615.464 660.634 615.64 662.418 616.179C664.202 616.718 665.861 617.609 667.298 618.8C671.029 621.808 685.178 620.494 692.85 619.53C695.853 619.143 697.86 618.8 697.86 618.8C697.956 618.459 697.991 618.102 697.961 617.749C697.881 615.858 696.405 611.71 686.4 608.009C686.4 608.009 676.991 601.657 677.122 596.122H676.911H675.828C676.511 596.101 676.991 596.1 676.991 596.1C676.991 596.1 673.304 582.601 674.81 581.498C676.315 580.396 671.807 565.435 671.807 565.435C671.807 565.435 669.225 540.319 669.08 538.567C669.089 537.057 669.32 535.556 669.763 534.113L669.08 520.336C669.08 520.336 668.949 515.758 669.08 514.268C669.065 512.976 668.963 511.685 668.774 510.406C668.709 509.895 668.644 509.362 668.571 508.836C672.097 507.938 674.388 507.113 674.388 507.113L673.981 459.181C676.976 453.34 677.529 440.519 677.515 431.436C677.515 425.595 677.253 421.273 677.253 421.273L681.346 414.563C681.346 414.563 682.292 406.532 680.794 404.772C680.132 403.976 680.43 403.151 680.976 402.472C681.263 402.236 681.566 402.021 681.885 401.83C681.849 401.779 681.817 401.725 681.79 401.669C682.076 401.429 682.38 401.212 682.699 401.019C682.699 401.019 681.245 398.756 682.546 397.799C683.768 398.632 684.859 399.296 685.687 399.771C685.629 400.304 685.571 400.61 685.571 400.61L685.92 399.88C686.72 400.333 687.207 400.61 687.207 400.61C687.207 400.61 693.62 387.782 693.482 385.898C693.344 384.015 697.845 376.042 697.845 376.042C697.845 376.042 698.39 371.851 700.848 370.099C703.306 368.346 702.753 355.65 702.753 355.65C702.753 355.65 703.437 349.035 705.073 346.34C706.709 343.646 703.611 339.981 703.611 339.981ZM580.901 334.352L581.025 337.411C580.298 336.236 579.774 335.396 579.774 335.396L580.901 334.352Z" fill="url(#paint1_linear_130_335)"/>
<path d="M687.585 395.062L686.015 401.779C686.015 401.779 673.435 395.317 671.174 387.14C668.913 378.962 674.962 375.845 674.962 375.845L686.691 380.824L687.585 395.062Z" fill="white"/>
<path opacity="0.1" d="M687.585 395.062L686.015 401.779C686.015 401.779 673.435 395.317 671.174 387.14C668.913 378.962 674.962 375.845 674.962 375.845L686.691 380.824L687.585 395.062Z" fill="black"/>
<path d="M616.988 623.67C616.988 623.67 605.354 627.963 597.356 628.503C593.11 628.788 590.877 626.174 589.728 623.655C589.104 622.266 588.697 620.788 588.521 619.274L589.576 607.702L590.128 601.547L607.121 597.108L609.528 604.504L609.754 605.059C610.713 607.534 614.596 617.566 614.48 619.661C614.471 620.203 614.571 620.742 614.774 621.244C614.978 621.746 615.281 622.201 615.665 622.582C616.059 622.999 616.503 623.365 616.988 623.67Z" fill="white"/>
<path d="M696.42 617.785C696.45 618.139 696.415 618.495 696.318 618.836C696.318 618.836 671.436 622.998 666.346 618.836C664.915 617.621 663.247 616.718 661.449 616.186C659.652 615.655 657.763 615.505 655.904 615.748C655.904 615.748 646.277 616.011 644.67 612.828C644.001 611.491 644.176 608.899 644.59 606.351C645.014 603.955 645.577 601.585 646.277 599.255L646.662 598.948L648.953 597.101L675.769 596.305H675.973C675.842 601.81 685.069 608.126 685.069 608.126C694.893 611.776 696.34 615.901 696.42 617.785Z" fill="white"/>
<path opacity="0.1" d="M696.427 617.785C696.453 618.139 696.416 618.495 696.318 618.836C696.318 618.836 671.436 622.998 666.353 618.836C664.921 617.62 663.253 616.716 661.453 616.185C659.654 615.653 657.764 615.504 655.904 615.748C655.904 615.748 646.27 616.011 644.663 612.827C644.001 611.491 644.169 608.899 644.583 606.344C648.291 606.716 654.145 607.644 656.442 609.863C659.918 613.222 665.808 616.58 669.414 616.85C672.265 617.026 689.214 617.566 696.427 617.785Z" fill="black"/>
<path opacity="0.1" d="M616.988 623.67C616.988 623.67 605.354 627.963 597.356 628.503C593.11 628.788 590.877 626.174 589.729 623.655C592.695 624.655 596.803 625.7 598.963 624.743C601.523 623.597 610.597 622.867 615.687 622.553C616.071 622.98 616.508 623.356 616.988 623.67Z" fill="black"/>
<path d="M634.251 277.673C624.652 273.927 612.306 261.551 615.389 255.769C616.07 254.308 616.477 252.734 616.589 251.125C616.787 248.941 616.816 246.744 616.676 244.554C616.459 240.966 616.03 237.394 615.389 233.858C615.389 233.858 645.354 234.537 643.609 238.969C643.1 240.276 643.012 242.532 643.158 245.051C643.303 247.57 643.66 250.439 644.038 252.856C644.554 256.163 645.085 258.697 645.085 258.697C645.085 258.697 643.245 261.274 642.176 261.413C641.107 261.551 648.022 283.039 634.251 277.673Z" fill="#CF6F80"/>
<path opacity="0.1" d="M609.725 605.023L609.499 605.271C600.541 594.392 589.707 607.958 589.707 607.958L589.547 607.666L590.099 601.511L607.092 597.072L609.499 604.468L609.725 605.023Z" fill="black"/>
<path opacity="0.1" d="M675.988 597.071C675.988 597.071 669.443 596.94 665.953 600.036C662.463 603.131 645.594 600.7 646.321 600.036C646.533 599.699 646.662 599.316 646.699 598.919L648.989 597.071L675.806 596.276C675.908 596.787 675.988 597.071 675.988 597.071Z" fill="black"/>
<path d="M620.871 511.64C620.385 512.85 620.015 514.105 619.766 515.386C619.16 518.894 618.991 522.465 619.264 526.016C619.534 531.127 619.264 565.377 619.264 565.377C619.264 565.377 613.513 574.511 610.299 577.731C607.085 580.95 616.843 586.733 616.843 586.733C618.297 595.064 609.485 604.468 609.485 604.468C600.526 593.589 589.692 607.147 589.692 607.147C589.692 607.147 583.803 596.925 582.334 593.275C580.865 589.624 588.085 587.105 590.623 585.616C593.161 584.126 590.492 575.394 590.492 575.394C590.492 575.394 588.354 567.735 585.809 560.748C583.264 553.761 588.616 518.985 588.616 518.985C588.616 518.985 588.892 512.801 589.554 510.647C589.884 509.092 589.951 507.493 589.75 505.916C589.707 505.383 589.656 504.945 589.62 504.638C589.583 504.331 589.554 504.2 589.554 504.2L589.656 504.025L593.292 497.22C593.292 497.22 622.617 507.354 620.871 511.64Z" fill="#06A881"/>
<path d="M675.988 596.268C675.988 596.268 669.443 596.13 665.953 599.189C662.463 602.248 645.594 599.861 646.321 599.189C647.048 598.517 646.982 593.552 646.982 593.552C637.086 579.979 645.528 574.474 645.528 574.474C645.528 574.474 641.115 553.118 640.315 545.196C639.755 539.669 639.064 524.753 638.693 516.305C638.533 512.655 638.439 510.136 638.439 510.136L646.452 508.537L647.491 508.333L666.993 504.397C666.993 504.397 667.531 508.048 667.895 511.034C668.078 512.309 668.178 513.594 668.193 514.882C668.069 516.342 668.193 520.92 668.193 520.92L668.862 534.617C668.43 536.055 668.205 537.547 668.193 539.049C668.331 540.801 670.869 565.779 670.869 565.779C670.869 565.779 675.282 580.688 673.777 581.761C672.272 582.834 675.988 596.268 675.988 596.268Z" fill="#06A881"/>
<path opacity="0.1" d="M643.609 238.991C643.1 240.298 643.012 242.554 643.158 245.073C639.144 247.5 634.53 248.74 629.846 248.653C625.161 248.565 620.597 247.152 616.676 244.576C616.459 240.988 616.03 237.416 615.389 233.88C615.389 233.88 645.354 234.559 643.609 238.991Z" fill="black"/>
<path d="M655.177 222.87C655.256 229.494 652.711 235.879 648.102 240.619C643.493 245.359 637.198 248.067 630.6 248.146C624.003 248.226 617.645 245.67 612.924 241.042C608.203 236.414 605.506 230.093 605.427 223.468C605.427 223.264 605.427 223.074 605.427 222.87C605.427 216.243 608.049 209.888 612.715 205.203C617.381 200.517 623.71 197.885 630.309 197.885C636.909 197.885 643.238 200.517 647.904 205.203C652.57 209.888 655.192 216.243 655.192 222.87H655.177Z" fill="#CF6F80"/>
<path opacity="0.1" d="M634.251 277.673C624.652 273.927 612.306 261.551 615.389 255.769C616.07 254.308 616.477 252.734 616.589 251.125L629.728 261.975L637.857 268.67L644.038 252.878C644.554 256.185 645.085 258.719 645.085 258.719C645.085 258.719 643.245 261.296 642.176 261.435C641.107 261.573 648.022 283.039 634.251 277.673Z" fill="black"/>
<path d="M668.229 325.62L657.257 510.705L642.947 511.647L605.885 404.327L611.964 276.913L613.251 249.994L629.728 263.581L637.857 270.276L644.219 254.017L656.05 264.37L668.229 325.62Z" fill="#06A881"/>
<path opacity="0.1" d="M620.871 511.64C620.385 512.85 620.015 514.105 619.766 515.386C609.344 513.774 599.221 510.602 589.736 505.974L589.54 505.872L589.605 504.697V504.083L593.241 497.279C593.241 497.279 622.617 507.354 620.871 511.64Z" fill="black"/>
<path opacity="0.1" d="M646.692 515.415C644.03 515.872 641.345 516.181 638.65 516.342C638.49 512.691 638.395 510.172 638.395 510.172L646.452 508.537L646.692 515.415Z" fill="black"/>
<path opacity="0.1" d="M667.924 511.034C662.754 512.385 654.763 513.903 647.622 512.954L647.521 508.333L667.022 504.397C667.022 504.397 667.538 508.019 667.924 511.034Z" fill="black"/>
<path opacity="0.1" d="M647.491 513.801C617.679 518.912 590.376 504.258 590.376 504.258L590.637 499.294C590.637 499.294 591.314 443.009 589.438 438.694C587.562 434.379 586.1 412.526 587.162 409.189C588.223 405.853 583.286 355.474 583.286 355.474L582.486 335.031L553.19 323.079L566.279 295.677C568.046 291.836 569.567 287.886 570.831 283.849C573.106 276.731 583.672 269.743 583.672 269.743C583.672 269.743 594.506 262.763 598.789 263.026C603.071 263.289 608.685 256.849 608.685 256.849C612.829 246.241 616.581 251.008 616.581 251.008C616.581 251.52 616.581 251.008 616.378 252.578C614.923 264.224 639.893 301.022 640.249 301.679L642.656 359.84L645.063 433.444L647.491 513.801Z" fill="black"/>
<path d="M646.692 513.801C616.88 518.912 589.569 504.258 589.569 504.258L589.838 499.294C589.838 499.294 590.507 443.009 588.631 438.694C586.755 434.379 585.293 412.504 586.362 409.138C587.431 405.772 582.465 355.445 582.465 355.445L581.658 335.002L552.369 323.05L565.457 295.648C567.22 291.808 568.741 287.86 570.009 283.827C572.285 276.731 582.886 269.736 582.886 269.736C582.886 269.736 593.721 262.756 597.996 263.019C602.272 263.282 607.914 256.849 607.914 256.849C612.066 246.241 616.64 251.008 616.64 251.008C616.64 251.52 616.203 251.739 616.436 252.578C619.635 263.873 639.151 301.022 639.508 301.679L641.915 359.84L644.27 433.481L646.692 513.801Z" fill="white"/>
<path opacity="0.1" d="M638.657 303.322C635.45 301.978 618.465 282.506 618.465 282.506V278.074C617.847 276.614 614.167 277.505 611.193 278.527L612.473 251.607L613.927 252.819C617.105 264.107 638.308 302.672 638.657 303.322Z" fill="black"/>
<path d="M639.464 301.715C636.25 300.365 619.264 280.9 619.264 280.9V276.461C618.646 275 614.974 275.891 611.993 276.913L613.251 250.023L614.705 251.228C617.912 262.501 639.108 301.058 639.464 301.715Z" fill="white"/>
<path opacity="0.1" d="M590.376 398.822C590.776 398.822 611.106 396.675 611.106 396.675C611.106 396.675 623.416 420.988 622.609 426.895C621.802 432.801 620.341 438.044 615.389 437.116C610.437 436.189 588.74 437.847 588.74 437.847L590.376 398.822Z" fill="black"/>
<path d="M589.569 397.208C589.976 397.208 610.306 395.062 610.306 395.062C610.306 395.062 622.609 419.411 621.809 425.252C621.01 431.093 619.534 436.401 614.589 435.474C609.645 434.546 587.933 436.204 587.933 436.204L589.569 397.208Z" fill="white"/>
<path d="M604.889 385.825C604.889 385.825 623.547 395.901 623.947 398.968C624.347 402.034 614.451 397.624 612.313 397.084C610.905 396.748 609.473 396.524 608.03 396.412L593.771 396.799L604.889 385.825Z" fill="#CF6F80"/>
<path opacity="0.1" d="M633.443 304.578C634.528 304.578 635.407 303.695 635.407 302.606C635.407 301.517 634.528 300.635 633.443 300.635C632.359 300.635 631.48 301.517 631.48 302.606C631.48 303.695 632.359 304.578 633.443 304.578Z" fill="black"/>
<path d="M633.443 303.774C634.528 303.774 635.407 302.892 635.407 301.803C635.407 300.714 634.528 299.832 633.443 299.832C632.359 299.832 631.48 300.714 631.48 301.803C631.48 302.892 632.359 303.774 633.443 303.774Z" fill="#3F3D56"/>
<path opacity="0.1" d="M637.057 389.914C638.142 389.914 639.02 389.032 639.02 387.943C639.02 386.854 638.142 385.971 637.057 385.971C635.973 385.971 635.094 386.854 635.094 387.943C635.094 389.032 635.973 389.914 637.057 389.914Z" fill="black"/>
<path d="M637.057 389.104C638.142 389.104 639.02 388.221 639.02 387.132C639.02 386.044 638.142 385.161 637.057 385.161C635.973 385.161 635.094 386.044 635.094 387.132C635.094 388.221 635.973 389.104 637.057 389.104Z" fill="#3F3D56"/>
<path opacity="0.1" d="M635.407 347.246C636.491 347.246 637.37 346.363 637.37 345.275C637.37 344.186 636.491 343.303 635.407 343.303C634.322 343.303 633.443 344.186 633.443 345.275C633.443 346.363 634.322 347.246 635.407 347.246Z" fill="black"/>
<path d="M635.407 346.443C636.491 346.443 637.37 345.56 637.37 344.471C637.37 343.383 636.491 342.5 635.407 342.5C634.322 342.5 633.443 343.383 633.443 344.471C633.443 345.56 634.322 346.443 635.407 346.443Z" fill="#3F3D56"/>
<path d="M680.663 396.003C680.663 396.003 682.001 398.019 680.663 398.924C679.325 399.829 680.794 402.151 680.794 402.151C680.794 402.151 677.456 404.108 678.925 405.882C680.394 407.656 679.463 415.622 679.463 415.622L675.45 422.332C675.45 422.332 675.689 426.632 675.704 432.444C675.704 441.512 675.173 454.26 672.236 460.072L672.628 507.756C672.628 507.756 658.573 512.918 646.808 511.341L645.063 434.824C645.063 434.824 647.608 391.433 648.546 383.109C649.095 378.788 649.318 374.432 649.215 370.077C649.215 370.077 648.815 357.051 647.47 351.013C647.47 351.013 646.015 324.817 645.87 317.566C645.805 314.098 645.986 303.979 646.19 294.356C646.415 283.835 646.67 273.912 646.67 273.912L644.016 252.819C644.016 252.819 646.67 252.556 647.47 253.622C647.828 253.958 648.218 254.259 648.633 254.52C653.221 257.631 669.407 267.195 669.407 267.195C669.407 267.195 678.365 270.773 680.51 275.898C682.655 281.024 684.146 284.66 685.186 286.12C686.226 287.58 686.793 294.443 686.793 294.443C686.793 294.443 689.876 307.075 692.283 309.214C694.689 311.353 696.42 324.933 696.42 324.933L675.151 341.726C675.151 341.726 673.283 369.661 672.883 370.741C672.483 371.822 680.663 396.003 680.663 396.003Z" fill="white"/>
<path d="M681.47 396.003C681.47 396.003 682.801 398.018 681.47 398.924C680.139 399.829 681.594 402.151 681.594 402.151C681.594 402.151 678.256 404.108 679.725 405.882C681.194 407.656 680.263 415.622 680.263 415.622L676.264 422.331C676.264 422.331 676.504 426.632 676.526 432.444C676.526 441.512 675.995 454.26 673.057 460.071L673.457 507.756C673.457 507.756 659.402 512.918 647.637 511.341L645.899 434.824C645.899 434.824 648.437 391.433 649.382 383.109C649.932 378.788 650.153 374.431 650.044 370.077C650.044 370.077 649.644 357.051 648.306 351.013C648.306 351.013 646.852 324.816 646.699 317.566C646.634 314.098 646.815 303.979 647.019 294.356C647.244 283.835 647.499 273.912 647.499 273.912L643.994 252.534C643.994 252.534 647.499 252.534 648.306 253.622C648.661 253.962 649.051 254.263 649.469 254.52C654.05 257.631 670.236 267.195 670.236 267.195C670.236 267.195 679.172 270.773 681.354 275.898C683.535 281.024 684.989 284.66 686.029 286.12C687.069 287.58 687.636 294.443 687.636 294.443C687.636 294.443 690.719 307.075 693.126 309.214C695.533 311.353 697.271 324.933 697.271 324.933L676.002 341.726C676.002 341.726 674.133 369.661 673.726 370.741C673.319 371.822 681.47 396.003 681.47 396.003Z" fill="white"/>
<path opacity="0.1" d="M655.999 280.111L657.926 285.733L647.811 295.955C648.037 285.434 648.291 275.511 648.291 275.511L644.787 254.141C644.787 254.141 648.291 254.141 649.098 255.229C649.453 255.569 649.843 255.87 650.262 256.127L658.856 281.017L655.999 280.111Z" fill="black"/>
<path d="M655.177 278.498L657.104 284.112L646.997 294.334C647.215 283.813 647.477 273.89 647.477 273.89L643.965 252.513C643.965 252.513 647.477 252.513 648.277 253.6C648.633 253.938 649.023 254.239 649.44 254.498L658.086 279.41L655.177 278.498Z" fill="white"/>
<path opacity="0.1" d="M655.177 222.87C655.18 225.5 654.768 228.115 653.956 230.616C653.819 230.639 653.679 230.634 653.544 230.602C653.409 230.569 653.282 230.509 653.17 230.426C652.974 223.855 649.76 217.678 645.797 212.429C644.683 210.846 643.334 209.442 641.798 208.267C640.243 207.095 638.31 206.546 636.374 206.727C634.192 207.026 632.265 208.515 630.062 208.705C627.154 208.946 624.551 206.924 621.664 206.829C620.49 206.839 619.332 207.1 618.267 207.597C617.203 208.093 616.256 208.812 615.491 209.706C613.973 211.503 612.846 213.6 612.182 215.86C611.039 219.291 610.416 222.875 610.335 226.491C610.299 228.535 610.103 231.098 608.212 231.843C608.355 230.34 608.185 228.825 607.713 227.392C607.242 225.959 606.478 224.64 605.471 223.519L605.427 223.468C605.427 223.264 605.427 223.074 605.427 222.87C605.427 216.243 608.049 209.888 612.715 205.203C617.381 200.517 623.71 197.885 630.309 197.885C636.909 197.885 643.238 200.517 647.904 205.203C652.57 209.888 655.192 216.243 655.192 222.87H655.177Z" fill="black"/>
<path d="M640.635 183.202C636.856 181.417 632.559 181.08 628.55 182.253C626.536 182.852 624.638 183.823 622.595 184.312C618.232 185.371 613.142 184.224 609.397 186.787C607.318 188.247 606.067 190.554 604.904 192.803L601.995 198.359C600.41 201.404 598.81 204.5 598.149 207.851C597.487 211.202 597.887 214.955 600.003 217.657C601.537 219.613 603.82 220.847 605.493 222.694C606.497 223.821 607.259 225.143 607.729 226.58C608.2 228.016 608.369 229.535 608.227 231.04C610.117 230.31 610.306 227.732 610.35 225.688C610.431 222.071 611.054 218.488 612.197 215.057C612.86 212.797 613.987 210.7 615.505 208.902C616.27 208.008 617.216 207.287 618.281 206.79C619.346 206.293 620.504 206.03 621.678 206.018C624.587 206.121 627.197 208.143 630.077 207.895C632.258 207.712 634.192 206.223 636.388 205.923C638.324 205.74 640.259 206.289 641.813 207.464C643.35 208.635 644.697 210.039 645.804 211.626C649.775 216.883 652.996 223.03 653.185 229.623C654.006 230.222 655.192 229.433 655.599 228.499C656.006 227.564 656.021 226.469 656.537 225.578C657.133 224.549 658.275 223.994 659.169 223.22C661.438 221.256 662.005 217.949 661.918 214.948C661.83 211.947 661.249 208.902 661.816 205.953C662.158 204.149 662.928 202.448 663.35 200.659C663.772 198.871 663.823 196.863 662.826 195.322C661.372 193.066 658.311 192.613 655.642 192.402C652.61 192.139 649.898 192.475 647.964 189.912C647.054 188.576 646.032 187.321 644.91 186.159C644.51 185.772 640.635 183.363 640.635 183.202Z" fill="#512E4E"/>
<path opacity="0.1" d="M561.581 337.17L553.99 323.072L551.583 344.829C551.583 344.829 552.921 354.496 552.652 355.978C552.383 357.46 558.135 370.748 558.135 370.748C558.135 370.748 577.135 404.736 584.893 406.481L611.07 387.673L604.118 378.809C604.118 378.809 601.712 377.867 601.108 378.809C601.108 378.809 588.194 356.511 586.864 354.905C585.533 353.299 585.788 350.064 585.788 350.064C585.788 350.064 583.781 347.918 584.45 345.902C585.119 343.887 580.61 336.907 580.61 336.907L584.755 333.016L561.581 337.17Z" fill="black"/>
<path d="M554.39 321.458L552.383 323.072L549.977 344.829C549.977 344.829 551.314 354.496 551.045 355.978C550.776 357.46 556.535 370.748 556.535 370.748C556.535 370.748 575.528 404.736 583.286 406.481L609.506 387.673L602.548 378.809C602.548 378.809 600.141 377.867 599.537 378.809C599.537 378.809 586.631 356.511 585.293 354.905C583.955 353.299 584.224 350.064 584.224 350.064C584.224 350.064 582.217 347.918 582.886 345.902C583.555 343.887 579.003 336.907 579.003 336.907L583.148 333.016L554.39 321.458Z" fill="white"/>
<path opacity="0.1" d="M678.925 406.721C680.379 408.496 679.463 416.469 679.463 416.469L675.449 423.135C675.449 423.135 675.689 427.442 675.704 433.254L668.956 435.371C668.345 435.563 667.698 435.604 667.068 435.493C666.438 435.382 665.843 435.122 665.334 434.733C664.824 434.344 664.415 433.839 664.139 433.259C663.864 432.679 663.73 432.042 663.75 431.4L664.921 393.725L680.663 399.763C679.325 400.698 680.794 402.991 680.794 402.991C680.794 402.991 677.456 404.947 678.925 406.721Z" fill="black"/>
<path d="M679.725 405.918C681.179 407.685 680.263 415.658 680.263 415.658L676.264 422.332C676.264 422.332 676.504 426.632 676.526 432.444L669.654 434.598C669.058 434.785 668.425 434.827 667.809 434.719C667.193 434.612 666.611 434.357 666.113 433.978C665.615 433.598 665.214 433.105 664.945 432.538C664.676 431.971 664.545 431.348 664.564 430.721L665.735 392.915L681.47 398.968C680.125 399.902 681.594 402.195 681.594 402.195C681.594 402.195 678.256 404.144 679.725 405.918Z" fill="white"/>
<path d="M684.946 387.943C684.946 387.943 683.877 394.799 681.201 395.2C678.525 395.602 677.325 406.291 674.657 405.918C671.988 405.546 673.755 395.974 673.85 394.12C673.944 392.265 670.941 384.584 673.181 382.839C675.42 381.094 682.546 382.839 682.546 382.839L684.946 387.943Z" fill="#CF6F80"/>
<path opacity="0.1" d="M690.603 335.155L695.642 324.933C695.642 324.933 697.656 332.724 697.656 336.885C697.656 341.047 700.463 341.456 700.463 341.456C700.463 341.456 703.538 345.107 701.917 347.771C700.295 350.436 699.648 357.037 699.648 357.037C699.648 357.037 700.179 369.661 697.772 371.406C695.365 373.151 694.827 377.319 694.827 377.319C694.827 377.319 690.414 385.241 690.552 387.125C690.69 389.009 684.4 401.764 684.4 401.764C684.4 401.764 687.476 385.913 669.553 379.064C669.553 379.064 669.414 373.691 670.752 372.216C672.09 370.741 674.177 370.026 672.868 362.608C671.559 355.19 672.49 346.246 672.49 344.457C672.49 342.668 676.504 331.519 676.504 331.519L690.603 335.155Z" fill="black"/>
<path d="M692.842 323.473L697.249 324.933C697.249 324.933 699.263 332.724 699.263 336.885C699.263 341.047 702.07 341.456 702.07 341.456C702.07 341.456 705.145 345.107 703.524 347.772C701.902 350.436 701.248 357.037 701.248 357.037C701.248 357.037 701.786 369.661 699.379 371.406C696.972 373.151 696.471 377.32 696.471 377.32C696.471 377.32 692.057 385.241 692.195 387.125C692.333 389.009 686.036 401.764 686.036 401.764C686.036 401.764 689.112 385.913 671.189 379.065C671.189 379.065 671.058 373.691 672.396 372.216C673.733 370.741 675.82 370.026 674.512 362.608C673.203 355.19 674.133 346.246 674.133 344.457C674.133 342.668 678.147 331.519 678.147 331.519L692.842 323.473Z" fill="white"/>
<path opacity="0.1" d="M595.495 588.412C595.495 588.412 602.519 583.98 607.129 587.2C611.739 590.42 595.495 588.412 595.495 588.412Z" fill="black"/>
<path opacity="0.1" d="M650.087 574.708C650.087 574.708 656.304 573.905 661.525 579.549C666.746 585.192 650.087 574.708 650.087 574.708Z" fill="black"/>
<g opacity="0.1">
<path d="M659.169 221.614C658.275 222.395 657.126 222.943 656.53 223.972C656.021 224.856 656.006 225.951 655.599 226.893C655.192 227.834 654.007 228.616 653.178 228.017C652.989 221.446 649.767 215.276 645.805 210.019C644.696 208.435 643.35 207.034 641.813 205.865C640.257 204.688 638.32 204.136 636.381 204.317C634.2 204.617 632.28 206.106 630.077 206.296C627.168 206.537 624.558 204.514 621.671 204.419C620.498 204.428 619.341 204.69 618.277 205.186C617.214 205.682 616.268 206.402 615.505 207.296C613.987 209.094 612.86 211.19 612.197 213.451C611.054 216.882 610.432 220.465 610.35 224.082C610.306 226.119 610.117 228.66 608.241 229.419C608.285 229.961 608.285 230.505 608.241 231.047C610.139 230.317 610.328 227.74 610.372 225.695C610.453 222.079 611.076 218.495 612.219 215.065C612.882 212.804 614.009 210.707 615.527 208.91C616.291 208.016 617.236 207.296 618.299 206.798C619.363 206.301 620.52 206.037 621.693 206.026C624.602 206.128 627.219 208.15 630.099 207.902C632.28 207.72 634.214 206.23 636.403 205.931C638.341 205.747 640.278 206.297 641.834 207.471C643.372 208.643 644.718 210.047 645.826 211.633C649.789 216.89 653.01 223.038 653.199 229.631C654.028 230.229 655.214 229.441 655.621 228.506C656.028 227.572 656.042 226.476 656.551 225.586C657.148 224.556 658.297 224.001 659.191 223.227C661.46 221.263 662.027 217.956 661.939 214.955C661.939 214.86 661.939 214.773 661.939 214.678C661.794 217.292 661.103 219.942 659.169 221.614Z" fill="black"/>
<path d="M605.485 221.103C603.82 219.255 601.537 218.014 600.003 216.058C598.707 214.33 597.969 212.246 597.887 210.085C597.659 212.787 598.41 215.481 600.003 217.671C601.537 219.628 603.82 220.862 605.485 222.709C607.094 224.515 608.06 226.805 608.234 229.222C608.343 227.752 608.156 226.276 607.684 224.881C607.212 223.486 606.464 222.201 605.485 221.103Z" fill="black"/>
<path d="M663.35 199.053C662.921 200.842 662.158 202.543 661.809 204.346C661.599 205.566 661.524 206.805 661.583 208.041C661.607 207.343 661.683 206.647 661.809 205.96C662.158 204.157 662.921 202.455 663.35 200.667C663.597 199.679 663.678 198.658 663.59 197.644C663.543 198.119 663.463 198.59 663.35 199.053Z" fill="black"/>
</g>
<path opacity="0.1" d="M96.5115 612.484C135.642 612.484 167.363 607.369 167.363 601.058C167.363 594.747 135.642 589.632 96.5115 589.632C57.3814 589.632 25.6603 594.747 25.6603 601.058C25.6603 607.369 57.3814 612.484 96.5115 612.484Z" fill="#06A881"/>
<path d="M98.7947 382.16H94.2356V485.232H98.7947V382.16Z" fill="#535461"/>
<path d="M127.451 484.925L127.16 489.568L126.76 496.14L126.593 498.87L126.185 505.441L126.011 508.172L125.611 514.743L121.008 589.267C120.812 592.473 119.405 595.483 117.074 597.684C114.744 599.885 111.665 601.11 108.465 601.109H84.5648C81.3567 601.111 78.2697 599.879 75.9373 597.667C73.6049 595.456 72.2039 592.432 72.0218 589.215L67.4191 514.692L67.0192 508.121L66.852 505.39L66.4375 498.819L66.2703 496.088L65.8703 489.517L65.5795 484.874C65.5292 483.984 65.6597 483.093 65.9633 482.255C66.2668 481.417 66.7369 480.65 67.345 480.001C67.9531 479.351 68.6865 478.832 69.5005 478.477C70.3145 478.121 71.1922 477.935 72.08 477.93H120.957C121.849 477.935 122.731 478.123 123.547 478.483C124.364 478.842 125.099 479.366 125.707 480.021C126.315 480.676 126.783 481.449 127.083 482.292C127.383 483.135 127.508 484.031 127.451 484.925Z" fill="#3F3D56"/>
<path d="M127.16 489.561L126.753 496.118H66.2703L65.8632 489.561H127.16Z" fill="#9D9CB5"/>
<path d="M126.585 498.848L126.185 505.405H66.8447L66.4375 498.848H126.585Z" fill="#9D9CB5"/>
<path d="M126.011 508.143L125.611 514.692H67.4192L67.012 508.143H126.011Z" fill="#9D9CB5"/>
<path d="M58.9336 420.798C85.4883 440.088 96.5479 470.257 96.5479 470.257C96.5479 470.257 64.5543 469.154 37.9924 449.864C11.4305 430.575 0.356323 400.428 0.356323 400.428C0.356323 400.428 32.3499 401.508 58.9336 420.798Z" fill="#06A881"/>
<path d="M0.356323 400.428C0.356323 400.428 33.5642 418.936 44.2166 434.262C54.869 449.587 96.5188 470.271 96.5188 470.271" stroke="#535461" stroke-width="2" stroke-miterlimit="10"/>
<path d="M76.0429 381.941C90.4982 392.433 96.5188 408.853 96.5188 408.853C96.5188 408.853 79.0678 408.255 64.6489 397.763C50.2299 387.271 44.173 370.843 44.173 370.843C44.173 370.843 61.5949 371.442 76.0429 381.941Z" fill="#06A881"/>
<path d="M44.173 370.843C44.173 370.843 62.2493 380.919 68.0518 389.257C73.8543 397.595 96.5188 408.853 96.5188 408.853" stroke="#535461" stroke-width="2" stroke-miterlimit="10"/>
<path d="M117.518 408.021C100.918 426.34 97.4059 450.281 97.4059 450.281C97.4059 450.281 120.812 444.513 137.398 426.187C153.984 407.861 157.51 383.927 157.51 383.927C157.51 383.927 134.118 389.702 117.518 408.021Z" fill="#06A881"/>
<path d="M157.525 383.934C157.525 383.934 135.9 402.713 130.403 415.651C124.906 428.589 97.4059 450.281 97.4059 450.281" stroke="#535461" stroke-width="2" stroke-miterlimit="10"/>
</g>
<defs>
<linearGradient id="paint0_linear_130_335" x1="338.499" y1="610.06" x2="338.499" y2="188.306" gradientUnits="userSpaceOnUse">
<stop stop-color="#808080" stop-opacity="0.25"/>
<stop offset="0.54" stop-color="#808080" stop-opacity="0.12"/>
<stop offset="1" stop-color="#808080" stop-opacity="0.1"/>
</linearGradient>
<linearGradient id="paint1_linear_130_335" x1="627.066" y1="628.525" x2="627.066" y2="179.252" gradientUnits="userSpaceOnUse">
<stop stop-color="#808080" stop-opacity="0.25"/>
<stop offset="0.54" stop-color="#808080" stop-opacity="0.12"/>
<stop offset="1" stop-color="#808080" stop-opacity="0.1"/>
</linearGradient>
<clipPath id="clip0_130_335">
<rect width="849" height="630" fill="white"/>
</clipPath>
</defs>
</svg>
