<svg width="624" height="530" viewBox="0 0 624 530" fill="none" xmlns="http://www.w3.org/2000/svg">
<g clip-path="url(#clip0_130_514)">
<path d="M0 524.632C0 525.406 0.630378 526.027 1.41536 526.027H622.585C623.37 526.027 624 525.406 624 524.632C624 523.859 623.37 523.237 622.585 523.237H1.41536C0.630369 523.237 0 523.859 0 524.632Z" fill="#3F3C57"/>
<path d="M202.669 56.3257L209.424 86.7053L195.056 128.991L171.908 83.5584L175.12 57.2012L202.669 56.3257Z" fill="#FDB4B4"/>
<path d="M210.679 85.1318H170.71V132.728H210.679V85.1318Z" fill="#019874"/>
<path d="M194.244 71.6283C209.319 71.6283 221.54 59.5839 221.54 44.7263C221.54 29.8688 209.319 17.8243 194.244 17.8243C179.168 17.8243 166.948 29.8688 166.948 44.7263C166.948 59.5839 179.168 71.6283 194.244 71.6283Z" fill="#FDB4B4"/>
<path d="M170.484 64.7307C170.484 64.7307 150.137 27.6965 168.482 9.87469C186.827 -7.94713 201.553 3.79634 201.553 3.79634L209.962 3.46139C209.962 3.46139 211.716 9.98381 214.544 6.45295C217.372 2.92208 222.482 15.781 222.482 15.781C231.967 32.6164 199.087 36.3879 199.087 36.3879C199.087 36.3879 201.461 43.8421 199.048 45.4032C196.634 46.9642 190.186 52.8367 190.186 52.8367L184.415 57.1327L180.985 51.9824C180.985 51.9824 177.402 49.1952 175.592 50.366C173.782 51.5368 176.272 66.9418 176.272 66.9418L170.484 64.7307Z" fill="#2E2E41"/>
<path d="M137.738 337.185L127.302 490.608L152.957 491.465L186.874 338.471L137.738 337.185Z" fill="#2E2E41"/>
<path d="M199.919 336.328L189.483 489.751L215.138 490.608L249.055 337.614L199.919 336.328Z" fill="#2E2E41"/>
<path d="M131.454 372.238L145.111 205.139L124.167 118.126C122.361 105.192 130.631 92.9533 143.393 89.6161L163.887 84.2573L172.958 75.3169L193.591 120.222L206.476 75.3511L216.526 82.5545L246.332 95.5145L246.318 95.818L241.537 200.928L252.209 370.75L251.736 370.756L131.454 372.238Z" fill="#E8E9EA"/>
<path d="M213.491 488.865L220.919 510.721C220.919 510.721 249.982 514.615 250.434 523.482C250.886 532.35 210.937 527.217 187.544 528.376C164.152 529.534 183.624 504.568 183.624 504.568L186.117 490.221L213.491 488.865Z" fill="#2E2E41"/>
<path d="M152.826 487.292L160.254 509.148C160.254 509.148 189.316 513.042 189.768 521.909C190.221 530.776 150.272 525.644 126.879 526.802C103.486 527.961 122.959 502.994 122.959 502.994L125.452 488.647L152.826 487.292Z" fill="#2E2E41"/>
<path d="M116.583 283.493C116.268 279.184 117.005 274.863 118.732 270.892L113.188 226.068L134.906 224.092L138.191 269.773C140.373 273.519 141.614 277.725 141.809 282.04C142.448 292.833 137.319 301.903 130.352 302.304C123.385 302.704 117.22 294.283 116.583 283.493Z" fill="#FDB4B4"/>
<path d="M254.139 290.073C253.871 285.76 254.656 281.448 256.427 277.495L251.379 232.615L273.118 230.872L275.897 276.586C278.038 280.354 279.232 284.573 279.38 288.89C279.899 299.689 274.67 308.704 267.699 309.03C260.728 309.356 254.656 300.868 254.139 290.073Z" fill="#FDB4B4"/>
<path d="M113.099 265.517L113.025 265.131L101.707 205.277L115.081 107.812C116.274 99.1101 124.158 92.8419 133.048 93.5424C137.691 93.9087 141.856 96.0789 144.778 99.6542C147.7 103.229 148.964 107.703 148.338 112.252L138.272 185.35L144.61 263.535L113.099 265.517Z" fill="#E8E9EA"/>
<path d="M247.431 264.113L224.675 114.403C223.492 110.014 224.184 105.42 226.634 101.516C229.084 97.6119 232.945 94.9501 237.507 94.0202C246.233 92.2414 254.85 97.4987 257.128 105.987L278.99 262.233L247.431 264.113Z" fill="#E8E9EA"/>
<path d="M194.258 133.908C195.801 133.908 197.052 132.675 197.052 131.154C197.052 129.633 195.801 128.401 194.258 128.401C192.715 128.401 191.464 129.633 191.464 131.154C191.464 132.675 192.715 133.908 194.258 133.908Z" fill="#D6D7D8"/>
<path d="M194.258 154.755C195.801 154.755 197.052 153.522 197.052 152.002C197.052 150.481 195.801 149.248 194.258 149.248C192.715 149.248 191.464 150.481 191.464 152.002C191.464 153.522 192.715 154.755 194.258 154.755Z" fill="#D6D7D8"/>
<path d="M194.258 175.603C195.801 175.603 197.052 174.37 197.052 172.85C197.052 171.329 195.801 170.096 194.258 170.096C192.715 170.096 191.464 171.329 191.464 172.85C191.464 174.37 192.715 175.603 194.258 175.603Z" fill="#D6D7D8"/>
<path d="M194.258 196.451C195.801 196.451 197.052 195.218 197.052 193.697C197.052 192.176 195.801 190.944 194.258 190.944C192.715 190.944 191.464 192.176 191.464 193.697C191.464 195.218 192.715 196.451 194.258 196.451Z" fill="#D6D7D8"/>
<path d="M194.258 217.298C195.801 217.298 197.052 216.066 197.052 214.545C197.052 213.024 195.801 211.792 194.258 211.792C192.715 211.792 191.464 213.024 191.464 214.545C191.464 216.066 192.715 217.298 194.258 217.298Z" fill="#D6D7D8"/>
<path d="M194.258 238.146C195.801 238.146 197.052 236.913 197.052 235.393C197.052 233.872 195.801 232.639 194.258 232.639C192.715 232.639 191.464 233.872 191.464 235.393C191.464 236.913 192.715 238.146 194.258 238.146Z" fill="#D6D7D8"/>
<path d="M194.258 258.994C195.801 258.994 197.052 257.761 197.052 256.24C197.052 254.72 195.801 253.487 194.258 253.487C192.715 253.487 191.464 254.72 191.464 256.24C191.464 257.761 192.715 258.994 194.258 258.994Z" fill="#D6D7D8"/>
<path d="M194.258 279.841C195.801 279.841 197.052 278.609 197.052 277.088C197.052 275.567 195.801 274.334 194.258 274.334C192.715 274.334 191.464 275.567 191.464 277.088C191.464 278.609 192.715 279.841 194.258 279.841Z" fill="#D6D7D8"/>
<path d="M194.261 295.968L141.4 289.026L140.382 288.892L113.365 227.498L97.2761 190.945H139.184L194.261 295.968Z" fill="#019874"/>
<path d="M406.209 63.0049L439.817 44.8591V96.704H400.949L406.209 63.0049Z" fill="#2E2E41"/>
<path d="M447.023 74.5638L450.125 100.017L427.77 143.89L413.895 103.055L420.419 73.7183L447.023 74.5638Z" fill="#FDB4B4"/>
<path d="M451.281 101.536H412.683V147.498H451.281V101.536Z" fill="#019874"/>
<path d="M483.122 344.94L493.2 493.099L468.425 493.927L435.672 346.182L483.122 344.94Z" fill="#2E2E41"/>
<path d="M423.074 344.113L433.152 492.271L408.378 493.099L375.624 345.354L423.074 344.113Z" fill="#2E2E41"/>
<path d="M509.296 376.364L508.706 376.362L350.879 375.854L351.021 375.304L391.598 216.858L381.433 136.896C379.507 121.744 387.737 107.422 401.913 101.259L407.03 99.0337L416.752 92.0658L429.189 135.378L449.105 92.032L457.879 100.678L477.665 105.852C489.998 109.076 497.987 120.902 496.25 133.36L496.229 133.446L466.013 218.422L509.296 376.364Z" fill="#E8E9EA"/>
<path d="M409.968 491.415L436.403 492.725L438.81 506.579C438.81 506.579 457.614 530.689 435.025 529.57C412.435 528.451 373.856 533.408 374.293 524.845C374.73 516.282 402.795 512.522 402.795 512.522L409.968 491.415Z" fill="#2E2E41"/>
<path d="M468.552 489.896L494.987 491.205L497.394 505.06C497.394 505.06 516.198 529.17 493.608 528.051C471.018 526.932 432.44 531.889 432.877 523.326C433.313 514.763 461.378 511.002 461.378 511.002L468.552 489.896Z" fill="#2E2E41"/>
<path d="M492.759 291.572C492.144 301.991 486.191 310.123 479.463 309.736C472.735 309.35 467.782 300.59 468.399 290.168C468.587 286.001 469.785 281.939 471.893 278.322L475.065 234.209L496.038 236.117L490.684 279.403C492.352 283.237 493.063 287.41 492.759 291.572Z" fill="#FDB4B4"/>
<path d="M384.983 287.61C384.143 298.014 378.015 306.02 371.297 305.492C364.579 304.964 359.816 296.102 360.658 285.695C360.936 281.533 362.222 277.498 364.407 273.926L368.532 229.889L389.458 232.237L383.171 275.4C384.755 279.269 385.377 283.456 384.983 287.61Z" fill="#FDB4B4"/>
<path d="M496.137 274.228L465.678 272.312L465.714 271.862L471.799 196.796L462.079 126.208C461.473 121.812 462.695 117.487 465.519 114.031C468.343 110.575 472.37 108.477 476.858 108.123C485.451 107.456 493.071 113.505 494.225 121.916L507.14 216.039L507.127 216.11L496.137 274.228Z" fill="#E8E9EA"/>
<path d="M390.054 271.353L359.546 269.535L359.613 269.061L380.65 118.686C382.863 110.427 391.196 105.347 399.627 107.066C404.036 107.964 407.768 110.537 410.136 114.311C412.505 118.085 413.174 122.525 412.021 126.814L390.054 271.353Z" fill="#E8E9EA"/>
<path d="M428.541 148.638C430.031 148.638 431.239 147.447 431.239 145.979C431.239 144.51 430.031 143.32 428.541 143.32C427.051 143.32 425.843 144.51 425.843 145.979C425.843 147.447 427.051 148.638 428.541 148.638Z" fill="#D6D7D8"/>
<path d="M428.541 168.77C430.031 168.77 431.239 167.58 431.239 166.111C431.239 164.643 430.031 163.452 428.541 163.452C427.051 163.452 425.843 164.643 425.843 166.111C425.843 167.58 427.051 168.77 428.541 168.77Z" fill="#D6D7D8"/>
<path d="M428.541 188.903C430.031 188.903 431.239 187.712 431.239 186.244C431.239 184.775 430.031 183.585 428.541 183.585C427.051 183.585 425.843 184.775 425.843 186.244C425.843 187.712 427.051 188.903 428.541 188.903Z" fill="#D6D7D8"/>
<path d="M428.541 209.035C430.031 209.035 431.239 207.845 431.239 206.376C431.239 204.908 430.031 203.717 428.541 203.717C427.051 203.717 425.843 204.908 425.843 206.376C425.843 207.845 427.051 209.035 428.541 209.035Z" fill="#D6D7D8"/>
<path d="M428.541 229.167C430.031 229.167 431.239 227.977 431.239 226.508C431.239 225.04 430.031 223.849 428.541 223.849C427.051 223.849 425.843 225.04 425.843 226.508C425.843 227.977 427.051 229.167 428.541 229.167Z" fill="#D6D7D8"/>
<path d="M428.541 249.3C430.031 249.3 431.239 248.109 431.239 246.641C431.239 245.172 430.031 243.982 428.541 243.982C427.051 243.982 425.843 245.172 425.843 246.641C425.843 248.109 427.051 249.3 428.541 249.3Z" fill="#D6D7D8"/>
<path d="M428.541 269.432C430.031 269.432 431.239 268.242 431.239 266.773C431.239 265.305 430.031 264.114 428.541 264.114C427.051 264.114 425.843 265.305 425.843 266.773C425.843 268.242 427.051 269.432 428.541 269.432Z" fill="#D6D7D8"/>
<path d="M428.541 289.564C430.031 289.564 431.239 288.374 431.239 286.905C431.239 285.437 430.031 284.246 428.541 284.246C427.051 284.246 425.843 285.437 425.843 286.905C425.843 288.374 427.051 289.564 428.541 289.564Z" fill="#D6D7D8"/>
<path d="M432.637 87.5537C446.574 87.5537 457.872 76.4187 457.872 62.6829C457.872 48.9471 446.574 37.812 432.637 37.812C418.7 37.812 407.402 48.9471 407.402 62.6829C407.402 76.4187 418.7 87.5537 432.637 87.5537Z" fill="#FDB4B4"/>
<path d="M445.861 33.6493C447.071 36.0731 445.153 39.1008 442.615 40.1199C440.077 41.1389 437.21 40.726 434.503 40.3018C431.797 39.8777 428.926 39.4754 426.395 40.5125C423.121 41.8544 421.275 45.2205 419.685 48.3441C416.716 54.1755 413.747 60.0068 410.778 65.8381C409.327 68.6872 407.844 71.6644 407.816 74.8519C407.765 80.7029 412.474 85.3788 415.008 90.6702C418.093 97.1129 417.839 105.008 414.345 111.245C410.851 117.482 404.208 121.901 397.032 122.76C395.144 122.987 393.146 122.962 391.448 122.117C389.751 121.271 388.455 119.425 388.77 117.577C389.385 113.961 394.99 113.116 396.02 109.593C396.557 107.754 395.605 105.79 394.322 104.354C393.039 102.917 391.416 101.797 390.193 100.311C387.37 96.885 387.182 91.5962 389.754 87.9839C391.266 85.861 393.604 84.2837 394.581 81.8756C395.413 79.823 395.111 77.5157 394.795 75.3271C394.39 72.5148 393.985 69.7025 393.58 66.8901C393.107 63.609 392.641 60.2102 393.576 57.0266C395.717 49.7311 404.075 46.3047 408.977 40.4447C411.255 37.7216 412.787 34.4466 415.124 31.7725C419.045 27.285 425.219 24.8094 431.205 25.324C437.191 25.8386 442.837 29.3302 445.911 34.4191" fill="#2E2E41"/>
<path d="M441.878 34.1093C440.645 34.5438 440.187 36.1264 440.542 37.3686C440.897 38.6107 441.826 39.5976 442.677 40.5787C452.297 51.6746 454.533 68.4583 448.145 81.6258C446.446 85.1282 444.183 88.4244 443.267 92.2C442.6 94.9472 442.636 97.9607 441.089 100.339C439.515 102.76 436.395 104.383 436.087 107.242C435.889 109.078 437.024 110.86 438.545 111.936C440.066 113.012 441.925 113.504 443.753 113.906C448.503 114.949 453.361 115.519 458.227 115.603C459.813 115.63 461.451 115.597 462.906 114.974C464.361 114.351 465.604 112.999 465.62 111.436C465.633 110.207 464.914 109.073 464.822 107.847C464.547 104.174 469.562 102.22 470.539 98.6655C471.181 96.3284 469.916 93.9236 468.568 91.8994C467.219 89.8753 465.681 87.7498 465.714 85.3288C465.746 83.011 467.222 80.9699 467.795 78.722C468.589 75.6126 467.614 72.3602 466.647 69.2989C465.826 66.6962 465.004 64.0935 464.182 61.4908C463.308 58.7241 462.434 55.9573 461.561 53.1906C460.036 48.3604 458.434 43.3903 455.134 39.5163C451.833 35.6422 446.364 33.1031 441.488 34.6848" fill="#2E2E41"/>
<path d="M459.073 130.484L457.344 129.987C460.947 117.81 453.177 95.0862 453.099 94.8581L454.804 94.285C455.134 95.2383 462.835 117.774 459.073 130.484Z" fill="#3F3C57"/>
<path d="M458.209 144.471C462.365 144.471 465.734 141.15 465.734 137.054C465.734 132.957 462.365 129.637 458.209 129.637C454.052 129.637 450.683 132.957 450.683 137.054C450.683 141.15 454.052 144.471 458.209 144.471Z" fill="#3F3C57"/>
<path d="M408.76 163.313H404.196C403.698 163.313 403.295 162.915 403.295 162.425C403.295 161.935 403.698 161.537 404.196 161.537H408.76C410.018 161.537 411.199 161.054 412.088 160.177C412.975 159.3 413.464 158.134 413.461 156.895L413.405 129.188C413.405 123.17 408.438 118.274 402.333 118.274C396.228 118.274 391.26 123.17 391.26 129.187L391.315 155.12C391.321 157.65 393.413 159.724 395.981 159.744L399.113 159.767C399.61 159.771 400.011 160.171 400.007 160.662C400.004 161.15 399.601 161.543 399.106 161.543H399.099L395.966 161.519C392.416 161.493 389.521 158.623 389.514 155.124L389.458 129.188C389.458 122.191 395.234 116.499 402.333 116.499C409.432 116.499 415.207 122.191 415.207 129.187L415.263 156.892C415.266 158.606 414.591 160.218 413.362 161.431C412.134 162.644 410.499 163.313 408.76 163.313Z" fill="#3F3C57"/>
<path d="M399.107 163.802C400.87 163.802 402.299 162.393 402.299 160.655C402.299 158.917 400.87 157.508 399.107 157.508C397.343 157.508 395.914 158.917 395.914 160.655C395.914 162.393 397.343 163.802 399.107 163.802Z" fill="#3F3C57"/>
<path d="M404.195 165.572C405.959 165.572 407.388 164.163 407.388 162.425C407.388 160.687 405.959 159.278 404.195 159.278C402.432 159.278 401.002 160.687 401.002 162.425C401.002 164.163 402.432 165.572 404.195 165.572Z" fill="#3F3C57"/>
<path d="M219.871 117.176L218.142 116.679C221.745 104.502 214.063 81.4258 213.984 81.1978L216.146 82.804C216.476 83.7573 223.633 104.466 219.871 117.176Z" fill="#3F3C57"/>
<path d="M159.073 119.339L160.803 118.842C157.199 106.665 164.969 83.9412 165.047 83.7131L163.197 84.9346C162.867 85.8879 155.311 106.629 159.073 119.339Z" fill="#3F3C57"/>
<path d="M219.007 131.163C223.163 131.163 226.532 127.842 226.532 123.746C226.532 119.649 223.163 116.328 219.007 116.328C214.85 116.328 211.481 119.649 211.481 123.746C211.481 127.842 214.85 131.163 219.007 131.163Z" fill="#3F3C57"/>
<path d="M167.096 164.952H162.532C162.034 164.952 161.631 164.554 161.631 164.064C161.631 163.574 162.034 163.176 162.532 163.176H167.096C168.354 163.176 169.536 162.693 170.424 161.816C171.312 160.939 171.8 159.773 171.798 158.534L171.742 130.828C171.742 124.809 166.775 119.913 160.67 119.913C154.564 119.913 149.597 124.809 149.597 130.826L149.652 156.759C149.657 159.289 151.75 161.363 154.317 161.383L157.45 161.406C157.947 161.41 158.347 161.81 158.344 162.301C158.34 162.789 157.937 163.182 157.443 163.182H157.436L154.303 163.158C150.753 163.132 147.857 160.262 147.85 156.763L147.795 130.828C147.795 123.83 153.57 118.138 160.67 118.138C167.768 118.138 173.544 123.83 173.544 130.826L173.599 158.531C173.603 160.245 172.928 161.857 171.699 163.07C170.471 164.283 168.836 164.952 167.096 164.952Z" fill="#3F3C57"/>
<path d="M157.443 165.441C159.207 165.441 160.636 164.032 160.636 162.294C160.636 160.556 159.207 159.147 157.443 159.147C155.68 159.147 154.25 160.556 154.25 162.294C154.25 164.032 155.68 165.441 157.443 165.441Z" fill="#3F3C57"/>
<path d="M162.532 167.211C164.295 167.211 165.725 165.802 165.725 164.064C165.725 162.326 164.295 160.917 162.532 160.917C160.769 160.917 159.339 162.326 159.339 164.064C159.339 165.802 160.769 167.211 162.532 167.211Z" fill="#3F3C57"/>
</g>
<defs>
<clipPath id="clip0_130_514">
<rect width="624" height="530" fill="white"/>
</clipPath>
</defs>
</svg>
