<svg width="891" height="648" viewBox="0 0 891 648" fill="none" xmlns="http://www.w3.org/2000/svg">
<g clip-path="url(#clip0_130_54)">
<path opacity="0.1" d="M296.221 647.636C339.612 647.636 374.787 641.835 374.787 634.68C374.787 627.524 339.612 621.724 296.221 621.724C252.83 621.724 217.654 627.524 217.654 634.68C217.654 641.835 252.83 647.636 296.221 647.636Z" fill="#019874"/>
<path opacity="0.1" d="M723.296 648C777.442 648 821.335 642.199 821.335 635.044C821.335 627.889 777.442 622.088 723.296 622.088C669.151 622.088 625.258 627.889 625.258 635.044C625.258 642.199 669.151 648 723.296 648Z" fill="#019874"/>
<path opacity="0.1" d="M11.1593 279.983H92.9913V394.501H17.1501C16.9486 395.676 16.7551 396.86 16.5454 398.044H92.9913V490.4C92.8542 490.359 92.7332 490.309 92.6042 490.259C90.4433 489.382 88.2986 488.455 86.1538 487.461L84.7831 486.824C82.6329 485.781 80.4828 484.677 78.3326 483.512C77.5828 483.107 76.8329 482.684 76.0911 482.254C64.1544 475.389 53.3106 466.689 43.9356 456.458C43.6615 456.185 43.4035 455.895 43.1293 455.63C41.8231 454.173 40.5411 452.699 39.2994 451.193L37.9286 449.537C36.4612 447.691 35.0421 445.795 33.6633 443.874C33.4617 443.593 33.2682 443.311 33.0586 443.046C27.4511 435.064 22.7951 426.42 19.1901 417.3C19.0772 417.027 18.9805 416.729 18.8756 416.472C17.7683 413.547 16.7873 410.594 15.9326 407.614C15.5617 406.364 15.2069 405.13 14.9006 403.831C14.7877 403.45 14.6909 403.077 14.6022 402.705C10.0224 384.351 9.48218 365.285 9.48218 346.352C9.48218 344.142 9.48218 341.923 9.48218 339.729C9.48218 332.072 9.57087 324.364 9.69988 316.665C9.69988 314.67 9.78051 312.683 9.82082 310.68C9.93371 305.597 10.095 300.514 10.3046 295.43C10.353 294.015 10.4175 292.608 10.4901 291.2C10.4901 290.389 10.5304 289.578 10.611 288.766C10.8045 285.819 10.9658 282.897 11.1593 279.983Z" fill="#019874"/>
<path opacity="0.1" d="M92.9912 152.475H48.1042C55.4008 140.749 63.3732 129.481 71.9789 118.732C78.647 110.321 85.6861 102.125 92.9912 94.2271V152.475Z" fill="#019874"/>
<path opacity="0.1" d="M92.9913 156.019V276.439H11.4173C11.4173 276.092 11.4737 275.736 11.4979 275.388C11.5705 274.436 11.6431 273.484 11.7237 272.54C11.8124 271.431 11.9091 270.313 12.014 269.229C12.1188 268.144 12.2317 266.82 12.3526 265.619C12.4736 264.419 12.5864 263.202 12.7235 262.001C12.8606 260.801 12.9815 259.601 13.1267 258.409C13.2718 257.216 13.4008 256.008 13.554 254.816C13.675 253.822 13.804 252.837 13.933 251.844C14.1184 250.445 14.3119 249.037 14.5216 247.646C14.5216 247.439 14.578 247.224 14.6103 247.025C16.0819 236.844 18.0872 226.752 20.6172 216.792C23.2656 206.344 26.6475 196.107 30.7364 186.161C35.0821 175.756 40.1703 165.695 45.9594 156.06L92.9913 156.019Z" fill="#019874"/>
<path opacity="0.1" d="M112.528 279.974V394.5H287.311V279.974H112.528ZM112.528 398.035V496.385C113.528 496.601 114.52 496.808 115.503 496.981C116.842 497.246 118.172 497.486 119.535 497.693C119.793 497.735 120.059 497.776 120.341 497.801C120.873 497.892 121.422 497.966 121.954 498.041C123.3 498.231 124.639 498.389 125.985 498.513C126.622 498.579 127.267 498.637 127.912 498.687L129.468 498.811C130.315 498.877 131.154 498.927 131.984 498.952C132.5 498.952 133.016 499.001 133.548 499.018C133.952 499.018 134.355 499.018 134.774 499.018C135.193 499.018 135.79 499.018 136.298 499.018C136.991 499.018 137.685 499.018 138.37 499.018H139.297C139.991 499.018 140.684 499.018 141.37 498.952H141.418C141.894 498.952 142.377 498.952 142.861 498.885C142.995 498.894 143.13 498.894 143.264 498.885C143.668 498.885 144.071 498.885 144.458 498.827H144.74L147.441 498.612C148.328 498.529 149.223 498.422 150.126 498.322L151.964 498.099C159.444 497.023 166.84 495.407 174.098 493.264C190.401 488.595 206.35 482.063 222.645 477.278C243.714 471.111 266.992 468.081 287.351 475.623V398.035H112.528ZM287.311 152.475V0.00807606C268.175 -0.204787 249.091 2.09319 230.523 6.84621C186.265 18.2624 146.554 43.0237 112.528 74.648V152.467H121.301V156.002H112.528V276.439H287.311V156.01H157.318V152.475H287.311ZM511.811 100.974C500.861 100.577 489.976 97.0168 480.131 91.5198C461.304 81.006 446.266 64.7716 429.463 51.0705C394.55 22.5342 351.251 5.31467 306.832 1.0429V152.475H556.343L556.964 151.805L511.811 100.974ZM534.54 96.8347L558.641 123.989V89.7151C550.57 90.7417 543.498 93.1838 534.573 96.8016L534.54 96.8347ZM558.641 520.807V398.035H507.287C507.15 397.514 507.013 396.984 506.852 396.454C507.005 396.984 507.134 397.514 507.279 398.035H306.864V486.823C308.767 488.272 310.645 489.796 312.508 491.344C314.516 492.999 316.499 494.746 318.491 496.46L320.498 498.165C321.458 498.993 322.425 499.821 323.401 500.599C325.336 502.211 327.29 503.8 329.263 505.368C330.239 506.195 331.238 506.941 332.23 507.719C347.975 520.078 364.584 531.232 381.923 541.09C385.809 543.297 389.731 545.453 393.687 547.555C396.323 548.938 398.976 550.312 401.637 551.645C405.636 553.648 409.668 555.58 413.732 557.44C451.198 574.708 490.815 586.557 531.452 592.649C540.477 594.018 549.538 595.094 558.633 595.878V520.799H559.439L558.641 520.807ZM306.864 156.01V276.439H558.673V156.01H306.864ZM306.864 279.974V394.5H558.673V279.974H306.864ZM578.218 89.5661V127.797L608.978 93.1424C598.787 91.4536 588.533 90.2477 578.218 89.5247V89.5661ZM578.218 280.016V394.5H823.133V279.974L578.218 280.016ZM822.238 529.897L823.101 398.035H578.218V597.194C593.993 597.874 609.793 597.681 625.548 596.614H625.822C633.348 596.129 640.838 595.422 648.294 594.495H648.463C688.239 589.742 727.132 579.087 763.926 562.863M870.359 298.833C869.439 296.606 868.48 294.395 867.504 292.21C865.682 288.071 863.755 284.047 861.771 280.024H842.662V394.5H890.976C890.952 362.081 882.961 328.967 870.383 298.791L870.359 298.833ZM842.662 398.077V511.494C856.272 498.099 867.77 482.775 876.051 465.258C886.009 444.164 890.564 421.323 890.935 398.06L842.662 398.077ZM842.662 246.644V276.447H859.981C854.742 266.188 848.968 256.225 842.686 246.603L842.662 246.644ZM676.563 112.034C675.289 111.538 674.015 111.033 672.733 110.544C659.212 105.417 645.395 101.154 631.361 97.7785L584.289 150.82L583.386 151.805L583.991 152.484H751.525C728.192 135.993 703.037 122.401 676.587 111.993L676.563 112.034ZM756.436 156.052H581.653L578.218 159.28V276.439H608.325H608.374H823.165V219.689C803.735 195.562 781.309 174.153 756.46 156.01L756.436 156.052Z" fill="#019874"/>
<path opacity="0.1" d="M92.9913 216.759V276.439H11.4173C11.4173 276.092 11.4737 275.736 11.4979 275.388C11.5705 274.436 11.6431 273.484 11.7237 272.54C11.8124 271.431 11.9091 270.313 12.014 269.229C12.1188 268.144 12.2317 266.82 12.3526 265.619C12.4736 264.419 12.5864 263.202 12.7235 262.001C12.8606 260.801 12.9815 259.601 13.1267 258.409C13.2718 257.216 13.4008 256.008 13.554 254.816C13.675 253.822 13.804 252.837 13.933 251.844C14.1184 250.445 14.3119 249.037 14.5216 247.646C14.5216 247.439 14.578 247.224 14.6103 247.025C16.0819 236.844 18.0872 226.752 20.6172 216.792L92.9913 216.759Z" fill="#019874"/>
<path opacity="0.1" d="M11.1593 279.983H92.9913V394.501H17.1501C16.9486 395.676 16.7551 396.86 16.5454 398.044H92.9913V490.4C92.8542 490.359 92.7332 490.309 92.6042 490.259C90.4433 489.382 88.2986 488.455 86.1538 487.461L84.7831 486.824C82.6329 485.781 80.4828 484.677 78.3326 483.512C77.5828 483.107 76.8329 482.684 76.0911 482.254C64.1544 475.389 53.3106 466.689 43.9356 456.458C43.6615 456.185 43.4035 455.895 43.1293 455.63C41.8231 454.173 40.5411 452.699 39.2994 451.193L37.9286 449.537C36.4612 447.691 35.0421 445.795 33.6633 443.874C33.4617 443.593 33.2682 443.311 33.0586 443.046C27.4511 435.064 22.7951 426.42 19.1901 417.3C19.0772 417.027 18.9805 416.729 18.8756 416.472C17.7683 413.547 16.7873 410.594 15.9326 407.614C15.5617 406.364 15.2069 405.13 14.9006 403.831C14.7877 403.45 14.6909 403.077 14.6022 402.705C10.0224 384.351 9.48218 365.285 9.48218 346.352C9.48218 344.142 9.48218 341.923 9.48218 339.729C9.48218 332.072 9.57087 324.364 9.69988 316.665C9.69988 314.67 9.78051 312.683 9.82082 310.68C9.93371 305.597 10.095 300.514 10.3046 295.43C10.353 294.015 10.4175 292.608 10.4901 291.2C10.4901 290.389 10.5304 289.578 10.611 288.766C10.8045 285.819 10.9658 282.897 11.1593 279.983Z" fill="#019874"/>
<path opacity="0.1" d="M174.057 173.255V276.439H112.528V173.255H121.301V138.319H157.31V173.255H174.057Z" fill="#019874"/>
<path opacity="0.1" d="M174.057 279.974H112.536V394.492H174.057V279.974Z" fill="#019874"/>
<path opacity="0.1" d="M112.528 398.044H174.057V493.248C166.799 495.389 159.403 497.002 151.924 498.074L150.086 498.306C149.183 498.414 148.288 498.505 147.401 498.596C146.514 498.687 145.595 498.753 144.7 498.811H144.417C144.03 498.811 143.611 498.861 143.232 498.869H142.821C142.337 498.869 141.853 498.919 141.37 498.935C140.684 498.977 139.999 498.985 139.297 498.993C138.999 498.993 138.717 498.993 138.418 498.993C137.725 498.993 137.04 498.993 136.346 498.993H134.822C134.411 498.993 134.016 498.993 133.589 498.993L132.033 498.935C131.226 498.935 130.355 498.844 129.517 498.786L127.969 498.67L126.042 498.488C124.687 498.364 123.341 498.207 122.01 498.016L120.398 497.785L119.591 497.669C118.245 497.454 116.914 497.222 115.56 496.957C114.568 496.783 113.584 496.568 112.584 496.361L112.528 398.044Z" fill="#019874"/>
<path opacity="0.1" d="M558.673 161.069H507.94V276.431H558.673V161.069Z" fill="#019874"/>
<path opacity="0.1" d="M558.681 279.974V394.501H306.864V345.102H440.993V374.243H507.94V279.974H558.681Z" fill="#019874"/>
<path opacity="0.1" d="M559.479 520.832H558.673V595.961C549.589 595.171 540.531 594.098 531.501 592.74C490.844 586.629 451.209 574.754 413.732 557.457C402.911 552.457 392.311 546.998 381.931 541.082C364.592 531.219 347.981 520.066 332.23 507.711C328.274 504.598 324.369 501.413 320.515 498.157C317.846 495.897 315.193 493.579 312.508 491.327C310.645 489.779 308.767 488.256 306.864 486.799V398.044H507.271C507.134 397.514 506.997 396.984 506.852 396.463C507.005 396.984 507.15 397.514 507.287 398.044H558.673V520.783C558.947 520.791 559.213 520.816 559.479 520.832Z" fill="#019874"/>
<path opacity="0.1" d="M690.988 152.475H657.929V141.929H672.749V110.511C674.034 110.991 675.313 111.485 676.587 111.993V141.929H690.988V152.475Z" fill="#019874"/>
<path opacity="0.1" d="M770.635 276.439H608.341C608.341 276.439 608.341 276.439 608.398 276.481L608.325 276.439H578.218V161.077H586.749V246.347H625.733V195.847H657.937V156.019H690.996V195.88H723.2V246.38H770.635V276.439Z" fill="#019874"/>
<path opacity="0.1" d="M578.218 279.974V394.501H770.635V279.974H578.218ZM822.867 529.31L823.133 438.659H770.635V398.094H578.218V597.194C593.993 597.875 609.793 597.681 625.548 596.615H625.822C633.348 596.129 640.838 595.423 648.294 594.495H648.463C688.239 589.742 727.132 579.087 763.926 562.863" fill="#019874"/>
<path opacity="0.1" d="M846.081 398.044H890.968C890.573 421.299 886.025 444.139 876.075 465.233C867.795 482.759 856.289 498.083 842.694 511.469V438.617H846.081V398.044Z" fill="#019874"/>
<path opacity="0.1" d="M890.992 394.501H846.081V298.792H870.383C882.961 328.967 890.952 362.082 890.992 394.501Z" fill="#019874"/>
<path opacity="0.1" d="M558.681 193.14H531.5V229.309H558.681V193.14Z" fill="#019874"/>
<path opacity="0.1" d="M558.681 268.111H531.5V276.439H558.681V268.111Z" fill="#019874"/>
<path opacity="0.1" d="M558.681 279.974H531.5V304.272H558.681V279.974Z" fill="#019874"/>
<path opacity="0.1" d="M558.681 343.082H531.5V379.251H558.681V343.082Z" fill="#019874"/>
<path opacity="0.1" d="M558.681 418.053H531.5V454.223H558.681V418.053Z" fill="#019874"/>
<path opacity="0.1" d="M558.673 520.783C558.947 520.783 559.213 520.783 559.479 520.832H558.673V529.235H531.5V493.024H558.673V520.783Z" fill="#019874"/>
<path opacity="0.1" d="M558.673 567.979V595.919C549.589 595.13 540.531 594.057 531.5 592.699V567.979H558.673Z" fill="#019874"/>
<path opacity="0.1" d="M423.351 391.843H306.864V394.501H423.351V391.843Z" fill="#019874"/>
<path opacity="0.1" d="M423.351 398.036H306.864V408.218H423.351V398.036Z" fill="#019874"/>
<path opacity="0.1" d="M423.351 441.598H306.864V457.973H423.351V441.598Z" fill="#019874"/>
<path opacity="0.1" d="M423.343 491.352V507.727H332.23C328.274 504.625 324.366 501.441 320.506 498.174C317.838 495.914 315.193 493.596 312.5 491.352H423.343Z" fill="#019874"/>
<path opacity="0.1" d="M423.343 541.098V557.457H413.723C402.914 552.451 392.316 546.99 381.931 541.073L423.343 541.098Z" fill="#019874"/>
<path opacity="0.1" d="M648.487 291.076H625.556V314.62H648.487V291.076Z" fill="#019874"/>
<path opacity="0.1" d="M151.981 181.376H129.049V204.92H151.981V181.376Z" fill="#019874"/>
<path opacity="0.1" d="M151.981 236.065H129.049V259.609H151.981V236.065Z" fill="#019874"/>
<path opacity="0.1" d="M151.981 290.753H129.049V314.297H151.981V290.753Z" fill="#019874"/>
<path opacity="0.1" d="M151.981 345.433H129.049V368.978H151.981V345.433Z" fill="#019874"/>
<path opacity="0.1" d="M151.981 400.122H129.049V423.666H151.981V400.122Z" fill="#019874"/>
<path opacity="0.1" d="M151.981 454.81H129.049V478.355H151.981V454.81Z" fill="#019874"/>
<path opacity="0.1" d="M736.028 291.076H713.097V314.62H736.028V291.076Z" fill="#019874"/>
<path opacity="0.1" d="M648.487 349.15H625.556V372.695H648.487V349.15Z" fill="#019874"/>
<path opacity="0.1" d="M736.028 349.15H713.097V372.695H736.028V349.15Z" fill="#019874"/>
<path opacity="0.1" d="M648.487 407.217H625.556V430.761H648.487V407.217Z" fill="#019874"/>
<path opacity="0.1" d="M736.028 407.217H713.097V430.761H736.028V407.217Z" fill="#019874"/>
<path opacity="0.1" d="M648.487 465.291H625.556V488.835H648.487V465.291Z" fill="#019874"/>
<path opacity="0.1" d="M736.028 465.291H713.097V488.835H736.028V465.291Z" fill="#019874"/>
<path opacity="0.1" d="M648.487 523.365H625.556V546.91H648.487V523.365Z" fill="#019874"/>
<path opacity="0.1" d="M736.028 523.365H713.097V546.91H736.028V523.365Z" fill="#019874"/>
<path opacity="0.1" d="M625.556 596.615V581.432H648.479V594.454L625.556 596.615Z" fill="#019874"/>
<path opacity="0.1" d="M14.5135 247.009V260.478H92.9912V247.009H14.5135ZM22.3347 259.634H15.9326V247.837H22.383L22.3347 259.634ZM30.1478 259.634H23.6973V247.837H30.1478V259.634ZM37.9447 259.634H31.4943V247.837H37.9447V259.634ZM45.7578 259.634H39.3155V247.837H45.7659L45.7578 259.634ZM53.5629 259.634H47.1124V247.837H53.5629V259.634ZM61.376 259.634H54.9255V247.837H61.376V259.634ZM69.1891 259.634H62.7386V247.837H69.1891V259.634ZM76.9941 259.634H70.5437V247.837H76.9941V259.634ZM84.7992 259.634H78.3487V247.837H84.7992V259.634ZM92.6042 259.634H86.1537V247.837H92.6042V259.634Z" fill="#019874"/>
<path opacity="0.1" d="M14.5135 286.2V299.669H92.9912V286.2H14.5135ZM22.3347 298.816H15.9326V287.053H22.383L22.3347 298.816ZM30.1478 298.816H23.6973V287.053H30.1478V298.816ZM37.9447 298.816H31.4943V287.053H37.9447V298.816ZM45.7578 298.816H39.3155V287.053H45.7659L45.7578 298.816ZM53.5629 298.816H47.1124V287.053H53.5629V298.816ZM61.376 298.816H54.9255V287.053H61.376V298.816ZM69.1891 298.816H62.7386V287.053H69.1891V298.816ZM76.9941 298.816H70.5437V287.053H76.9941V298.816ZM84.7992 298.816H78.3487V287.053H84.7992V298.816ZM92.6042 298.816H86.1537V287.053H92.6042V298.816Z" fill="#019874"/>
<path opacity="0.1" d="M14.5135 325.407V338.901H92.9912V325.407H14.5135ZM22.3347 338.024H15.9326V326.252H22.383L22.3347 338.024ZM30.1478 338.024H23.6973V326.252H30.1478V338.024ZM37.9447 338.024H31.4943V326.252H37.9447V338.024ZM45.7578 338.024H39.3155V326.252H45.7659L45.7578 338.024ZM53.5629 338.024H47.1124V326.252H53.5629V338.024ZM61.376 338.024H54.9255V326.252H61.376V338.024ZM69.1891 338.024H62.7386V326.252H69.1891V338.024ZM76.9941 338.024H70.5437V326.252H76.9941V338.024ZM84.7992 338.024H78.3487V326.252H84.7992V338.024ZM92.6042 338.024H86.1537V326.252H92.6042V338.024Z" fill="#019874"/>
<path opacity="0.1" d="M14.5135 364.615V378.068H92.9912V364.615H14.5135ZM22.3347 377.231H15.9326V365.451H22.383L22.3347 377.231ZM30.1478 377.231H23.6973V365.451H30.1478V377.231ZM37.9447 377.231H31.4943V365.451H37.9447V377.231ZM45.7578 377.231H39.3155V365.451H45.7659L45.7578 377.231ZM53.5629 377.231H47.1124V365.451H53.5629V377.231ZM61.376 377.231H54.9255V365.451H61.376V377.231ZM69.1891 377.231H62.7386V365.451H69.1891V377.231ZM76.9941 377.231H70.5437V365.451H76.9941V377.231ZM84.7992 377.231H78.3487V365.451H84.7992V377.231ZM92.6042 377.231H86.1537V365.451H92.6042V377.231Z" fill="#019874"/>
<path opacity="0.1" d="M14.8522 403.814C15.1666 405.081 15.5214 406.347 15.8923 407.597V404.658H22.3427V416.431H18.8918C18.9966 416.704 19.1014 417.002 19.2062 417.259H92.9913V403.814H14.8522ZM30.172 416.431H23.7215V404.658H30.172V416.431ZM37.969 416.431H31.5185V404.658H37.969V416.431ZM45.7821 416.431H39.3155V404.658H45.7659L45.7821 416.431ZM53.5871 416.431H47.1366V404.658H53.5871V416.431ZM61.4002 416.431H54.9497V404.658H61.4002V416.431ZM69.2133 416.431H62.7629V404.658H69.2133V416.431ZM77.0183 416.431H70.5679V404.658H77.0183V416.431ZM84.8234 416.431H78.3729V404.658H84.8234V416.431ZM92.6284 416.431H86.178V404.658H92.6284V416.431Z" fill="#019874"/>
<path opacity="0.1" d="M33.0746 443.022C33.2762 443.287 33.4697 443.585 33.6794 443.849H37.9447V449.504C38.4043 450.067 38.8559 450.63 39.3235 451.159V443.816H45.774V455.63H43.1615C43.4195 455.903 43.6695 456.193 43.9678 456.458H93.0154V443.022H33.0746ZM53.5629 455.63H47.1124V443.866H53.5629V455.63ZM61.376 455.63H54.9255V443.866H61.376V455.63ZM69.1891 455.63H62.7386V443.866H69.1891V455.63ZM76.9941 455.63H70.5437V443.866H76.9941V455.63ZM84.7992 455.63H78.3487V443.866H84.7992V455.63ZM92.6042 455.63H86.1537V443.866H92.6042V455.63Z" fill="#019874"/>
<path opacity="0.1" d="M76.1233 482.221C76.857 482.651 77.6069 483.049 78.3648 483.479V483.065H84.8153V486.791L86.186 487.445V483.065H92.6364V490.226C92.7601 490.289 92.8898 490.339 93.0235 490.375V482.221H76.1233Z" fill="#019874"/>
<path opacity="0.1" d="M506.852 396.454C507.005 396.984 507.134 397.514 507.279 398.036C507.15 397.514 507.013 396.984 506.852 396.454ZM121.333 152.451V155.986H157.351V152.451H121.333ZM506.852 396.454C507.005 396.984 507.134 397.514 507.279 398.036C507.15 397.514 507.013 396.984 506.852 396.454ZM506.852 396.454C507.005 396.984 507.134 397.514 507.279 398.036C507.15 397.514 507.013 396.984 506.852 396.454Z" fill="#019874"/>
<path d="M372.191 314.314C372.191 314.314 369.014 313.859 369.014 309.107C369.014 304.355 366.74 295.48 366.74 295.48C366.74 295.439 364.773 280.024 362.055 277.574C359.338 275.123 355.847 260.735 355.847 260.735C355.847 260.735 355.25 252.928 354.033 251.248C352.815 249.567 351.17 245.453 348.743 239.583C346.316 233.713 336.197 229.649 336.197 229.649C336.197 229.649 317.902 218.754 312.718 215.202C312.246 214.911 311.806 214.569 311.403 214.184C310.5 212.967 306.565 212.942 306.565 212.942C306.154 210.277 305.759 207.214 305.63 204.44C305.63 204.142 305.63 203.844 305.59 203.546C311.371 200.038 315.725 194.506 317.854 187.966C317.951 187.651 318.031 187.32 318.12 187.006C318.466 186.888 318.785 186.698 319.056 186.447C319.326 186.196 319.543 185.89 319.692 185.549C320.16 184.481 320.168 183.23 320.748 182.237C321.426 181.061 322.716 180.432 323.732 179.547C326.296 177.311 326.957 173.545 326.836 170.117C326.755 167.344 326.32 164.546 326.489 161.789L326.538 161.093C326.586 160.68 326.642 160.266 326.715 159.868C327.11 157.815 327.973 155.878 328.457 153.841C328.94 151.805 328.989 149.512 327.86 147.757C326.207 145.182 322.764 144.669 319.741 144.404C316.314 144.106 313.25 144.495 311.057 141.573C310.03 140.045 308.875 138.613 307.606 137.292C307.154 136.862 302.768 134.113 302.768 133.931C298.487 131.896 293.634 131.513 289.101 132.855C286.827 133.534 284.682 134.643 282.376 135.198C277.401 136.407 271.677 135.099 267.452 138.021C265.097 139.677 263.686 142.309 262.364 144.876C261.289 146.989 260.198 149.101 259.09 151.209C257.308 154.678 255.494 158.204 254.744 162.046C254.587 162.881 254.49 163.728 254.454 164.579V164.62C254.454 164.926 254.454 165.233 254.454 165.539V165.928C254.454 166.218 254.454 166.499 254.502 166.756C254.551 167.013 254.543 167.095 254.567 167.269C254.591 167.443 254.631 167.832 254.68 168.097C254.728 168.362 254.825 168.826 254.922 169.19C254.962 169.347 255.018 169.496 255.067 169.645C255.147 169.927 255.244 170.2 255.349 170.473C255.405 170.614 255.462 170.763 255.526 170.904C255.647 171.193 255.792 171.475 255.938 171.732C256.002 171.847 256.05 171.955 256.115 172.063C256.34 172.448 256.588 172.818 256.857 173.172C258.582 175.382 261.122 176.79 263.001 178.859C263.001 178.942 263.001 179.025 263.001 179.099C263.001 179.331 263.001 179.555 263.001 179.787C263.1 184.402 264.297 188.923 266.486 192.956C268.676 196.989 271.792 200.411 275.563 202.925C275.563 203.24 275.603 203.563 275.619 203.877C275.777 206.335 275.747 208.801 275.531 211.254C275.202 210.857 274.791 210.54 274.328 210.328C273.865 210.116 273.361 210.014 272.854 210.028C272.507 210.011 272.16 210.042 271.822 210.119L271.749 210.061V210.136C269.975 210.583 267.79 212.479 265.702 217.868C265.702 217.868 259.348 225.22 254.51 224.913C249.673 224.607 237.425 232.563 237.425 232.563C237.425 232.563 225.475 240.527 222.911 248.64C221.478 253.24 219.76 257.742 217.767 262.117L202.996 293.369L200.27 318.164C200.27 318.164 201.778 329.191 201.48 330.871C201.181 332.552 207.68 347.71 207.68 347.71C207.68 347.71 229.152 386.446 237.925 388.432L238.554 387.977C238.929 388.178 239.327 388.331 239.739 388.432L241.545 387.124C241.653 388.582 241.607 390.048 241.408 391.496C240.198 395.32 241.859 420.28 243.972 425.173C246.084 430.066 245.335 494.217 245.335 494.217L245.036 499.879C245.036 499.879 245.036 500.061 245.109 500.376L245.036 501.717L245.254 501.833C245.48 503.629 245.406 505.452 245.036 507.222C244.278 509.706 243.972 516.726 243.972 516.726C243.972 516.726 237.933 556.364 240.795 564.328C243.658 572.292 246.093 581.018 246.093 581.018C246.093 581.018 249.116 590.952 246.238 592.649C243.359 594.346 235.175 597.194 236.86 601.334C238.392 605.158 244.206 615.407 245.069 616.906L244.996 617.692L243.811 630.88C244.003 632.621 244.463 634.32 245.173 635.913C246.472 638.786 248.995 641.766 253.793 641.443C254.599 641.385 255.534 641.286 256.437 641.162C265.218 639.953 276.031 635.93 276.031 635.93C275.469 635.564 274.955 635.127 274.499 634.63C274.067 634.201 273.725 633.686 273.494 633.117C273.262 632.547 273.146 631.936 273.152 631.319C273.281 628.918 268.903 617.477 267.814 614.662C267.645 614.256 267.556 614.025 267.556 614.025C267.556 614.025 277.538 603.312 275.877 593.817C275.877 593.817 264.831 587.194 268.468 583.559C272.104 579.925 278.603 569.486 278.603 569.486C278.603 569.486 278.901 530.452 278.603 524.624C278.292 520.579 278.479 516.509 279.159 512.512C279.28 511.908 279.425 511.32 279.578 510.741C284.608 511.511 289.684 511.907 294.769 511.924C296.624 511.924 298.51 511.924 300.413 511.809C300.413 512.36 300.438 512.957 300.486 513.597C300.905 523.266 301.687 540.221 302.324 546.521C303.227 555.553 308.218 579.892 308.218 579.892C308.218 579.892 298.696 586.167 309.879 601.632C309.879 601.632 309.879 607.236 309.138 608.047C308.346 610.7 307.708 613.398 307.227 616.127C306.759 619.041 306.565 621.989 307.323 623.52C309.138 627.179 320.023 626.881 320.023 626.881L320.289 626.832C322.344 626.614 324.42 626.817 326.398 627.429C328.376 628.042 330.216 629.051 331.811 630.4C335.947 633.81 351.646 632.312 360.144 631.228C363.475 630.797 365.7 630.4 365.7 630.4C365.808 630.013 365.846 629.609 365.813 629.208C365.724 627.063 364.087 622.361 352.993 618.164C352.993 618.164 342.559 610.962 342.704 604.686H342.486H341.277C342.156 604.637 342.72 604.686 342.72 604.686C342.72 604.686 338.632 589.371 340.301 588.129C341.97 586.887 336.971 569.916 336.971 569.916C336.971 569.916 334.109 541.438 333.956 539.443C333.962 537.731 334.215 536.029 334.706 534.393L333.956 518.779C333.956 518.779 333.811 513.588 333.956 511.9C333.931 510.434 333.815 508.971 333.609 507.52C333.536 506.941 333.464 506.336 333.383 505.74C337.294 504.722 339.834 503.778 339.834 503.778L339.382 449.429C342.704 442.806 343.317 428.277 343.301 417.971C343.301 411.348 343.01 406.447 343.01 406.447L347.55 398.839C347.55 398.839 348.598 389.732 346.937 387.737C346.203 386.835 346.534 385.899 347.139 385.129C347.453 384.874 347.784 384.641 348.131 384.434C348.131 384.434 348.082 384.359 348.026 384.252C348.343 383.98 348.68 383.734 349.034 383.515C349.034 383.515 347.421 380.949 348.864 379.864C350.219 380.808 351.428 381.52 352.348 382.099C352.283 382.704 352.219 383.051 352.219 383.051L352.606 382.223C353.492 382.737 354.033 383.051 354.033 383.051C354.033 383.051 361.144 368.506 360.991 366.362C360.838 364.218 365.829 355.186 365.829 355.186C365.829 355.186 366.434 350.442 369.159 348.455C371.884 346.468 371.272 332.072 371.272 332.072C371.272 332.072 372.029 324.571 373.844 321.508C375.658 318.445 372.191 314.314 372.191 314.314ZM236.119 307.931L236.256 311.4C235.449 310.067 234.869 309.107 234.869 309.107L236.119 307.931Z" fill="url(#paint0_linear_130_54)"/>
<path d="M354.42 376.768L352.678 384.384C352.678 384.384 338.729 377.074 336.213 367.786C333.698 358.497 340.422 354.97 340.422 354.97L353.42 360.625L354.42 376.768Z" fill="white"/>
<path opacity="0.1" d="M354.42 376.768L352.678 384.384C352.678 384.384 338.729 377.074 336.213 367.786C333.698 358.497 340.422 354.97 340.422 354.97L353.42 360.625L354.42 376.768Z" fill="black"/>
<path d="M276.135 635.979C276.135 635.979 263.235 640.847 254.365 641.46C249.656 641.783 247.181 638.819 245.907 635.963C245.211 634.375 244.762 632.685 244.577 630.954L245.73 617.833L246.342 610.846L265.186 605.82L267.855 614.198L268.105 614.836C269.177 617.634 273.475 629.017 273.346 631.393C273.34 632.001 273.455 632.605 273.682 633.167C273.909 633.728 274.245 634.237 274.668 634.663C275.101 635.164 275.594 635.607 276.135 635.979Z" fill="white"/>
<path d="M364.257 629.307C364.289 629.705 364.251 630.106 364.144 630.491C364.144 630.491 336.552 635.218 330.908 630.491C329.316 629.11 327.462 628.086 325.462 627.484C323.463 626.882 321.363 626.717 319.297 626.997C319.297 626.997 308.622 627.295 306.84 623.686C306.098 622.171 306.291 619.232 306.751 616.334C307.22 613.619 307.844 610.935 308.622 608.296L309.049 607.948L311.589 605.854L341.325 604.951H341.551C341.406 611.193 351.646 618.354 351.646 618.354C362.523 622.494 364.128 627.171 364.257 629.307Z" fill="white"/>
<path opacity="0.1" d="M364.257 629.307C364.285 629.706 364.244 630.107 364.136 630.491C364.136 630.491 336.552 635.218 330.908 630.491C329.317 629.111 327.464 628.087 325.466 627.486C323.468 626.884 321.369 626.718 319.305 626.997C319.305 626.997 308.622 627.295 306.848 623.686C306.106 622.162 306.291 619.232 306.751 616.334C310.863 616.757 317.354 617.808 319.902 620.316C323.756 624.133 330.287 627.941 334.294 628.239C337.431 628.446 356.194 629.059 364.257 629.307Z" fill="black"/>
<path opacity="0.1" d="M276.135 635.979C276.135 635.979 263.235 640.847 254.365 641.46C249.656 641.783 247.181 638.819 245.915 635.955C249.197 637.089 253.752 638.281 256.147 637.188C258.985 635.897 269.048 635.061 274.692 634.705C275.122 635.187 275.606 635.615 276.135 635.979Z" fill="black"/>
<path d="M295.277 243.697C284.634 239.451 270.943 225.418 274.362 218.862C275.121 217.207 275.572 215.421 275.692 213.596C275.912 211.119 275.944 208.628 275.789 206.146C275.549 202.08 275.073 198.033 274.362 194.026C274.362 194.026 307.589 194.796 305.654 199.821C305.09 201.294 305.001 203.853 305.154 206.717C305.308 209.581 305.711 212.818 306.13 215.558C306.711 219.317 307.291 222.181 307.291 222.181C307.291 222.181 305.259 225.104 304.066 225.261C302.873 225.418 310.549 249.749 295.277 243.697Z" fill="#CF6F80"/>
<path opacity="0.1" d="M268.08 614.836L267.831 615.117C257.897 602.782 245.883 618.156 245.883 618.156L245.706 617.833L246.318 610.846L265.162 605.82L267.831 614.198L268.08 614.836Z" fill="black"/>
<path opacity="0.1" d="M341.559 605.82C341.559 605.82 334.302 605.663 330.432 609.173C326.562 612.683 307.856 609.935 308.662 609.173C308.901 608.796 309.045 608.364 309.081 607.915L311.621 605.82L341.358 604.918C341.47 605.473 341.559 605.82 341.559 605.82Z" fill="black"/>
<path d="M280.441 508.952C279.901 510.324 279.49 511.747 279.216 513.199C278.543 517.178 278.356 521.227 278.659 525.253C278.958 531.048 278.659 569.883 278.659 569.883C278.659 569.883 272.281 580.24 268.726 583.89C265.17 587.541 275.982 594.098 275.982 594.098C277.595 603.536 267.822 614.198 267.822 614.198C257.889 601.863 245.875 617.245 245.875 617.245C245.875 617.245 239.344 605.655 237.715 601.516C236.086 597.376 244.093 594.512 246.907 592.831C249.721 591.151 246.77 581.241 246.77 581.241C246.77 581.241 244.391 572.557 241.569 564.634C238.747 556.712 244.682 517.272 244.682 517.272C244.682 517.272 244.988 510.269 245.722 507.827C246.092 506.064 246.166 504.25 245.939 502.462C245.891 501.858 245.835 501.353 245.794 501.013C245.754 500.674 245.722 500.516 245.722 500.516L245.835 500.318L249.866 492.602C249.866 492.602 282.376 504.093 280.441 508.952Z" fill="#019874"/>
<path d="M341.559 604.91C341.559 604.91 334.302 604.753 330.432 608.221C326.562 611.69 307.856 608.983 308.662 608.221C309.468 607.46 309.404 601.822 309.404 601.822C298.43 586.44 307.791 580.198 307.791 580.198C307.791 580.198 302.889 555.983 302.002 547.001C301.381 540.726 300.615 523.862 300.204 514.234C300.026 510.095 299.922 507.247 299.922 507.247L308.888 505.393L310.041 505.153L331.666 500.699C331.666 500.699 332.262 504.838 332.666 508.224C332.867 509.67 332.98 511.127 333.004 512.587C332.859 514.242 333.004 519.425 333.004 519.425L333.738 534.964C333.259 536.594 333.011 538.286 333.004 539.989C333.149 541.968 335.963 570.297 335.963 570.297C335.963 570.297 340.858 587.202 339.189 588.419C337.52 589.636 341.559 604.91 341.559 604.91Z" fill="#019874"/>
<path opacity="0.1" d="M305.654 199.821C305.09 201.294 305.001 203.853 305.154 206.717C300.704 209.469 295.587 210.876 290.393 210.776C285.198 210.676 280.136 209.074 275.789 206.154C275.549 202.086 275.073 198.036 274.362 194.026C274.362 194.026 307.589 194.779 305.654 199.821Z" fill="black"/>
<path d="M318.499 181.525C318.505 184.508 318.048 187.473 317.144 190.309C315.124 196.661 310.982 202.076 305.449 205.597C299.917 209.117 293.35 210.516 286.91 209.546C280.471 208.576 274.572 205.3 270.257 200.296C265.943 195.293 263.489 188.885 263.331 182.204C263.331 181.972 263.331 181.757 263.331 181.525C263.269 177.765 263.936 174.029 265.294 170.536C266.653 167.043 268.675 163.863 271.243 161.181C273.811 158.499 276.873 156.369 280.251 154.914C283.63 153.46 287.256 152.711 290.919 152.711C294.582 152.711 298.209 153.46 301.587 154.914C304.965 156.369 308.028 158.499 310.595 161.181C313.163 163.863 315.186 167.043 316.544 170.536C317.902 174.029 318.569 177.765 318.507 181.525H318.499Z" fill="#CF6F80"/>
<path opacity="0.1" d="M295.277 243.697C284.634 239.451 270.943 225.418 274.362 218.862C275.121 217.207 275.572 215.421 275.692 213.596L290.262 225.89L299.276 233.482L306.13 215.567C306.711 219.325 307.291 222.19 307.291 222.19C307.291 222.19 305.259 225.112 304.066 225.269C302.873 225.427 310.549 249.749 295.277 243.697Z" fill="black"/>
<path d="M332.956 298.03L320.789 507.893L304.921 508.961L263.831 387.273L270.572 242.803L271.991 212.28L290.262 227.687L299.284 235.278L306.34 216.842L319.458 228.581L332.956 298.03Z" fill="#019874"/>
<path opacity="0.1" d="M280.441 508.952C279.901 510.324 279.49 511.747 279.216 513.199C267.669 511.369 256.455 507.772 245.947 502.528L245.73 502.412L245.802 501.08L245.843 500.384L249.874 492.668C249.874 492.668 282.376 504.093 280.441 508.952Z" fill="black"/>
<path opacity="0.1" d="M309.073 513.233C306.121 513.748 303.144 514.096 300.155 514.276C299.978 510.136 299.873 507.289 299.873 507.289L308.839 505.434L309.073 513.233Z" fill="black"/>
<path opacity="0.1" d="M332.617 508.265C326.884 509.797 318.031 511.519 310.105 510.443L309.992 505.194L331.617 500.74C331.617 500.74 332.214 504.838 332.617 508.265Z" fill="black"/>
<path opacity="0.1" d="M309.96 511.403C276.901 517.198 246.625 500.583 246.625 500.583L246.915 494.953C246.915 494.953 247.665 431.134 245.585 426.241C243.504 421.348 241.884 396.537 243.061 392.729C244.238 388.921 238.763 331.815 238.763 331.815L237.876 308.635L205.414 295.132L219.928 264.071C221.888 259.716 223.574 255.237 224.975 250.66C227.499 242.596 239.215 234.674 239.215 234.674C239.215 234.674 251.229 226.759 255.978 227.057C260.727 227.355 266.952 220.054 266.952 220.054C271.548 208.025 275.708 213.472 275.708 213.472C275.708 214.043 275.708 213.472 275.482 215.252C273.87 228.457 301.558 270.181 301.953 270.918L304.59 336.865L307.259 420.322L309.96 511.403Z" fill="black"/>
<path d="M309.073 511.403C276.015 517.198 245.73 500.583 245.73 500.583L246.028 494.953C246.028 494.953 246.778 431.134 244.69 426.241C242.601 421.348 240.989 396.537 242.174 392.729C243.359 388.921 237.876 331.815 237.876 331.815L236.981 308.635L204.503 295.083L219.017 264.021C220.973 259.665 222.659 255.185 224.064 250.61C226.58 242.547 238.304 234.624 238.304 234.624C238.304 234.624 250.318 226.71 255.059 227.008C259.8 227.306 266.032 220.004 266.032 220.004C270.636 207.975 275.708 213.423 275.708 213.423C275.708 213.994 275.224 214.25 275.482 215.202C279.03 228.009 300.671 270.131 301.066 270.868L303.735 336.815L306.404 420.272L309.073 511.403Z" fill="white"/>
<path opacity="0.1" d="M300.163 272.747C296.608 271.224 277.772 249.145 277.772 249.145V244.12C277.087 242.464 273.015 243.474 269.709 244.633L271.128 214.11L272.741 215.484C276.273 228.283 299.752 272.01 300.163 272.747Z" fill="black"/>
<path d="M301.058 270.918C297.495 269.394 278.659 247.315 278.659 247.315V242.29C277.974 240.634 273.902 241.644 270.596 242.803L272.023 212.28L273.636 213.654C277.176 226.453 300.663 270.189 301.058 270.918Z" fill="white"/>
<path opacity="0.1" d="M246.625 381.031C247.068 381.031 269.613 378.597 269.613 378.597C269.613 378.597 283.263 406.157 282.368 412.863C281.473 419.568 279.853 425.504 274.362 424.453C268.871 423.401 244.811 425.281 244.811 425.281L246.625 381.031Z" fill="black"/>
<path d="M245.73 379.202C246.173 379.202 268.717 376.768 268.717 376.768C268.717 376.768 282.36 404.336 281.473 411.033C280.586 417.73 278.949 423.675 273.467 422.623C267.984 421.572 243.916 423.451 243.916 423.451L245.73 379.202Z" fill="white"/>
<path d="M262.719 366.262C262.719 366.262 283.408 377.679 283.852 381.164C284.295 384.649 273.321 379.641 270.951 379.036C269.391 378.65 267.802 378.396 266.202 378.275L250.39 378.713L262.719 366.262Z" fill="#CF6F80"/>
<path opacity="0.1" d="M294.39 274.171C295.593 274.171 296.567 273.17 296.567 271.936C296.567 270.701 295.593 269.701 294.39 269.701C293.188 269.701 292.213 270.701 292.213 271.936C292.213 273.17 293.188 274.171 294.39 274.171Z" fill="black"/>
<path d="M294.39 273.26C295.593 273.26 296.567 272.26 296.567 271.025C296.567 269.791 295.593 268.79 294.39 268.79C293.188 268.79 292.213 269.791 292.213 271.025C292.213 272.26 293.188 273.26 294.39 273.26Z" fill="#3F3D56"/>
<path opacity="0.1" d="M298.398 370.931C299.6 370.931 300.575 369.931 300.575 368.696C300.575 367.462 299.6 366.461 298.398 366.461C297.195 366.461 296.221 367.462 296.221 368.696C296.221 369.931 297.195 370.931 298.398 370.931Z" fill="black"/>
<path d="M298.398 370.013C299.6 370.013 300.575 369.012 300.575 367.777C300.575 366.543 299.6 365.542 298.398 365.542C297.195 365.542 296.221 366.543 296.221 367.777C296.221 369.012 297.195 370.013 298.398 370.013Z" fill="#3F3D56"/>
<path opacity="0.1" d="M296.559 322.551C297.762 322.551 298.736 321.551 298.736 320.316C298.736 319.082 297.762 318.081 296.559 318.081C295.357 318.081 294.382 319.082 294.382 320.316C294.382 321.551 295.357 322.551 296.559 322.551Z" fill="black"/>
<path d="M296.559 321.641C297.762 321.641 298.736 320.64 298.736 319.405C298.736 318.171 297.762 317.17 296.559 317.17C295.357 317.17 294.382 318.171 294.382 319.405C294.382 320.64 295.357 321.641 296.559 321.641Z" fill="#3F3D56"/>
<path d="M346.744 377.811C346.744 377.811 348.227 380.096 346.744 381.164C345.26 382.232 346.889 384.815 346.889 384.815C346.889 384.815 343.188 387.042 344.817 389.045C346.445 391.048 345.413 400.097 345.413 400.097L340.962 407.664C340.962 407.664 341.229 412.54 341.245 419.13C341.245 429.412 340.656 443.866 337.399 450.456L337.85 504.523C337.85 504.523 322.264 510.368 309.218 508.588L307.283 421.828C307.283 421.828 310.105 372.629 311.145 363.191C311.754 358.291 312.002 353.352 311.887 348.414C311.887 348.414 311.444 333.645 309.952 326.79C309.952 326.79 308.339 297.095 308.178 288.874C308.106 284.942 308.307 273.467 308.533 262.556C308.783 250.627 309.065 239.376 309.065 239.376L306.122 215.467C306.122 215.467 309.065 215.161 309.952 216.378C310.349 216.759 310.781 217.1 311.242 217.396C316.322 220.923 334.27 231.768 334.27 231.768C334.27 231.768 344.204 235.825 346.582 241.636C348.961 247.448 350.614 251.57 351.767 253.226C352.92 254.882 353.549 262.664 353.549 262.664C353.549 262.664 356.968 276.986 359.637 279.411C362.305 281.837 364.257 297.268 364.257 297.268L340.672 316.309C340.672 316.309 338.6 347.983 338.157 349.208C337.713 350.434 346.744 377.811 346.744 377.811Z" fill="white"/>
<path d="M347.639 377.811C347.639 377.811 349.114 380.096 347.639 381.164C346.163 382.232 347.776 384.815 347.776 384.815C347.776 384.815 344.099 387.066 345.712 389.07C347.324 391.073 346.308 400.122 346.308 400.122L341.857 407.688C341.857 407.688 342.124 412.565 342.148 419.154C342.148 429.436 341.559 443.891 338.302 450.481L338.745 504.548C338.745 504.548 323.135 510.393 310.105 508.613L308.178 421.853C308.178 421.853 311 372.653 312.04 363.216C312.65 358.316 312.895 353.376 312.774 348.438C312.774 348.438 312.331 333.669 310.847 326.815C310.847 326.815 309.234 297.119 309.065 288.899C308.992 284.966 309.202 273.492 309.42 262.581C309.67 250.651 309.952 239.401 309.952 239.401L306.066 215.169C306.066 215.169 309.952 215.169 310.847 216.403C311.241 216.788 311.673 217.13 312.137 217.421C317.217 220.948 335.173 231.793 335.173 231.793C335.173 231.793 345.099 235.849 347.477 241.661C349.856 247.473 351.509 251.595 352.67 253.251C353.831 254.907 354.444 262.689 354.444 262.689C354.444 262.689 357.863 277.011 360.532 279.436C363.2 281.862 365.127 297.26 365.127 297.26L341.543 316.301C341.543 316.301 339.471 347.975 339.019 349.2C338.568 350.425 347.639 377.811 347.639 377.811Z" fill="white"/>
<path opacity="0.1" d="M319.394 246.429L321.522 252.804L310.315 264.394C310.565 252.473 310.847 241.214 310.847 241.214L306.961 216.982C306.961 216.982 310.847 216.982 311.742 218.216C312.134 218.6 312.567 218.939 313.032 219.226L322.563 247.456L319.394 246.429Z" fill="black"/>
<path d="M318.499 244.6L320.636 250.974L309.428 262.564C309.678 250.635 309.96 239.384 309.96 239.384L306.066 215.153C306.066 215.153 309.96 215.153 310.847 216.386C311.242 216.77 311.675 217.111 312.137 217.405L321.676 245.626L318.499 244.6Z" fill="white"/>
<path opacity="0.1" d="M318.499 181.525C318.505 184.508 318.048 187.473 317.144 190.309C316.992 190.333 316.836 190.326 316.687 190.288C316.537 190.249 316.397 190.18 316.273 190.085C316.064 182.634 312.492 175.639 308.097 169.687C306.864 167.89 305.368 166.298 303.663 164.968C301.939 163.638 299.795 163.016 297.648 163.221C295.229 163.561 293.092 165.249 290.649 165.465C287.424 165.738 284.537 163.445 281.336 163.329C280.035 163.341 278.751 163.639 277.571 164.201C276.39 164.764 275.34 165.578 274.491 166.59C272.809 168.633 271.56 171.013 270.822 173.578C269.554 177.467 268.864 181.531 268.774 185.631C268.734 187.949 268.516 190.855 266.42 191.7C266.577 189.995 266.389 188.275 265.865 186.649C265.342 185.023 264.496 183.526 263.38 182.254L263.331 182.204C263.331 181.972 263.331 181.757 263.331 181.525C263.269 177.765 263.936 174.029 265.294 170.536C266.653 167.043 268.675 163.863 271.243 161.181C273.811 158.499 276.873 156.369 280.251 154.914C283.63 153.46 287.256 152.711 290.919 152.711C294.582 152.711 298.209 153.46 301.587 154.914C304.965 156.369 308.028 158.499 310.595 161.181C313.163 163.863 315.186 167.043 316.544 170.536C317.902 174.029 318.569 177.765 318.507 181.525H318.499Z" fill="black"/>
<path d="M302.34 136.547C298.151 134.524 293.385 134.141 288.94 135.471C286.706 136.15 284.602 137.251 282.336 137.806C277.498 139.006 271.854 137.706 267.702 140.612C265.396 142.268 264.009 144.884 262.719 147.426L259.493 153.734C257.736 157.186 255.962 160.696 255.228 164.496C254.494 168.296 254.938 172.551 257.284 175.606C258.993 177.833 261.517 179.232 263.372 181.326C264.483 182.6 265.325 184.096 265.847 185.72C266.369 187.344 266.558 189.061 266.403 190.764C268.508 189.936 268.709 187.022 268.758 184.704C268.848 180.603 269.538 176.54 270.806 172.65C271.542 170.085 272.791 167.705 274.475 165.663C275.325 164.652 276.375 163.838 277.555 163.276C278.736 162.713 280.019 162.415 281.32 162.402C284.545 162.517 287.44 164.802 290.633 164.529C293.052 164.322 295.197 162.625 297.632 162.294C299.779 162.085 301.924 162.708 303.647 164.041C305.351 165.369 306.845 166.961 308.073 168.759C312.476 174.712 316.048 181.691 316.257 189.158C317.168 189.845 318.483 188.951 318.934 187.891C319.386 186.832 319.402 185.59 319.974 184.58C320.635 183.413 321.901 182.792 322.893 181.914C325.409 179.687 326.038 175.937 325.941 172.535C325.844 169.132 325.199 165.68 325.828 162.335C326.207 160.282 327.062 158.362 327.529 156.333C327.997 154.305 328.054 152.028 326.949 150.282C325.336 147.715 321.942 147.21 318.983 146.97C315.62 146.672 312.613 147.053 310.468 144.147C309.461 142.631 308.328 141.207 307.082 139.892C306.654 139.461 302.34 136.73 302.34 136.547Z" fill="#512E4E"/>
<path opacity="0.1" d="M214.703 311.127L206.277 295.132L203.608 319.811C203.608 319.811 205.092 330.772 204.794 332.452C204.495 334.133 210.873 349.2 210.873 349.2C210.873 349.2 231.942 387.729 240.545 389.716L269.613 368.39L261.904 358.34C261.904 358.34 259.235 357.272 258.566 358.34C258.566 358.34 244.254 333.057 242.771 331.227C241.287 329.398 241.577 325.747 241.577 325.747C241.577 325.747 239.352 323.313 240.094 321.028C240.835 318.743 235.796 310.82 235.796 310.82L240.392 306.408L214.703 311.127Z" fill="black"/>
<path d="M206.721 293.311L204.495 295.132L201.826 319.811C201.826 319.811 203.31 330.772 203.012 332.452C202.713 334.133 209.099 349.2 209.099 349.2C209.099 349.2 230.16 387.729 238.763 389.716L267.839 368.39L260.122 358.34C260.122 358.34 257.453 357.272 256.784 358.34C256.784 358.34 242.472 333.057 240.989 331.227C239.505 329.398 239.803 325.747 239.803 325.747C239.803 325.747 237.578 323.313 238.32 321.028C239.062 318.743 234.014 310.82 234.014 310.82L238.61 306.408L206.721 293.311Z" fill="white"/>
<path opacity="0.1" d="M344.817 389.989C346.429 392.001 345.413 401.032 345.413 401.032L340.962 408.599C340.962 408.599 341.229 413.483 341.245 420.065L333.762 422.466C333.086 422.683 332.369 422.73 331.671 422.605C330.973 422.479 330.315 422.184 329.751 421.744C329.186 421.304 328.733 420.732 328.428 420.076C328.123 419.419 327.975 418.698 327.997 417.971L329.287 375.245L346.744 382.099C345.26 383.159 346.889 385.758 346.889 385.758C346.889 385.758 343.188 387.977 344.817 389.989Z" fill="black"/>
<path d="M345.712 389.07C347.324 391.082 346.308 400.122 346.308 400.122L341.857 407.689C341.857 407.689 342.124 412.565 342.148 419.154L334.528 421.597C333.866 421.808 333.164 421.854 332.481 421.73C331.798 421.607 331.154 421.318 330.601 420.887C330.049 420.456 329.605 419.896 329.307 419.253C329.008 418.611 328.863 417.904 328.884 417.192L330.182 374.334L347.647 381.189C346.155 382.248 347.784 384.84 347.784 384.84C347.784 384.84 344.099 387.066 345.712 389.07Z" fill="white"/>
<path d="M351.493 368.705C351.493 368.705 350.308 376.478 347.34 376.933C344.373 377.389 343.043 389.509 340.084 389.078C337.124 388.648 339.084 377.811 339.189 375.708C339.293 373.605 335.963 364.896 338.455 362.918C340.946 360.939 348.832 362.918 348.832 362.918L351.493 368.705Z" fill="#CF6F80"/>
<path opacity="0.1" d="M357.806 308.842L363.402 297.252C363.402 297.252 365.627 306.085 365.627 310.804C365.627 315.523 368.74 315.986 368.74 315.986C368.74 315.986 372.15 320.126 370.352 323.139C368.554 326.152 367.829 333.653 367.829 333.653C367.829 333.653 368.417 347.967 365.748 349.945C363.079 351.924 362.523 356.651 362.523 356.651C362.523 356.651 357.621 365.633 357.774 367.769C357.927 369.905 350.953 384.368 350.953 384.368C350.953 384.368 354.363 366.395 334.488 358.629C334.488 358.629 334.335 352.528 335.818 350.856C337.302 349.184 339.616 348.422 338.165 339.969C336.713 331.517 337.745 321.417 337.745 319.389C337.745 317.361 342.196 304.711 342.196 304.711L357.806 308.842Z" fill="black"/>
<path d="M360.225 295.596L365.111 297.252C365.111 297.252 367.345 306.085 367.345 310.804C367.345 315.523 370.457 315.986 370.457 315.986C370.457 315.986 373.868 320.126 372.07 323.139C370.272 326.152 369.554 333.653 369.554 333.653C369.554 333.653 370.143 347.967 367.474 349.945C364.805 351.924 364.208 356.651 364.208 356.651C364.208 356.651 359.314 365.633 359.467 367.769C359.62 369.905 352.638 384.368 352.638 384.368C352.638 384.368 356.057 366.395 336.173 358.629C336.173 358.629 336.028 352.528 337.511 350.856C338.995 349.184 341.309 348.422 339.858 339.969C338.406 331.517 339.439 321.417 339.439 319.389C339.439 317.361 343.889 304.711 343.889 304.711L360.225 295.596Z" fill="white"/>
<path opacity="0.1" d="M252.301 596.002C252.301 596.002 260.09 590.977 265.202 594.628C270.314 598.279 252.301 596.002 252.301 596.002Z" fill="black"/>
<path opacity="0.1" d="M312.822 580.463C312.822 580.463 319.716 579.552 325.506 585.952C331.295 592.351 312.822 580.463 312.822 580.463Z" fill="black"/>
<g opacity="0.1">
<path d="M322.909 180.101C321.918 180.979 320.644 181.608 319.982 182.775C319.418 183.777 319.402 185.01 318.95 186.087C318.499 187.163 317.184 188.04 316.273 187.362C316.064 179.911 312.484 172.915 308.089 166.955C306.861 165.156 305.367 163.564 303.663 162.236C301.937 160.904 299.789 160.281 297.64 160.489C295.221 160.829 293.092 162.517 290.649 162.724C287.424 163.006 284.529 160.713 281.328 160.597C280.027 160.61 278.744 160.909 277.565 161.473C276.386 162.037 275.338 162.853 274.491 163.867C272.807 165.905 271.558 168.282 270.822 170.846C269.555 174.736 268.864 178.799 268.774 182.899C268.726 185.209 268.516 188.09 266.436 188.951C266.484 189.563 266.484 190.177 266.436 190.789C268.532 189.961 268.742 187.047 268.79 184.729C268.88 180.628 269.57 176.565 270.838 172.675C271.574 170.109 272.824 167.73 274.507 165.688C275.355 164.677 276.404 163.863 277.583 163.301C278.762 162.738 280.044 162.44 281.344 162.426C284.569 162.542 287.472 164.827 290.665 164.554C293.084 164.347 295.229 162.65 297.656 162.319C299.805 162.11 301.953 162.733 303.679 164.066C305.384 165.394 306.877 166.985 308.105 168.784C312.5 174.737 316.08 181.715 316.289 189.183C317.201 189.87 318.515 188.976 318.966 187.916C319.418 186.857 319.434 185.615 319.998 184.605C320.66 183.437 321.934 182.817 322.925 181.939C325.441 179.712 326.07 175.962 325.973 172.559C325.973 172.452 325.973 172.344 325.973 172.245C325.82 175.192 325.054 178.197 322.909 180.101Z" fill="black"/>
<path d="M263.388 179.513C261.533 177.419 259.002 176.02 257.3 173.801C255.868 171.837 255.049 169.473 254.954 167.021C254.7 170.085 255.533 173.14 257.3 175.622C259.002 177.849 261.533 179.248 263.388 181.343C265.168 183.392 266.237 185.989 266.428 188.727C266.551 187.061 266.345 185.385 265.823 183.802C265.301 182.219 264.472 180.76 263.388 179.513Z" fill="black"/>
<path d="M327.546 154.52C327.07 156.549 326.223 158.477 325.836 160.522C325.607 161.889 325.523 163.277 325.586 164.662C325.613 163.873 325.697 163.087 325.836 162.31C326.223 160.257 327.07 158.337 327.546 156.308C327.823 155.19 327.913 154.031 327.812 152.881C327.762 153.433 327.673 153.981 327.546 154.52Z" fill="black"/>
</g>
<path opacity="0.1" d="M107.021 629.663C150.412 629.663 185.587 623.862 185.587 616.707C185.587 609.551 150.412 603.751 107.021 603.751C63.6299 603.751 28.4545 609.551 28.4545 616.707C28.4545 623.862 63.6299 629.663 107.021 629.663Z" fill="#019874"/>
<path d="M109.553 368.514H104.497V485.383H109.553V368.514Z" fill="#535461"/>
<path d="M141.321 485.027L141.007 490.292L140.555 497.743L140.37 500.839L139.926 508.29L139.733 511.386L139.281 518.837L134.185 603.337C133.964 606.973 132.401 610.385 129.816 612.88C127.231 615.374 123.816 616.763 120.269 616.765H93.7733C90.2262 616.763 86.8131 615.374 84.2289 612.879C81.6448 610.384 80.0841 606.972 79.8645 603.337L74.7929 518.779L74.3414 511.328L74.1559 508.232L73.7044 500.781L73.5189 497.685L73.0674 490.235L72.7449 484.969C72.6889 483.956 72.8351 482.942 73.1746 481.988C73.5141 481.035 74.0398 480.163 74.7193 479.426C75.3988 478.689 76.2179 478.102 77.1262 477.701C78.0346 477.301 79.013 477.095 80.0016 477.096H134.193C135.178 477.105 136.151 477.321 137.051 477.731C137.952 478.14 138.761 478.735 139.429 479.478C140.097 480.221 140.609 481.097 140.935 482.051C141.26 483.006 141.392 484.019 141.321 485.027Z" fill="#3F3D56"/>
<path d="M141.007 490.292L140.555 497.718H73.4867L73.0352 490.292H141.007Z" fill="#9D9CB5"/>
<path d="M140.37 500.815L139.926 508.249H74.1236L73.6721 500.815H140.37Z" fill="#9D9CB5"/>
<path d="M139.733 511.353L139.289 518.779H74.7607L74.3091 511.353H139.733Z" fill="#9D9CB5"/>
<path d="M65.3188 412.316C94.757 434.188 107.045 468.396 107.045 468.396C107.045 468.396 71.5677 467.145 42.1214 445.273C12.6751 423.401 0.411194 389.202 0.411194 389.202C0.411194 389.202 35.8725 390.444 65.3188 412.316Z" fill="#019874"/>
<path d="M0.387024 389.202C0.387024 389.202 37.2191 410.189 49.0314 427.565C60.8438 444.942 107.045 468.396 107.045 468.396" stroke="#535461" stroke-width="2" stroke-miterlimit="10"/>
<path d="M84.3235 368.257C100.345 380.154 107.045 398.772 107.045 398.772C107.045 398.772 87.7341 398.094 71.7048 386.197C55.6754 374.301 48.9911 355.674 48.9911 355.674C48.9911 355.674 68.2941 356.353 84.3235 368.257Z" fill="#019874"/>
<path d="M48.9911 355.674C48.9911 355.674 69.0359 367.098 75.4622 376.553C81.8884 386.007 107.045 398.772 107.045 398.772" stroke="#535461" stroke-width="2" stroke-miterlimit="10"/>
<path d="M130.307 397.829C111.899 418.6 108.005 445.745 108.005 445.745C108.005 445.745 133.96 439.205 152.351 418.426C170.743 397.647 174.654 370.509 174.654 370.509C174.654 370.509 148.715 377.058 130.307 397.829Z" fill="#019874"/>
<path d="M174.67 370.518C174.67 370.518 150.69 391.81 144.595 406.48C138.499 421.15 108.005 445.745 108.005 445.745" stroke="#535461" stroke-width="2" stroke-miterlimit="10"/>
<path d="M806.04 390.519C806.04 390.519 792.727 322.518 797.823 314.057C797.823 314.057 798.009 306.193 797.702 296.167C797.702 295.786 797.702 295.406 797.702 295.017C798.599 295.63 799.534 296.183 800.5 296.672C805.195 299.149 810.586 299.863 815.739 298.692L811.708 294.081C810.74 292.98 809.732 291.788 809.523 290.331C809.313 288.874 809.894 287.574 810.394 286.274C814.224 276.34 814.425 263.848 807.047 256.264C800.815 249.89 799.299 241.661 792.534 235.841C787.591 231.578 784.874 225.327 782.31 219.284C780.141 214.176 777.956 209.027 776.714 203.612C775.747 199.382 775.36 195.003 774.029 190.872C772.699 186.741 770.207 182.725 766.313 180.879C764.926 180.225 763.386 179.853 762.12 178.984C760.459 177.833 759.459 175.962 758.258 174.323C752.154 166.044 731.714 170.92 722.039 174.281C719.408 175.128 716.972 176.513 714.879 178.354L714.967 178.205C715.04 178.081 715.129 177.957 715.209 177.833C714.15 178.712 713.235 179.76 712.5 180.937C711.089 183.231 710.5 185.904 709.323 188.388C707.904 191.327 700.01 199.531 703.405 202.834C703.643 203.056 703.915 203.235 704.211 203.364C705.486 203.909 706.889 204.053 708.243 203.778L708.098 204.134C706.938 207.048 706.344 210.167 706.348 213.315C706.348 226.917 717.273 237.944 730.763 237.944C733.299 237.946 735.82 237.547 738.237 236.76C738.294 237.075 738.342 237.389 738.399 237.704C738.399 237.828 738.439 237.952 738.455 238.076L738.028 238.689C738.006 238.651 737.982 238.615 737.955 238.581L725.296 256.745C723.361 258.144 712.218 266.422 711.589 272.631C710.928 279.428 710.267 287.384 710.267 287.384L710.178 289.089C709.625 289.564 708.978 289.909 708.282 290.102C707.586 290.295 706.857 290.331 706.146 290.207C702.195 289.544 702.195 305.108 702.195 305.108C702.195 305.108 699.567 307.592 697.761 305.439C695.955 303.287 691.181 310.58 691.181 310.58L661.267 311.905L660.582 311.946L658.969 306.822C658.796 306.281 658.422 305.833 657.928 305.574C657.434 305.315 656.861 305.267 656.333 305.439C656.208 305.482 656.086 305.534 655.97 305.597L655.857 305.663L655.647 305.812L655.543 305.911C655.485 305.965 655.431 306.023 655.381 306.085L655.285 306.201L655.236 306.251C655.05 306.515 654.927 306.82 654.876 307.142C654.826 307.464 654.85 307.794 654.946 308.105L656.333 312.501C650.56 313.693 644.657 317.054 649.471 326.31L625.072 321.682L632.966 328.487L673.717 337.122C673.176 338.115 673.531 339.555 675.216 341.584C682.473 350.334 695.697 352.71 701.018 353.323C702.424 356.551 704.179 359.605 706.251 362.429L705.792 371.147C705.792 371.147 692.318 437.591 689.851 440.96C691.096 439.511 692.236 437.97 693.262 436.349C689.351 450 683.884 468.685 682.449 471.483C680.143 475.954 678.006 494.043 680.635 495.202C681.441 495.558 683.747 495.384 687.037 495.127V496.626L686.892 553.409C686.892 553.409 687.553 588.237 685.739 591.556C683.925 594.876 683.441 601.838 683.441 601.838C683.441 601.838 676.184 615.573 670.435 621.094C670.396 621.137 670.353 621.176 670.306 621.21L670.129 619.919C670.129 619.919 663.219 628.876 647.931 628.371C647.931 628.371 638.731 634.514 652.374 634.845C666.017 635.176 683.441 634.349 683.441 634.349C683.441 634.349 695.608 615.308 705.8 617.791V632.221H708.92V617.56C710.367 616.581 711.606 615.312 712.561 613.827C713.516 612.343 714.167 610.675 714.475 608.925C714.743 607.121 714.547 605.276 713.908 603.573C713.269 601.87 712.208 600.368 710.831 599.214C710.212 598.64 709.716 597.94 709.373 597.16C709.03 596.379 708.849 595.534 708.839 594.677L708.726 594.777C708.726 594.487 708.654 594.189 708.622 593.883C707.727 586.432 706.606 571.059 710.565 559.684C715.991 544.087 717.636 522.364 713.685 509.433C712.41 505.299 711.363 501.095 710.549 496.841C710.452 496.303 710.363 495.789 710.283 495.309C712.983 495.684 715.658 496.237 718.289 496.965C727.441 499.556 747.461 500.036 764.555 499.896C764.595 500.376 764.644 500.881 764.7 501.386C765.005 504.896 765.642 508.367 766.603 511.751C768.748 518.373 769.732 547.572 769.732 547.572C769.732 547.572 772.497 571.58 770.989 581.349C770.183 586.78 769.377 592.235 768.917 597.716V597.823C768.917 597.823 764.386 611.069 761.072 618.263C760.991 618.445 760.903 618.627 760.822 618.801C759.938 618.884 759.069 619.081 758.234 619.389C758.234 619.389 753.791 628.496 749.364 630.002C744.938 631.509 746.405 636.468 756.428 634.647C766.45 632.825 781.584 631.335 781.584 631.335L782.237 622.047L785.317 618.089L784.511 627.353L787.793 626.691L787.357 615.424L792.397 608.95C792.397 608.95 798.484 603.387 789.438 592.442V592.682C789.341 592.525 789.252 592.359 789.147 592.202V592.152C787.648 589.768 786.454 585.323 788.639 577.433C792.59 563.177 794.888 550.238 794.888 550.238C794.888 550.238 803.709 515.575 793.106 499.175H793.574C792.487 496.868 791.719 494.416 791.292 491.89C791.238 491.592 791.19 491.286 791.147 490.971C798.992 490.508 806.693 489.051 812.974 485.905C812.95 485.872 809.168 403.615 806.04 390.519ZM706.437 333.148V333.313L704.824 333.396L706.437 333.148ZM700.905 333.934C700.64 333.995 700.392 334.116 700.18 334.29C699.486 335.297 699.051 336.468 698.914 337.693L696.398 337.113C696.398 337.113 694.632 336.724 692.092 336.285L690.891 335.044C694.197 334.762 697.632 334.348 700.905 333.934Z" fill="url(#paint1_linear_130_54)"/>
<path d="M784.14 615.54L783.181 627.27L786.398 626.608L785.914 613.884L784.14 615.54Z" fill="#1D2366"/>
<path d="M710.742 559.841C706.864 571.183 707.961 586.49 708.831 593.924C709.154 596.673 709.452 598.345 709.452 598.345C709.452 598.345 703.655 611.905 703.171 612.419C702.687 612.932 686.11 623.321 686.11 623.321L674.523 630.267C674.523 630.267 662.767 624.977 668.403 623.156C669.555 622.681 670.592 621.955 671.443 621.028C677.087 615.523 684.175 601.838 684.175 601.838C684.175 601.838 684.658 594.893 686.432 591.59C688.206 588.286 687.561 553.574 687.561 553.574L687.698 496.99V489.614L709.751 489.779C709.89 492.283 710.208 494.774 710.702 497.23C711.494 501.47 712.519 505.66 713.774 509.78C717.66 522.687 716.048 544.302 710.742 559.841Z" fill="#FFB0B1"/>
<path opacity="0.1" d="M709.452 598.345C709.452 598.345 703.655 611.905 703.171 612.419C702.687 612.932 686.11 623.321 686.11 623.321L674.523 630.267C674.523 630.267 662.767 624.977 668.403 623.156C669.555 622.681 670.592 621.955 671.443 621.028L671.943 624.646L675.805 624.48L708.864 593.941C709.154 596.673 709.452 598.345 709.452 598.345Z" fill="black"/>
<path d="M709.049 594.711L675.805 625.457L671.943 625.623L671.137 619.828C671.137 619.828 664.38 628.752 649.366 628.256C649.366 628.256 640.352 634.373 653.712 634.705C667.073 635.036 684.134 634.208 684.134 634.208C684.134 634.208 696.051 615.167 706.025 617.651V632.031H709.089V617.518C710.514 616.534 711.73 615.263 712.664 613.784C713.598 612.304 714.23 610.646 714.524 608.908C714.789 607.119 714.601 605.289 713.979 603.596C713.356 601.902 712.319 600.402 710.968 599.239C710.365 598.658 709.883 597.957 709.553 597.178C709.223 596.399 709.052 595.56 709.049 594.711Z" fill="#1D2366"/>
<path d="M787.204 577.524C785.059 585.389 786.229 589.818 787.696 592.194V592.244C789.578 595.177 790.887 598.458 791.55 601.905L791.679 602.65L776.553 625.292L768.345 628.603C768.345 628.603 755.146 623.975 757.556 622.651C758.161 622.328 759.104 620.606 760.185 618.23C763.41 611.069 767.861 597.856 767.861 597.856V597.749C768.329 592.293 769.07 586.854 769.893 581.44C771.368 571.696 768.659 547.779 768.659 547.779C768.659 547.779 767.692 518.696 765.595 512.082C764.649 508.719 764.02 505.27 763.717 501.783C763.281 497.644 763.184 494.233 763.184 494.233C763.184 494.233 771.876 481.815 787.809 495.227C789.083 496.296 790.204 497.545 791.139 498.935C802.145 515.012 793.284 550.428 793.284 550.428C793.284 550.428 791.066 563.31 787.204 577.524Z" fill="#FFB0B1"/>
<path opacity="0.1" d="M791.703 602.65L776.577 625.292L768.369 628.603C768.369 628.603 755.17 623.975 757.581 622.651C758.185 622.328 759.129 620.606 760.209 618.23C765.797 618.18 768.691 623.644 768.691 623.644L775.771 622.485C775.771 622.485 785.108 603.643 787.204 602.493C789.301 601.342 787.527 593.891 787.527 593.891V591.995C787.583 592.061 787.632 592.136 787.696 592.202V592.252C789.578 595.185 790.887 598.467 791.55 601.913L791.703 602.65Z" fill="black"/>
<path d="M769.175 624.133C769.175 624.133 765.144 616.533 757.419 619.34C757.419 619.34 753.073 628.446 748.727 629.92C744.381 631.393 745.833 636.36 755.653 634.547C765.474 632.734 780.278 631.236 780.278 631.236L780.923 621.972L790.905 608.917C790.905 608.917 796.856 603.378 788.003 592.475V594.371C788.003 594.371 789.776 601.822 787.68 602.973C785.584 604.123 776.279 622.974 776.279 622.974L769.175 624.133Z" fill="#1D2366"/>
<path opacity="0.1" d="M709.775 489.763C709.914 492.267 710.232 494.757 710.726 497.213C701.647 495.847 693.221 496.526 687.698 496.973V489.597L709.775 489.763Z" fill="black"/>
<path opacity="0.1" d="M792.034 500.997C792.034 500.997 779.133 501.642 763.749 501.775C763.313 497.636 763.217 494.225 763.217 494.225C763.217 494.225 771.909 481.807 787.841 495.218C789.115 496.288 790.236 497.536 791.171 498.927C791.421 499.633 791.709 500.324 792.034 500.997Z" fill="black"/>
<path d="M792.034 499.507C792.034 499.507 735.528 502.313 718.305 497.354C701.083 492.395 684.013 496.692 681.441 495.541C678.869 494.39 680.957 476.368 683.215 471.906C685.473 467.443 697.857 422.317 697.857 422.317L709.775 358.522L722.329 354.97L723.216 354.714L745.091 348.521L761.12 343.976C761.12 343.976 792.993 471.74 790.26 481.161C789.267 484.769 789.107 488.564 789.792 492.246C790.21 494.761 790.964 497.204 792.034 499.507Z" fill="#1D2366"/>
<path d="M668.234 314.894C668.234 314.894 656.946 327.311 665.492 334.232C674.039 341.153 679.659 334.895 679.659 334.895L668.234 314.894Z" fill="#C7DAF5"/>
<path opacity="0.1" d="M668.234 314.894C668.234 314.894 656.946 327.311 665.492 334.232C674.039 341.153 679.659 334.895 679.659 334.895L668.234 314.894Z" fill="black"/>
<path d="M759.435 233.25C759.435 233.25 758.113 234.541 756.121 236.445C753.283 239.169 749.082 243.151 745.357 246.487C740.197 251.099 735.939 254.485 737.463 251.595C738.987 248.706 738.697 243.673 737.939 238.962C737.883 238.648 737.834 238.333 737.778 238.027C737.15 234.567 736.318 231.15 735.286 227.794C735.286 227.794 743.623 216.734 748.235 212.371C749.953 210.715 751.154 210.037 751.227 211.187C751.308 212.735 752.436 216.155 753.839 219.781C753.88 219.896 753.92 220.004 753.968 220.12C754.904 222.604 755.96 225.153 756.887 227.356C758.306 230.733 759.435 233.25 759.435 233.25Z" fill="#FFB0B1"/>
<path opacity="0.1" d="M753.968 220.12C753.185 224.447 751.284 228.478 748.464 231.793C745.644 235.107 742.009 237.583 737.939 238.962C737.298 235.183 736.412 231.452 735.286 227.794C735.286 227.794 750.985 206.974 751.227 211.187C751.283 212.785 752.509 216.328 753.968 220.12Z" fill="black"/>
<path opacity="0.1" d="M736.375 244.525L738.407 241.586C738.407 241.586 739.753 250.014 744.704 246.297C749.655 242.58 749.897 274.27 749.897 274.27L744.583 355.84L706.187 353.48L707.275 314.066L711.621 294.197L722.369 265.313L728.763 255.768L736.375 244.525Z" fill="black"/>
<path d="M749.897 274.775L745.059 348.53L744.551 356.345L723.143 355.028L722.337 354.979L706.211 353.985L707.299 314.562L711.645 294.694L722.393 265.81L728.787 256.264L736.399 244.981L738.431 242.05C738.431 242.05 739.777 250.478 744.728 246.761L744.833 246.686C749.671 243.54 749.897 274.775 749.897 274.775Z" fill="#1D2366"/>
<path d="M712.186 287.789C712.186 287.789 710.259 291.929 706.388 291.258C702.518 290.588 702.526 306.16 702.526 306.16C702.526 306.16 699.954 308.643 698.18 306.491C696.406 304.338 691.73 311.615 691.73 311.615L662.428 312.94C662.428 312.94 675.466 319.058 672.91 337.569C672.91 337.569 717.177 334.754 718.628 330.457C720.079 326.161 712.186 287.789 712.186 287.789Z" fill="white"/>
<path opacity="0.03" d="M712.186 287.789C712.186 287.789 710.259 291.929 706.388 291.258C702.518 290.588 702.526 306.16 702.526 306.16C702.526 306.16 699.954 308.643 698.18 306.491C696.406 304.338 691.73 311.615 691.73 311.615L662.428 312.94C662.428 312.94 675.466 319.058 672.91 337.569C672.91 337.569 717.177 334.754 718.628 330.457C720.079 326.161 712.186 287.789 712.186 287.789Z" fill="black"/>
<path d="M627.032 322.667L634.756 329.439L698.341 343.157L690.456 334.895L627.032 322.667Z" fill="white"/>
<path d="M736.496 247.133C735.439 248.789 732.416 257.266 729.892 264.667C727.788 270.835 726.03 276.257 726.03 276.257C726.03 276.257 721.926 303.693 719.829 308.651C717.733 313.61 718.87 332.949 718.87 332.949L711.057 380.708C711.057 380.708 707.517 405.337 702.05 420.048C696.656 434.528 690.649 441.316 690.464 441.531C692.883 438.17 706.066 371.991 706.066 371.991L710.42 288.526C710.42 288.526 711.057 280.595 711.702 273.815C712.347 267.035 725.409 257.779 725.409 257.779L738.004 239.393C739.269 241.131 738.423 244.161 736.496 247.133Z" fill="white"/>
<path d="M703.655 354.399C703.655 354.399 685.11 353.571 676.128 342.494C667.145 331.418 696.89 338.074 696.89 338.074L704.622 339.895L703.655 354.399Z" fill="#FFB0B1"/>
<path opacity="0.1" d="M790.26 481.169C789.267 484.777 789.107 488.572 789.792 492.254C769.562 493.728 747.921 488.115 747.921 488.115C743.89 491.923 733.27 497.536 733.27 497.536L727.481 423.857C723.78 413.922 722.329 361.875 722.329 361.875C722.329 361.875 722.66 359.151 723.135 355.07C723.135 354.97 723.135 354.863 723.176 354.763C724.619 343.364 727.481 321.963 728.884 319.074C730.819 315.1 722.934 304.529 722.934 304.529L726.522 273.111L726.957 269.32C734.52 265.851 740.318 254.774 740.318 254.774L744.768 246.769C749.606 243.582 749.856 274.817 749.856 274.817L745.018 348.571L761.048 344.026C761.048 344.026 792.993 471.748 790.26 481.169Z" fill="black"/>
<path d="M811.023 486.261C788.97 497.503 748.889 487.089 748.889 487.089C744.857 490.897 734.238 496.51 734.238 496.51L728.441 422.83C724.748 412.896 723.297 360.848 723.297 360.848C723.297 360.848 727.957 322.013 729.892 318.048C730.456 316.889 730.182 315.167 729.513 313.312C726.223 304.486 725.013 294.986 725.982 285.587L727.53 272.085L727.957 268.302C735.528 264.824 741.326 253.748 741.326 253.748L745.357 246.496L752.775 233.134L756.291 226.809L756.887 227.364L761.443 231.602C761.443 231.602 763.378 233.258 766.281 235.742C772.594 241.206 783.503 250.825 789.131 256.711C794.082 261.894 795.646 282.052 796.098 297.227C796.396 307.219 796.219 315.051 796.219 315.051C791.228 323.487 804.282 391.214 804.282 391.214C807.322 404.303 811.023 486.261 811.023 486.261Z" fill="white"/>
<path opacity="0.03" d="M768.692 253.582C768.692 253.582 753.557 283.162 755.315 294.404C757.073 305.646 762.072 318.371 759.661 321.343C758.833 322.469 757.762 323.383 756.532 324.013C755.303 324.643 753.948 324.973 752.573 324.977C750.155 325.142 743.704 329.77 743.704 330.267C743.704 330.764 737.745 330.764 732.416 333.082C727.086 335.4 719.217 336.716 719.217 336.716C719.217 336.716 703.897 336.219 702.47 337.709C701.042 339.2 699.575 348.116 702.631 355.227C705.687 362.338 709.081 367.645 711.645 368.613C714.209 369.582 730.481 363.986 743.68 362.661C756.879 361.337 771.207 350.599 771.207 350.599C771.207 350.599 786.987 344.804 789.752 335.06C792.518 325.316 786.374 271.762 786.374 271.762C786.374 271.762 781.729 246.802 768.692 253.582Z" fill="black"/>
<path opacity="0.03" d="M766.756 251.099C766.756 251.099 751.622 280.686 753.396 291.92C755.17 303.154 760.153 315.887 757.734 318.867C756.908 319.995 755.839 320.91 754.611 321.54C753.382 322.171 752.028 322.5 750.654 322.502C748.235 322.667 741.785 327.295 741.785 327.792C741.785 328.288 735.826 328.288 730.497 330.598C725.167 332.908 717.298 334.232 717.298 334.232C717.298 334.232 701.978 333.736 700.559 335.226C699.14 336.716 697.656 345.64 700.72 352.743C703.784 359.846 707.17 365.161 709.734 366.13C712.298 367.098 728.57 361.502 741.769 360.186C754.968 358.87 769.296 348.116 769.296 348.116C769.296 348.116 785.068 342.321 787.801 332.585C790.534 322.849 784.422 269.278 784.422 269.278C784.422 269.278 779.794 244.327 766.756 251.099Z" fill="black"/>
<path d="M768.216 252.092C768.216 252.092 753.081 281.68 754.855 292.914C756.629 304.148 761.612 316.88 759.201 319.852C758.376 320.982 757.306 321.9 756.076 322.532C754.846 323.164 753.489 323.494 752.114 323.495C749.695 323.661 743.245 328.288 743.245 328.777C743.245 329.265 737.294 329.273 731.956 331.591C726.618 333.91 718.757 335.226 718.757 335.226C718.757 335.226 703.437 334.729 702.01 336.219C700.583 337.709 699.115 346.634 702.171 353.737C705.227 360.84 708.622 366.155 711.186 367.123C713.75 368.092 730.021 362.496 743.22 361.171C756.42 359.846 770.748 349.109 770.748 349.109C770.748 349.109 786.527 343.314 789.293 333.57C792.058 323.826 785.954 270.272 785.954 270.272C785.954 270.272 781.246 245.353 768.216 252.092Z" fill="white"/>
<path opacity="0.1" d="M767.885 331.451C767.885 331.451 755.791 328.967 760 333.106C764.208 337.246 764.184 340.872 769.337 340.706C774.489 340.541 767.885 331.451 767.885 331.451Z" fill="black"/>
<path opacity="0.1" d="M788.325 420.512C788.325 420.512 782.858 424.312 793.316 433.071C803.774 441.829 788.325 420.512 788.325 420.512Z" fill="black"/>
<path opacity="0.1" d="M777.891 451.747C777.891 452.244 775.956 469.96 783.197 474.389C790.437 478.818 777.891 451.747 777.891 451.747Z" fill="black"/>
<path d="M662.928 312.898C657.091 313.105 644.48 314.935 651.019 327.46C656.801 338.546 666.517 331.136 671.983 325.515C670.65 320.274 667.409 315.758 662.928 312.898Z" fill="#FFB0B1"/>
<path opacity="0.1" d="M766.281 236.247C760.088 240.593 754.896 244.26 753.88 245.022C751.106 247.133 745.817 259.526 742.406 265.851C739.689 270.942 730.86 272.25 727.53 272.573L727.957 268.79C735.528 265.313 741.325 254.236 741.325 254.236L756.291 227.298L761.443 232.107C761.443 232.107 763.378 233.763 766.281 236.247Z" fill="black"/>
<path d="M766.281 235.75C760.088 240.096 754.896 243.764 753.88 244.534C751.106 246.636 745.817 259.029 742.406 265.354C739.689 270.446 730.86 271.754 727.53 272.077L727.957 268.293C735.528 264.816 741.325 253.739 741.325 253.739L756.291 226.801L761.443 231.594C761.443 231.594 763.378 233.233 766.281 235.75Z" fill="#DCE7FF"/>
<path d="M754.363 214.656C754.367 219.626 752.899 224.479 750.155 228.572C746.913 233.412 742.09 236.899 736.559 238.4C731.028 239.901 725.156 239.316 720.009 236.752C714.862 234.188 710.781 229.815 708.506 224.425C706.231 219.036 705.913 212.988 707.609 207.379C709.306 201.769 712.905 196.97 717.753 193.852C722.601 190.734 728.377 189.503 734.033 190.383C739.689 191.264 744.851 194.197 748.581 198.65C752.311 203.104 754.362 208.782 754.363 214.656Z" fill="#FFB0B1"/>
<path opacity="0.1" d="M796.098 297.235C792.823 295.167 790.157 292.226 788.381 288.725C787.035 285.993 786.14 282.839 783.842 280.902C781.77 279.163 779.004 278.741 776.424 277.963C767.942 275.388 760.83 267.441 760.564 258.367C760.435 254.095 761.733 249.832 761.144 245.602C760.81 243.207 759.883 240.941 758.451 239.02C757.741 238.101 756.962 237.24 756.121 236.445C754.992 235.353 753.807 234.293 752.775 233.134C752.125 232.416 751.557 231.625 751.082 230.775C750.698 230.079 750.387 229.343 750.155 228.581C748.542 223.514 750.009 217.504 748.235 212.379L748.139 212.098C747.47 210.277 746.107 208.455 744.212 208.315C742.317 208.174 740.697 209.788 738.89 210.509C735.109 212.015 731.029 209.449 727.876 206.833C724.724 204.217 721.168 201.228 717.16 201.808C714.508 202.197 712.411 204.051 709.968 205.012C709.417 205.231 708.847 205.4 708.267 205.517C710.335 200.222 714.133 195.833 719.01 193.102C723.888 190.371 729.539 189.47 734.993 190.552C740.448 191.634 745.365 194.633 748.899 199.034C752.434 203.434 754.366 208.961 754.363 214.664C754.366 216.387 754.19 218.105 753.839 219.789C753.88 219.905 753.92 220.012 753.968 220.128C754.904 222.612 755.96 225.162 756.887 227.364L761.443 231.602C761.443 231.602 763.378 233.258 766.281 235.742C772.594 241.206 783.503 250.825 789.131 256.711C794.082 261.91 795.63 282.061 796.098 297.235Z" fill="black"/>
<path d="M709.686 189.887C710.839 187.477 711.412 184.779 712.79 182.494C714.814 179.182 718.346 177.063 721.974 175.78C731.448 172.427 751.469 167.559 757.452 175.78C758.629 177.435 759.604 179.273 761.233 180.416C762.475 181.285 763.975 181.658 765.337 182.312C769.151 184.149 771.586 188.156 772.884 192.246C774.182 196.336 774.569 200.723 775.521 204.937C776.738 210.343 778.875 215.467 781.004 220.559C783.511 226.569 786.172 232.803 791.01 237.05C797.614 242.845 799.073 251.049 805.201 257.407C812.458 264.957 812.224 277.416 808.483 287.309C807.991 288.609 807.434 289.967 807.628 291.349C807.822 292.732 808.821 293.99 809.765 295.091L813.732 299.686C804.346 302.012 793.727 296.979 789.357 288.145C788.011 285.413 787.116 282.268 784.81 280.322C782.745 278.584 779.972 278.17 777.4 277.391C768.917 274.809 761.806 266.853 761.54 257.779C761.411 253.516 762.709 249.252 762.12 245.03C761.793 242.62 760.862 240.338 759.419 238.407C757.202 235.435 753.855 233.44 752.049 230.129C748.993 224.59 751.316 217.396 749.114 211.452C748.437 209.631 747.082 207.81 745.188 207.669C743.293 207.528 741.672 209.143 739.858 209.863C736.084 211.37 732.005 208.811 728.852 206.187C725.699 203.563 722.143 200.582 718.128 201.17C715.475 201.551 713.387 203.405 710.944 204.374C709.138 205.086 705.477 205.723 703.897 204.159C700.559 201.005 708.291 192.834 709.686 189.887Z" fill="#591D4B"/>
<path opacity="0.1" d="M791.599 285.413C790.244 282.681 789.357 279.536 787.051 277.598C784.987 275.86 782.213 275.438 779.633 274.659C771.159 272.085 764.047 264.129 763.773 255.056C763.644 250.792 764.942 246.52 764.362 242.298C764.024 239.904 763.094 237.638 761.66 235.717C759.435 232.745 756.089 230.75 754.291 227.438C751.235 221.908 753.557 214.714 751.348 208.762C750.679 206.949 749.316 205.127 747.429 204.978C745.542 204.829 743.906 206.46 742.099 207.181C738.326 208.687 734.238 206.121 731.093 203.505C727.949 200.889 724.377 197.9 720.37 198.48C717.717 198.869 715.62 200.723 713.185 201.684C711.379 202.395 707.711 203.041 706.13 201.477C702.808 198.165 710.541 190.011 711.928 187.08C713.081 184.663 713.653 181.972 715.04 179.687C715.112 179.563 715.193 179.439 715.274 179.315C714.236 180.197 713.341 181.242 712.621 182.411C711.242 184.696 710.67 187.378 709.517 189.804C708.122 192.734 700.389 200.914 703.719 204.2C705.332 205.773 708.96 205.127 710.766 204.415C713.185 203.447 715.298 201.592 717.951 201.212C721.982 200.624 725.53 203.612 728.674 206.228C731.819 208.844 735.931 211.411 739.689 209.904C741.495 209.184 743.075 207.561 745.01 207.71C746.945 207.859 748.235 209.672 748.937 211.494C751.138 217.438 748.816 224.632 751.872 230.17C753.678 233.424 757.024 235.46 759.242 238.449C760.684 240.38 761.615 242.661 761.943 245.072C762.531 249.294 761.233 253.557 761.362 257.821C761.628 266.927 768.74 274.85 777.222 277.433C779.778 278.211 782.568 278.625 784.632 280.363C786.946 282.309 787.857 285.455 789.18 288.187C793.55 297.02 804.169 302.053 813.554 299.727L811.684 297.558C803.548 297.682 795.316 292.93 791.599 285.413Z" fill="black"/>
<path opacity="0.1" d="M736.012 247.63C734.956 249.286 731.932 257.763 729.408 265.164C727.046 264.22 724.901 258.202 724.901 258.202L737.496 239.807C738.786 241.628 737.939 244.65 736.012 247.63Z" fill="black"/>
<path d="M736.496 247.133C735.439 248.789 732.416 257.266 729.892 264.667C727.53 263.732 725.385 257.705 725.385 257.705L737.979 239.318C739.269 241.131 738.423 244.161 736.496 247.133Z" fill="#DCE7FF"/>
<path d="M663.267 331.707L656.284 309.099C656.202 308.834 656.171 308.555 656.193 308.278C656.216 308.001 656.292 307.731 656.416 307.484C656.54 307.237 656.711 307.018 656.918 306.839C657.125 306.66 657.365 306.525 657.623 306.441C658.142 306.275 658.705 306.325 659.188 306.583C659.672 306.84 660.036 307.283 660.203 307.815L667.186 330.399L666.492 335.126L663.267 331.707Z" fill="#BE8B87"/>
<path opacity="0.1" d="M656.946 307.112C657.466 306.943 658.031 306.992 658.516 307.25C659.001 307.507 659.367 307.952 659.534 308.486L666.516 331.07L665.992 334.613L666.5 335.16L667.194 330.432L660.171 307.848C660.004 307.316 659.639 306.873 659.156 306.616C658.673 306.359 658.11 306.308 657.591 306.474C657.153 306.62 656.776 306.911 656.518 307.302C656.655 307.227 656.798 307.163 656.946 307.112Z" fill="white"/>
<path d="M663.267 331.707L667.186 330.433L666.613 334.307L666.492 335.16L665.347 333.934L663.267 331.707Z" fill="#EFC8C4"/>
<path d="M665.347 333.934C665.415 333.846 665.501 333.773 665.597 333.719C665.654 333.682 665.72 333.663 665.787 333.663C665.854 333.663 665.92 333.682 665.976 333.719C666.031 333.787 666.077 333.862 666.113 333.943C666.167 334.034 666.239 334.112 666.326 334.171C666.412 334.229 666.51 334.267 666.613 334.282L666.492 335.11L665.347 333.934Z" fill="#727A9C"/>
<path d="M656.244 317.129C656.244 317.129 670.25 317.046 666.952 323.164C663.654 329.282 658.502 330.019 658.502 330.019L656.244 317.129Z" fill="#FFB0B1"/>
<path d="M569.139 42.5686H568.534C544.474 42.5686 523.196 55.6405 510.956 74.9297C498.716 55.6405 477.438 42.5686 453.378 42.5686H452.773C434.716 42.7453 417.457 50.2313 404.746 63.3999C392.036 76.5684 384.9 94.3554 384.89 112.895C384.89 135.918 394.711 168.586 413.861 195.466C450.346 246.686 510.956 291.498 510.956 291.498C510.956 291.498 571.566 246.694 608.043 195.466C627.201 168.586 637.014 135.918 637.014 112.895C637.004 94.3568 629.869 76.5711 617.16 63.4027C604.451 50.2344 587.194 42.7474 569.139 42.5686ZM560.487 199.407C557.747 199.396 555.074 198.535 552.819 196.936C550.564 195.338 548.833 193.077 547.852 190.449H533.468C532.521 190.443 531.599 190.134 530.831 189.564C530.064 188.994 529.489 188.192 529.186 187.27L524.768 173.602L510.787 223.763C510.514 224.728 509.944 225.577 509.162 226.182C508.38 226.786 507.428 227.114 506.449 227.115H506.166C505.145 227.065 504.171 226.656 503.408 225.956C502.645 225.257 502.139 224.31 501.974 223.274L487.565 134.296L477.035 186.948C476.793 187.948 476.232 188.836 475.442 189.471C474.651 190.106 473.676 190.45 472.673 190.449H452.41C451.803 190.476 451.196 190.376 450.628 190.155C450.059 189.935 449.539 189.599 449.1 189.167C448.662 188.735 448.312 188.216 448.074 187.642C447.835 187.068 447.712 186.45 447.712 185.826C447.712 185.202 447.835 184.584 448.074 184.01C448.312 183.436 448.662 182.917 449.1 182.485C449.539 182.053 450.059 181.717 450.628 181.496C451.196 181.276 451.803 181.176 452.41 181.202H469.125L484.041 110.412C484.286 109.365 484.878 108.438 485.714 107.79C486.551 107.141 487.581 106.811 488.629 106.856C489.676 106.901 490.676 107.318 491.457 108.036C492.238 108.754 492.752 109.729 492.911 110.793L507.626 201.559L520.156 156.681C520.417 155.736 520.968 154.903 521.728 154.306C522.488 153.709 523.416 153.381 524.373 153.37H524.462C525.409 153.37 526.332 153.677 527.1 154.248C527.867 154.819 528.439 155.624 528.735 156.549L536.725 181.227H547.675C548.454 178.799 549.87 176.638 551.769 174.984C553.668 173.331 555.975 172.247 558.436 171.855C560.896 171.462 563.414 171.775 565.712 172.759C568.011 173.743 569.999 175.36 571.459 177.431C572.919 179.502 573.793 181.947 573.985 184.496C574.177 187.045 573.679 189.599 572.546 191.876C571.414 194.153 569.69 196.064 567.567 197.399C565.443 198.734 563.001 199.44 560.511 199.44L560.487 199.407Z" fill="#019874"/>
</g>
<defs>
<linearGradient id="paint0_linear_130_54" x1="287.311" y1="641.485" x2="287.311" y2="132.069" gradientUnits="userSpaceOnUse">
<stop stop-color="#808080" stop-opacity="0.25"/>
<stop offset="0.54" stop-color="#808080" stop-opacity="0.12"/>
<stop offset="1" stop-color="#808080" stop-opacity="0.1"/>
</linearGradient>
<linearGradient id="paint1_linear_130_54" x1="720.378" y1="635.044" x2="720.378" y2="169.786" gradientUnits="userSpaceOnUse">
<stop stop-color="#808080" stop-opacity="0.25"/>
<stop offset="0.54" stop-color="#808080" stop-opacity="0.12"/>
<stop offset="1" stop-color="#808080" stop-opacity="0.1"/>
</linearGradient>
<clipPath id="clip0_130_54">
<rect width="891" height="648" fill="white"/>
</clipPath>
</defs>
</svg>
