<svg width="668" height="475" viewBox="0 0 668 475" fill="none" xmlns="http://www.w3.org/2000/svg">
<g clip-path="url(#clip0_130_281)">
<path d="M313.245 460.547C313.245 467.806 243.035 468.579 156.622 473.691C70.2907 478.798 0 467.806 0 460.547C0 453.287 70.6145 438.68 156.622 447.402C243.035 456.165 313.245 453.287 313.245 460.547Z" fill="#E6E6E6"/>
<path d="M643.497 0.000791905H457.853C448.894 0.00078269 440.203 2.88553 433.206 8.18084C426.21 13.4761 421.325 20.8669 419.355 29.1382L325.552 422.938C324.529 427.233 324.511 431.688 325.499 435.991C326.488 440.293 328.459 444.339 331.274 447.845C334.089 451.35 337.68 454.231 341.795 456.284C345.911 458.337 350.451 459.513 355.097 459.729L545.941 468.629C556.16 469.106 566.213 466.047 574.225 460.023C582.236 454 587.658 445.423 589.479 435.894L642.69 157.473L646.648 158.544L656.83 105.773L652.755 104.808L667.608 27.0911C668.244 23.7623 668.096 20.3417 667.176 17.0731C666.255 13.8045 664.584 10.7683 662.281 8.18114C659.978 5.59395 657.101 3.51942 653.854 2.10543C650.607 0.691439 647.071 -0.0271856 643.497 0.000786334L643.497 0.000791905Z" fill="#3F3D56"/>
<path d="M482.292 8.49006H460.622C454.399 8.49006 448.363 10.5045 443.516 14.1991C438.669 17.8936 435.303 23.046 433.976 28.8008L343.939 419.387C343.42 421.636 343.421 423.964 343.94 426.213C344.46 428.462 345.486 430.578 346.948 432.417C348.411 434.255 350.275 435.774 352.415 436.868C354.554 437.963 356.918 438.607 359.344 438.758L549.571 450.558C554.937 450.891 560.245 449.342 564.482 446.206C568.719 443.071 571.588 438.569 572.541 433.559L649.371 29.85C649.868 27.237 649.753 24.5526 649.035 21.9861C648.316 19.4197 647.011 17.0338 645.212 14.9968C643.413 12.9598 641.164 11.3213 638.622 10.197C636.081 9.07276 633.31 8.49006 630.505 8.49006H609.947C607.958 8.49006 606.023 9.11089 604.444 10.2564C602.865 11.4019 601.729 13.0083 601.211 14.8267V14.8267C600.755 16.4321 599.752 17.8502 598.358 18.8615C596.963 19.8728 595.256 20.4209 593.499 20.4209H495.905C492.465 20.4209 489.152 19.1921 486.629 16.9801C484.105 14.7681 482.556 11.736 482.292 8.49005V8.49006Z" fill="white"/>
<path d="M278.671 209.395L295.444 240.823L345.595 262.402C350.95 270.969 367.969 271.625 369.206 266.085C370.595 259.87 348.54 249.867 348.54 249.867L306.593 223.013L302.923 199.895L278.671 209.395Z" fill="#A0616A"/>
<path d="M280.65 420.302L277.557 443.723L295.497 444.894L297.353 420.302H280.65Z" fill="#A0616A"/>
<path d="M283.125 440.21C281.521 438.605 280.041 436.892 278.698 435.086C276.126 431.718 273.845 448.993 273.845 448.993C273.845 448.993 271.371 456.019 271.989 459.532C272.608 463.045 286.836 463.045 289.311 462.46C291.786 461.874 304.158 462.46 304.158 462.46H322.717C338.802 455.434 322.717 450.749 322.717 450.749C317.768 450.164 301.065 435.525 301.065 435.525L297.353 429.085C294.879 428.499 292.404 437.282 292.404 437.282L283.125 440.21Z" fill="#2F2E41"/>
<path d="M234.252 420.594L231.159 444.016L249.099 445.187L250.955 420.594H234.252Z" fill="#A0616A"/>
<path d="M236.727 440.502C235.123 438.897 233.644 437.185 232.3 435.378C229.729 432.011 227.447 449.285 227.447 449.285C227.447 449.285 224.973 455.726 225.591 459.239C226.21 462.753 240.439 462.753 242.913 462.167C245.388 461.582 257.761 462.753 257.761 462.753H276.32C292.404 455.726 276.32 451.042 276.32 451.042C271.371 450.456 254.667 435.818 254.667 435.818L250.955 429.377C248.481 428.792 246.006 437.575 246.006 437.575L236.727 440.502Z" fill="#2F2E41"/>
<path d="M254.667 269.528C252.193 272.455 253.43 282.409 253.43 282.409C253.43 282.409 249.1 314.614 250.955 317.541C252.811 320.469 249.718 322.811 247.862 326.91C246.006 331.009 244.15 340.963 244.15 340.963C233.634 349.16 234.252 386.634 234.252 386.634L230.54 420.009C231.778 423.522 249.099 424.108 251.574 423.522C254.049 422.937 261.472 370.239 261.472 370.239L278.175 340.377C278.175 340.377 276.938 420.009 276.938 423.522C276.938 427.035 293.641 425.279 297.353 425.279C301.065 425.279 301.065 366.726 301.065 366.726L304.777 351.502L324.573 281.824V273.627L321.48 269.528C321.48 269.528 257.142 266.6 254.667 269.528Z" fill="#2F2E41"/>
<path d="M281.887 136.613C292.479 136.613 301.065 128.486 301.065 118.461C301.065 108.436 292.479 100.31 281.887 100.31C271.296 100.31 262.71 108.436 262.71 118.461C262.71 128.486 271.296 136.613 281.887 136.613Z" fill="#A0616A"/>
<path d="M291.476 126.951C287.589 135.144 289.891 146.588 297.663 159.155L266.112 145.103L271.061 141.004L269.824 129.293L291.476 126.951Z" fill="#A0616A"/>
<path d="M291.476 145.688C295.608 148.013 298.079 152.285 299.498 156.631C302.125 164.679 303.706 172.999 304.206 181.408L305.705 206.584L324.264 273.334C308.179 286.216 298.9 283.288 277.248 272.748C255.595 262.209 253.121 276.262 253.121 276.262C253.121 276.262 251.265 275.676 253.121 273.919C254.977 272.163 253.121 273.919 251.265 272.163C249.409 270.406 251.265 272.163 251.884 270.406C252.502 268.65 251.884 269.821 251.265 269.235C250.646 268.65 253.739 263.38 253.739 263.38L248.79 219.465L242.604 157.399C250.028 148.616 271.061 141.004 271.061 141.004L290.239 153.886C296.425 156.228 291.476 146.859 291.476 146.859L291.476 145.688Z" fill="#06A881"/>
<path d="M232.396 194.58L229.922 229.712L261.472 272.455C261.472 282.41 267.04 284.752 267.04 284.752C269.149 281.566 271.01 278.239 272.608 274.798C275.701 268.357 270.752 263.087 270.752 263.087L249.1 219.758L258.379 198.093L232.396 194.58Z" fill="#A0616A"/>
<path d="M242.913 157.692C232.396 161.205 230.541 199.264 230.541 199.264C242.913 192.823 257.761 203.363 257.761 203.363C257.761 203.363 260.854 193.409 264.566 180.527C265.686 176.904 265.82 173.071 264.955 169.385C264.09 165.7 262.253 162.281 259.616 159.448C259.616 159.448 253.43 154.179 242.913 157.692Z" fill="#06A881"/>
<path d="M264.256 124.024C266.698 122.175 270.028 125.535 270.028 125.535L271.981 108.898C271.981 108.898 284.188 110.284 292.001 108.436C299.814 106.587 301.034 115.137 301.034 115.137C301.437 111.684 301.519 108.205 301.278 104.738C300.79 100.579 294.442 96.4197 283.212 93.6468C271.981 90.8739 266.122 102.89 266.122 102.89C258.31 106.587 261.815 125.872 264.256 124.024Z" fill="#2F2E41"/>
<path d="M590.246 281.544C590.618 281.557 590.983 281.444 591.275 281.224C591.568 281.005 591.767 280.694 591.838 280.348L634.493 60.6037C634.534 60.3946 634.525 60.1795 634.469 59.9736C634.413 59.7677 634.31 59.5759 634.167 59.4117C634.024 59.2475 633.845 59.1148 633.642 59.0228C633.44 58.9309 633.218 58.8819 632.994 58.8794L438.932 56.7396H438.914C438.564 56.7408 438.224 56.8543 437.951 57.0615C437.677 57.2687 437.486 57.5574 437.408 57.8806L387.124 270.492C387.074 270.7 387.074 270.915 387.122 271.123C387.17 271.331 387.266 271.527 387.402 271.696C387.538 271.865 387.712 272.004 387.911 272.103C388.11 272.202 388.329 272.259 388.554 272.269L590.246 281.544Z" fill="#E6E6E6"/>
<path d="M421.361 295.58C421.187 295.58 421.018 295.636 420.882 295.739C420.745 295.841 420.65 295.985 420.611 296.145L418.818 303.415C418.793 303.518 418.792 303.625 418.814 303.729C418.837 303.832 418.883 303.93 418.949 304.015C419.015 304.1 419.1 304.17 419.198 304.221C419.296 304.272 419.404 304.302 419.515 304.31L520.764 311.121C520.952 311.132 521.138 311.079 521.287 310.97C521.436 310.862 521.539 310.706 521.576 310.532L523.3 302.12C523.321 302.018 523.319 301.913 523.293 301.812C523.268 301.711 523.22 301.616 523.152 301.534C523.085 301.452 523 301.384 522.903 301.335C522.805 301.287 522.698 301.259 522.589 301.253L421.408 295.582C421.392 295.581 421.376 295.58 421.361 295.58Z" fill="#E6E6E6"/>
<path d="M544.372 338.135C544.554 338.148 544.736 338.1 544.884 337.998C545.033 337.897 545.139 337.749 545.183 337.581L547.377 329.152C547.404 329.048 547.406 328.941 547.385 328.836C547.363 328.732 547.317 328.633 547.251 328.547C547.184 328.461 547.099 328.389 547.001 328.338C546.902 328.286 546.793 328.256 546.681 328.248L417.382 319.689C417.206 319.676 417.031 319.721 416.887 319.816C416.742 319.91 416.636 320.05 416.588 320.21L414.308 327.494C414.275 327.598 414.267 327.708 414.285 327.815C414.303 327.923 414.346 328.025 414.411 328.114C414.476 328.204 414.561 328.279 414.661 328.333C414.76 328.387 414.871 328.42 414.986 328.429L544.372 338.135Z" fill="#E6E6E6"/>
<path d="M537.428 365.154C537.611 365.167 537.793 365.119 537.941 365.018C538.09 364.917 538.195 364.769 538.239 364.6L540.433 356.171C540.46 356.068 540.462 355.96 540.441 355.855C540.419 355.751 540.373 355.652 540.307 355.566C540.241 355.48 540.155 355.409 540.057 355.357C539.958 355.305 539.849 355.275 539.737 355.267L410.438 346.708C410.262 346.695 410.087 346.74 409.943 346.835C409.798 346.93 409.693 347.069 409.644 347.229L407.364 354.513C407.331 354.617 407.324 354.727 407.341 354.834C407.359 354.942 407.402 355.044 407.467 355.133C407.532 355.223 407.617 355.298 407.717 355.352C407.816 355.407 407.927 355.439 408.042 355.448L537.428 365.154Z" fill="#E6E6E6"/>
<path d="M477.878 411.506C478.062 411.524 478.247 411.478 478.398 411.377C478.549 411.276 478.656 411.126 478.699 410.955L483.338 393.392C483.365 393.29 483.369 393.183 483.348 393.079C483.327 392.975 483.282 392.876 483.217 392.79C483.152 392.704 483.068 392.632 482.971 392.58C482.874 392.527 482.766 392.496 482.654 392.487L403.251 386.166C403.065 386.154 402.881 386.204 402.732 386.308C402.582 386.412 402.476 386.564 402.433 386.735L398.475 403.591C398.452 403.692 398.451 403.797 398.473 403.898C398.496 404 398.54 404.095 398.605 404.179C398.669 404.263 398.752 404.333 398.847 404.384C398.942 404.435 399.047 404.467 399.156 404.477L477.878 411.506Z" fill="#06A881"/>
</g>
<defs>
<clipPath id="clip0_130_281">
<rect width="668" height="475" fill="white"/>
</clipPath>
</defs>
</svg>
