<svg width="86" height="14" viewBox="0 0 86 14" fill="none" xmlns="http://www.w3.org/2000/svg">
<path opacity="0.1" d="M2.27238 7.47081C2.27238 6.97657 2.73101 6.573 3.29119 6.573H2.39905C2.24763 6.90028 2.10203 7.23014 1.96226 7.56258C1.93496 7.62781 1.90766 7.69415 1.88145 7.76049C1.84651 7.84674 1.81157 7.93409 1.77226 8.02143C1.75588 8.06234 1.74059 8.10215 1.7253 8.14306C1.69582 8.21825 1.66743 8.29454 1.63904 8.36972H3.27699C2.73101 8.36972 2.27238 7.96504 2.27238 7.47081ZM85.6245 12.6852C85.6114 12.5746 85.5972 12.464 85.5819 12.3535C85.5819 12.3203 85.5732 12.2871 85.5688 12.2551C85.5557 12.1589 85.5415 12.0638 85.5273 11.9687C85.5273 11.9444 85.5207 11.9201 85.5164 11.8957C85.5022 11.7962 85.4858 11.6978 85.4694 11.5983C85.4443 11.4424 85.417 11.2865 85.3886 11.1306C85.3711 11.0322 85.3526 10.9349 85.3329 10.8365C85.3034 10.6817 85.2718 10.5269 85.239 10.3732L85.203 10.2063C85.1844 10.1189 85.1648 10.0327 85.1451 9.94531C85.1451 9.93868 85.1451 9.93205 85.1451 9.92431C85.116 9.79752 85.0854 9.67037 85.0534 9.54285C85.0217 9.41127 84.9879 9.27969 84.9529 9.14922C84.9289 9.05414 84.9027 8.96015 84.8765 8.86507C84.8612 8.80868 84.8459 8.7545 84.8295 8.697C84.7662 8.47587 84.7003 8.25473 84.6319 8.0336C84.6133 7.97168 84.5937 7.91087 84.574 7.85005C84.5544 7.78924 84.526 7.70189 84.5008 7.62892C84.4681 7.5272 84.4342 7.42658 84.3993 7.32707C84.3774 7.26183 84.3545 7.1966 84.3316 7.13136C84.3087 7.06613 84.2792 6.9821 84.2519 6.91023C84.1354 6.58737 84.012 6.26709 83.8817 5.94939C83.8457 5.86094 83.8096 5.77359 83.7725 5.68624C83.7135 5.54582 83.6524 5.4054 83.5912 5.26609C83.5443 5.16105 83.4973 5.05601 83.4493 4.95097L83.4351 4.92001C83.399 4.8404 83.3619 4.7619 83.3259 4.68229C83.2986 4.62258 83.2713 4.56398 83.2418 4.50538C83.0685 4.14493 82.8866 3.78816 82.6958 3.43508C82.6369 3.32452 82.5757 3.21395 82.5145 3.10338C82.4534 2.99281 82.3802 2.86455 82.3104 2.74514C82.2405 2.62573 82.1717 2.50742 82.1007 2.39022C82.0297 2.27302 81.9576 2.15471 81.8823 2.03751C81.7349 1.8031 81.5853 1.57202 81.4313 1.34203C81.3538 1.23147 81.2752 1.11205 81.1965 0.998169L4.65833 2.6401C4.35585 3.07353 4.06757 3.5158 3.79458 3.96691C3.73889 4.05647 3.68539 4.14714 3.63188 4.2367C3.57837 4.32626 3.52268 4.41692 3.47354 4.50759C3.42441 4.59826 3.36435 4.68892 3.31848 4.77959H13.6332C14.1945 4.77959 14.6531 5.18426 14.6531 5.6785C14.6531 6.17274 14.1945 6.57742 13.6332 6.57742H15.0899C15.6512 6.57742 16.1098 6.98099 16.1098 7.47523C16.1098 7.96947 15.6512 8.37415 15.0899 8.37415H13.0512C13.6114 8.37415 14.0711 8.77882 14.0711 9.27306C14.0711 9.7673 13.6114 10.1709 13.0512 10.1709H1.25794C1.19202 10.1712 1.12622 10.1652 1.06139 10.1532C1.02535 10.277 0.989316 10.3997 0.952189 10.5236C0.915062 10.6474 0.885579 10.7657 0.853912 10.8874C0.839716 10.9393 0.826613 10.9924 0.81351 11.0455C0.776383 11.1892 0.74144 11.3329 0.704313 11.4778C0.686841 11.5452 0.671554 11.6127 0.656266 11.6801C0.640978 11.7476 0.626783 11.8095 0.612587 11.8747C0.58092 12.0174 0.551437 12.16 0.521954 12.3037C0.504483 12.39 0.487011 12.4773 0.470632 12.5636C0.432049 12.7582 0.39565 12.9528 0.361435 13.1474H85.6758C85.6594 12.9903 85.643 12.8378 85.6245 12.6852Z" fill="#6D4FFF"/>
</svg>
