<svg width="9" height="5" viewBox="0 0 9 5" fill="none" xmlns="http://www.w3.org/2000/svg">
<path d="M5.61552 4.61451C5.5369 4.60235 5.49104 4.59239 5.49104 4.59239C4.5312 4.10037 1.97053 4.38785 1.57961 4.32814C1.18868 4.26844 0.346779 4.20762 0.346779 4.20762C0.346779 4.20762 -0.0900065 1.84368 0.191721 1.75965C0.367892 1.70514 0.527305 1.60578 0.654715 1.47107C1.11662 1.18359 3.6893 1.09956 4.02125 1.0874C4.13191 1.0903 4.24083 1.05906 4.33356 0.997842C4.36756 0.975583 4.39477 0.944192 4.41217 0.907175C5.02804 0.523505 6.30784 0.655078 6.30784 0.655078C6.30784 0.655078 8.06263 0.89501 8.15763 3.03228C8.2428 4.89646 6.15277 4.69522 5.61552 4.61451Z" fill="#4A4A76"/>
</svg>
