<svg width="9" height="12" viewBox="0 0 9 12" fill="none" xmlns="http://www.w3.org/2000/svg">
<path d="M7.97137 9.59939C7.97137 9.59939 7.17205 7.22219 6.12267 6.39293C6.12267 6.39293 5.1399 3.90847 5.09076 3.43966C5.04162 2.97085 4.6103 2.28091 4.6103 2.28091C4.6103 2.28091 3.16999 0.361455 1.30272 0.290691C-0.564542 0.219928 1.48071 1.15423 1.48071 1.15423C1.48071 1.15423 0.733807 3.06262 2.97453 3.76584C2.97453 3.76584 3.54344 4.46794 3.62971 5.02631C3.71597 5.58468 4.39408 7.56937 4.39408 7.56937C4.39408 7.56937 5.1945 10.6653 6.89251 11.8008C6.89578 11.7964 8.77178 11.887 7.97137 9.59939Z" fill="#FFB9B9"/>
</svg>
