<svg width="9" height="6" viewBox="0 0 9 6" fill="none" xmlns="http://www.w3.org/2000/svg">
<path d="M0.549257 3.03413C0.442144 3.26205 0.377013 3.50785 0.357069 3.75945C0.348406 3.88536 0.372846 4.01133 0.427896 4.12456C0.482946 4.23779 0.56664 4.33424 0.670463 4.40407C0.775218 4.45723 0.889759 4.48773 1.00679 4.49363C1.58553 4.54891 2.15991 4.38306 2.73429 4.28687C3.43642 4.17077 4.18551 4.16966 4.82977 4.47704C5.18903 4.64731 5.49915 4.90604 5.82019 5.14045C6.14123 5.37485 6.48629 5.5982 6.87612 5.67781C7.26595 5.75742 7.7082 5.67007 7.96809 5.36711C8.19303 5.10839 8.24981 4.73909 8.23999 4.39301C8.19507 3.45373 7.78763 2.56987 7.10543 1.93177C6.42244 1.30133 5.57002 0.890358 4.65615 0.75091C4.29819 0.67247 3.92809 0.669686 3.56902 0.742744C3.20996 0.815802 2.86965 0.963125 2.5694 1.17549C1.96819 1.55202 1.44491 2.04319 1.02863 2.62171C0.91251 2.80225 0.778202 2.9701 0.627875 3.12258C0.552438 3.19893 0.461816 3.25813 0.362028 3.29626C0.26224 3.33439 0.155575 3.35057 0.0491333 3.34372" fill="#4A4A76"/>
</svg>
