<svg width="7" height="18" viewBox="0 0 7 18" fill="none" xmlns="http://www.w3.org/2000/svg">
<path d="M6.77251 0.33374L6.67423 0.6566L6.60216 0.896533C6.59343 0.919752 6.58687 0.942969 6.58032 0.966188C6.17739 2.27531 5.72313 3.69721 5.22082 5.20425C5.12691 5.49062 5.02973 5.7792 4.93145 6.0711C4.56128 7.16904 4.16707 8.30789 3.75431 9.4777C3.69753 9.64244 3.63856 9.8094 3.5796 9.97304L3.56868 9.99958C3.4704 10.2782 3.36994 10.5524 3.26838 10.8388C2.88401 11.9076 2.48362 12.9971 2.06722 14.1072C1.95802 14.4157 1.83572 14.7241 1.71779 15.0348C1.62825 15.2714 1.53761 15.5103 1.44589 15.7491C1.42405 15.8088 1.40112 15.8685 1.37709 15.9282C1.17836 16.4479 0.976343 16.9705 0.771053 17.4961L0.507889 17.2749C0.681148 16.8327 0.852951 16.3926 1.0233 15.9548C1.0768 15.8165 1.13249 15.6794 1.18272 15.5423C1.29192 15.2538 1.40112 14.9674 1.51031 14.6821L1.52014 14.6567C1.59731 14.4532 1.67484 14.2509 1.75273 14.0497C2.18952 12.9053 2.61102 11.7808 3.01614 10.684L3.16356 10.2815C3.21379 10.1444 3.26402 10.0084 3.31315 9.87242C3.39287 9.65128 3.47149 9.44121 3.54902 9.22671C3.96506 8.07901 4.36035 6.96338 4.73162 5.88756C4.82699 5.6104 4.92053 5.3362 5.01226 5.06494C5.47962 3.6939 5.90439 2.39251 6.28112 1.17627C6.35101 0.955134 6.41762 0.733996 6.48314 0.5206C6.48314 0.505121 6.49297 0.489643 6.49733 0.474163L6.65021 0.395661L6.77251 0.33374Z" fill="#444053"/>
</svg>
