<svg width="8" height="5" viewBox="0 0 8 5" fill="none" xmlns="http://www.w3.org/2000/svg">
<path opacity="0.1" d="M6.66779 4.84281C6.66779 4.84281 5.63588 4.91468 5.40548 4.84281C5.17507 4.77094 4.10712 4.12191 4.10712 4.12191C4.10712 4.12191 3.41372 3.87203 2.61768 3.60445C1.731 3.30703 0.717658 2.98859 0.390068 2.96979L0.290695 2.92114L0.443573 1.79888L2.34687 0.847999C2.34687 0.847999 2.59366 0.737429 2.90705 0.58374L3.53821 1.01053C3.53821 1.01053 5.01346 2.0366 5.45789 2.07309C5.84881 2.10405 6.80101 2.27432 7.06418 2.30307C7.08592 2.30596 7.10794 2.30596 7.12969 2.30307C7.1832 2.28538 6.66779 4.84281 6.66779 4.84281Z" fill="black"/>
</svg>
