<svg width="7" height="19" viewBox="0 0 7 19" fill="none" xmlns="http://www.w3.org/2000/svg">
<path d="M6.86836 1.46408C6.81485 2.10205 6.71439 3.0264 6.71439 3.0264V5.34832C6.71439 5.52855 6.25139 7.74322 6.25139 7.74322L5.9238 8.93182C5.9238 8.93182 5.96858 9.97669 5.45208 10.8225C4.93558 11.6684 4.59924 12.8028 4.13625 13.433C3.67326 14.0633 2.89141 15.2021 2.89141 15.2021C2.89141 15.2021 1.40851 19.1417 1.01759 18.1333C0.626665 17.1249 0.839602 15.8998 1.7645 14.1528C2.6894 12.4059 3.02791 11.3621 3.02791 11.3621C3.02791 11.3621 3.68309 9.87054 3.73113 9.40063C3.77918 8.93072 4.09475 6.21849 4.09475 6.21849C4.09475 6.21849 4.69424 4.45715 4.57194 2.52332C4.57194 2.45034 4.72592 2.37847 4.71936 2.30218C4.52172 0.285427 6.88582 0.870329 6.88582 0.870329C6.90026 1.06833 6.89441 1.2673 6.86836 1.46408Z" fill="#FFB9B9"/>
</svg>
