<svg width="1" height="13" viewBox="0 0 1 13" fill="none" xmlns="http://www.w3.org/2000/svg">
<path d="M0.524874 5.96893C0.524874 6.26857 0.524874 6.57263 0.524874 6.8789C0.51723 8.03875 0.501942 9.24505 0.476827 10.4878C0.476827 10.6625 0.469186 10.8372 0.46591 11.013C0.465365 11.0215 0.465365 11.03 0.46591 11.0385C0.459358 11.3333 0.452077 11.6315 0.444069 11.933C0.436061 12.2344 0.427327 12.5473 0.417863 12.8717C0.320678 12.8407 0.223489 12.8075 0.127396 12.7744C0.138315 12.4692 0.14924 12.1655 0.16016 11.8633C0.16016 11.7207 0.169988 11.5791 0.174356 11.4376C0.178724 11.2961 0.184183 11.1424 0.187459 10.9953C0.195467 10.7654 0.202741 10.5365 0.209293 10.3087C0.244236 9.08583 0.269352 7.90055 0.284639 6.7617C0.284639 6.46685 0.287553 6.17753 0.293377 5.89374C0.306481 4.44309 0.302112 3.07205 0.279181 1.7961C0.274813 1.55948 0.269715 1.32655 0.263892 1.09731C0.263892 1.08515 0.263892 1.07409 0.263892 1.06193L0.385105 0.938091L0.475734 0.845215C0.475734 0.955783 0.475736 1.06635 0.484471 1.18466C0.484471 1.26648 0.484471 1.3483 0.484471 1.43122C0.484471 1.45665 0.484471 1.48098 0.484471 1.50641C0.515046 2.87966 0.529241 4.37675 0.524874 5.96893Z" fill="#444053"/>
</svg>
