<svg width="26" height="36" viewBox="0 0 26 36" fill="none" xmlns="http://www.w3.org/2000/svg">
<path d="M21.9846 24.4583C21.9846 24.4583 19.104 25.4214 18.997 25.6746C18.95 25.7852 18.428 26.0317 17.8537 26.275C17.9279 25.9543 17.8602 25.553 17.7707 25.4203C17.7499 25.3893 17.7106 25.3407 17.6615 25.2799C17.9017 24.7403 18.143 24.1399 18.4455 23.639C18.962 22.7854 18.9172 21.7306 18.9172 21.7306L19.2448 20.5321C19.2448 20.5321 19.7078 18.2964 19.7078 18.1151V15.771C19.7078 15.771 19.7439 15.4294 19.7854 15.0181C20.2133 14.6499 20.5313 14.1682 20.7037 13.6271L20.3696 13.2235C20.4678 13.1065 20.5451 12.9729 20.5978 12.8288C20.6569 12.6631 20.6847 12.4875 20.6797 12.3114C20.6793 12.2088 20.6713 12.1064 20.6557 12.0051C20.6552 12.0084 20.6552 12.0117 20.6557 12.015C20.6049 11.7413 20.5228 11.4745 20.4111 11.2201C20.1927 10.7114 19.9295 10.205 19.9055 9.6522C19.8422 8.13743 21.5718 7.07155 21.6712 5.5612C21.6712 5.52692 21.6712 5.49154 21.6712 5.45726C21.6712 5.44399 21.6712 5.43184 21.6712 5.41967C21.6712 5.40751 21.6712 5.38429 21.6712 5.3666C21.6691 5.28227 21.6625 5.19812 21.6515 5.1145C21.651 5.1178 21.651 5.12116 21.6515 5.12445C21.5423 4.3936 21.0662 3.72909 20.4973 3.2448C19.817 2.66985 19.0035 2.28508 18.273 1.77646C17.5425 1.26785 16.8873 0.636509 16.0563 0.35235C15.5376 0.175441 14.9829 0.1478 14.4369 0.158856C13.3449 0.18097 12.3545 0.452963 11.2931 0.632083C10.555 0.755919 9.57437 0.388837 8.97269 1.01576C8.48786 1.52216 8.82091 2.48741 8.3328 2.9905C8.10349 3.226 7.75625 3.28572 7.47015 3.44383C6.97003 3.72135 6.70577 4.28082 6.63916 4.87015C6.63916 4.87015 6.63916 4.8602 6.63916 4.85577C6.63916 4.88784 6.63371 4.92101 6.63152 4.95418C6.63152 4.99509 6.63152 5.03489 6.62496 5.0758C6.61841 5.11671 6.62496 5.14436 6.62496 5.17864V5.2118C6.62669 5.33172 6.63618 5.45139 6.65336 5.57004C6.77238 6.37277 7.16658 7.10141 7.44831 7.8599C7.73004 8.6184 7.89602 9.49188 7.55751 10.2283C7.33911 10.717 6.91216 11.0885 6.68393 11.5761C6.59252 11.7775 6.53389 11.9926 6.51031 12.213C6.51031 12.213 6.51031 12.203 6.51031 12.1986C6.51031 12.224 6.51031 12.2483 6.50485 12.2738C6.30251 12.4871 6.13647 12.733 6.01346 13.0013C5.75139 13.5895 5.42271 13.7222 5.33972 13.7476H5.29932C5.29932 13.7476 5.14972 14.693 5.9272 15.2956C5.94795 15.6516 5.99272 15.9833 6.08444 16.1702C6.15651 16.3161 6.19364 16.6898 6.20019 17.1575C6.20019 17.1774 6.20019 17.1985 6.20019 17.2195L6.11939 17.1509C6.11939 17.1509 5.13662 14.6432 5.08748 14.1711C5.03834 13.699 4.60701 13.0013 4.60701 13.0013C4.60701 13.0013 3.16998 11.0664 1.3049 10.9934C-0.560183 10.9204 1.48289 11.8658 1.48289 11.8658C1.48289 11.8658 0.735983 13.7919 2.9767 14.5006C2.9767 14.5006 3.54562 15.2093 3.63188 15.7721C3.71815 16.3349 4.39626 18.334 4.39626 18.334C4.39626 18.334 5.19667 21.4597 6.89468 22.6041C6.89468 22.6041 7.42866 22.6295 7.80539 22.3034C8.01702 22.1836 8.2027 22.0219 8.35137 21.8279C8.30899 22.0248 8.23522 22.2134 8.13298 22.3863C7.56406 23.2587 7.56406 23.6224 7.56406 23.6224C7.56406 23.6224 7.8305 24.1852 7.3686 24.3312C6.9067 24.4771 7.08359 24.9846 7.08359 24.9846C7.08359 24.9846 6.60859 25.3407 6.52888 25.669C5.49587 24.9791 4.08723 24.0105 3.75855 23.6401C3.22458 23.0409 -0.456449 24.0127 0.912879 26.7979C0.912879 26.7979 1.7668 28.567 3.08263 29.5279C3.23223 29.6384 3.37418 29.749 3.51068 29.8651C3.73795 30.1752 4.01695 30.4427 4.33511 30.6557C4.53494 30.8768 4.70529 31.0758 4.84288 31.2483C4.83552 31.2528 4.82858 31.258 4.82213 31.2638L4.78937 31.2914L4.76753 31.3113C4.75552 31.3224 4.7446 31.3334 4.73368 31.3456L4.71402 31.3655C4.70092 31.3788 4.68891 31.3943 4.6769 31.4086C4.67213 31.4152 4.66703 31.4214 4.66161 31.4274C4.64523 31.4484 4.62776 31.4716 4.61138 31.496C4.0654 32.3075 3.79349 34.2701 3.79349 34.2701C3.79349 34.2701 3.88849 35.0695 5.13334 35.1303C5.24989 35.1305 5.36593 35.1148 5.4784 35.0839C5.4986 35.0793 5.51753 35.0701 5.53378 35.0571C5.55003 35.0441 5.5632 35.0276 5.57231 35.0087C5.60725 34.8882 7.25612 34.4282 8.42999 34.5664C9.60386 34.7047 10.1957 34.5421 10.1957 34.5421C10.1957 34.5421 10.2798 34.3696 10.3726 34.1297L12.2246 33.62L12.3447 33.5879C13.2183 33.882 14.0405 34.1795 14.0405 34.1795C14.0405 34.1795 15.1074 34.8329 15.3378 34.9059C15.4907 34.9545 15.993 34.9391 16.3151 34.9225C16.3369 35.0507 16.3522 35.1303 16.3522 35.1303C16.3522 35.1303 17.193 35.1912 17.5851 35.2509C17.9771 35.3106 20.5334 35.0209 21.4965 35.5184C21.4965 35.5184 21.5423 35.5273 21.621 35.5394C22.1571 35.6224 24.2417 35.8236 24.1642 33.9428C24.0692 31.7868 22.3144 31.5446 22.3144 31.5446C21.8623 31.5027 21.4067 31.5209 20.9592 31.5988C21.8328 31.046 23.0886 30.2344 24.1412 29.4549C25.2998 28.5958 25.4996 27.981 25.4942 27.6504C25.4854 27.336 25.4974 27.0212 25.5302 26.7084C25.955 22.9535 21.9846 24.4583 21.9846 24.4583ZM16.5979 22.6041C16.6742 22.4883 16.72 22.3548 16.7311 22.216C16.6716 22.5244 16.5816 22.8259 16.4625 23.116C16.4669 22.8573 16.4833 22.7257 16.5925 22.6041H16.5979ZM16.7759 21.7317C16.7759 21.7317 16.7966 21.4807 16.8425 21.1911C16.8152 21.431 16.7901 21.6532 16.7704 21.8324C16.7737 21.7715 16.7748 21.7317 16.7748 21.7317H16.7759Z" fill="url(#paint0_linear_130_583)"/>
<defs>
<linearGradient id="paint0_linear_130_583" x1="13.0381" y1="35.5892" x2="13.0381" y2="0.157752" gradientUnits="userSpaceOnUse">
<stop stop-color="#808080" stop-opacity="0.25"/>
<stop offset="0.54" stop-color="#808080" stop-opacity="0.12"/>
<stop offset="1" stop-color="#808080" stop-opacity="0.1"/>
</linearGradient>
</defs>
</svg>
