<svg width="1" height="2" viewBox="0 0 1 2" fill="none" xmlns="http://www.w3.org/2000/svg">
<path opacity="0.5" d="M0.777969 0.209106C0.777969 0.209106 -0.079227 0.342894 0.148994 0.921163C0.150588 0.952884 0.161988 0.983292 0.181584 1.00809C0.201179 1.0329 0.227978 1.05084 0.258191 1.05937C0.258191 1.05937 0.250548 1.01404 0.338997 1.01072C0.370447 1.00944 0.401621 1.00424 0.431815 0.995242C0.472599 0.982718 0.508489 0.957588 0.534459 0.923373C0.534459 0.923373 0.752854 0.771894 0.759406 0.35837C0.759406 0.35837 0.809636 0.25665 0.801992 0.235642L0.672048 0.328518C0.712167 0.382696 0.730507 0.450259 0.723371 0.517588C0.723371 0.517588 0.678599 0.330729 0.652392 0.341786C0.646932 0.341786 0.585782 0.393753 0.585782 0.393753C0.652282 0.48217 0.683471 0.5927 0.673139 0.703344C0.673139 0.703344 0.649116 0.474469 0.563942 0.412551L0.475493 0.49437C0.5537 0.586012 0.592952 0.705246 0.58469 0.826073C0.58469 0.826073 0.55084 0.587246 0.46239 0.510954L0.385951 0.602727C0.456605 0.687466 0.493241 0.795989 0.488596 0.906789C0.488596 0.906789 0.423078 0.63479 0.370664 0.624839C0.342408 0.662047 0.318585 0.702499 0.299686 0.745357C0.299686 0.745357 0.391411 0.865879 0.367388 0.945488C0.367388 0.945488 0.305146 0.768579 0.284399 0.771896C0.256473 0.842243 0.241664 0.91722 0.240721 0.993031C0.228095 0.915668 0.236008 0.836295 0.263651 0.763049C0.219373 0.781966 0.181449 0.813455 0.154454 0.853715C0.154454 0.853715 0.147903 0.766367 0.275663 0.72988C0.292369 0.690837 0.313241 0.653761 0.337906 0.619312C0.267202 0.62887 0.198981 0.652145 0.136983 0.687863C0.162088 0.654226 0.195467 0.627843 0.233789 0.611352C0.272112 0.594861 0.314036 0.588837 0.355376 0.59388L0.428538 0.499897C0.346427 0.505321 0.265698 0.523984 0.189398 0.555181C0.223553 0.522338 0.264932 0.498194 0.31012 0.484736C0.355308 0.471279 0.403009 0.468896 0.449286 0.477785L0.534459 0.39707C0.45555 0.396788 0.376959 0.4072 0.300778 0.428028C0.377683 0.377748 0.470527 0.35879 0.560667 0.374958L0.62291 0.328518C0.62291 0.328518 0.513712 0.328517 0.482045 0.334045C0.450378 0.339574 0.447103 0.328518 0.447103 0.328518C0.511286 0.302979 0.581146 0.295714 0.649116 0.30751C0.694973 0.278805 0.738109 0.245864 0.777969 0.209106Z" fill="black"/>
</svg>
