<svg width="81" height="20" viewBox="0 0 81 20" fill="none" xmlns="http://www.w3.org/2000/svg">
<path opacity="0.1" d="M80.472 1.63795C80.3945 1.77505 80.3158 1.91216 80.235 2.04815C80.1913 2.12224 80.1477 2.19632 80.1029 2.26929C80.0417 2.37322 79.9784 2.47605 79.914 2.57888C79.8681 2.65406 79.8212 2.72815 79.7731 2.80001C79.7404 2.85309 79.7065 2.90616 79.6716 2.95923C79.5988 3.07643 79.5223 3.19253 79.4423 3.30752C79.2861 3.54303 79.1245 3.77522 78.9585 4.00631L79.0098 4.05054L76.2646 7.35873L69.7958 15.135C68.5772 15.4246 67.3396 15.6738 66.0831 15.8824C62.0669 16.5458 57.794 17.1993 53.4163 17.7775L52.6148 17.8815L52.5405 17.8914L52.3964 17.9102L51.6451 18.0064C51.3295 18.0462 51.014 18.086 50.6984 18.1236C50.4658 18.1535 50.2321 18.1822 49.9995 18.2098L49.7091 18.2452C44.7231 18.8467 39.663 19.3354 34.7415 19.6295L34.4728 19.645C34.0819 19.6682 33.6932 19.6903 33.3044 19.7103C32.722 19.7412 32.1429 19.7689 31.5671 19.7932C29.2499 19.8916 26.9808 19.9424 24.7707 19.9358C24.2422 19.9358 23.7177 19.931 23.1972 19.9214L22.6807 19.9126L22.4623 19.9071C22.1063 19.8993 21.7525 19.8905 21.4009 19.8783C20.8068 19.8599 20.219 19.8363 19.6373 19.8076C19.3414 19.7932 19.0477 19.7766 18.7561 19.76L18.1403 19.7213L18.0737 19.6649L16.4892 18.3138L15.466 17.4403L15.1002 17.1296L14.9113 16.9682L14.2943 16.443L12.4271 14.8508L7.08299 10.2943C6.98908 10.2147 6.89626 10.134 6.80454 10.0533L6.74994 10.0046L6.72919 9.98692C6.63419 9.90289 6.54138 9.81886 6.44856 9.73483C6.38522 9.67733 6.32189 9.62426 6.25965 9.56123L6.21269 9.51701L6.15919 9.46725L6.02487 9.3412L6.01068 9.32683L5.99321 9.31025C5.91459 9.23617 5.83815 9.16098 5.76171 9.08911L5.73114 9.06036L5.57826 8.90888C5.53786 8.86908 5.49855 8.82817 5.45924 8.78726C5.4545 8.78449 5.4504 8.78072 5.44722 8.7762C5.31837 8.64684 5.1928 8.51526 5.06722 8.38369L4.90779 8.21341C4.8521 8.15371 4.79859 8.09289 4.74181 8.03208L4.65445 7.93589C4.6075 7.88503 4.56164 7.83306 4.51687 7.7822C4.49066 7.75456 4.46554 7.72581 4.44043 7.69706L4.31376 7.55111C4.23841 7.46376 4.16307 7.37531 4.08882 7.28686C4.03858 7.22826 3.98945 7.16965 3.94031 7.10995L3.90427 7.06682L3.87479 7.03144C3.81473 6.95736 3.75358 6.88328 3.69461 6.81031L3.66186 6.7694C3.60289 6.69642 3.54611 6.62345 3.48932 6.54826C3.45657 6.50846 3.42599 6.46755 3.39542 6.42774C3.36484 6.38794 3.3157 6.32492 3.27748 6.27295C3.23926 6.22098 3.21415 6.19113 3.18357 6.14911C3.17569 6.14001 3.1684 6.13041 3.16173 6.12036L3.02415 5.93572L2.97828 5.87269L2.9488 5.83289L2.91058 5.77982L2.84834 5.69247L2.81558 5.64713L2.76317 5.57416L2.69656 5.47797L2.6638 5.43263L2.61684 5.36408C2.56552 5.29111 2.51529 5.21703 2.46506 5.14295L2.35586 4.98704C2.29253 4.89306 2.23029 4.79797 2.16914 4.70288L2.15385 4.67967C2.08724 4.57684 2.02172 4.47401 1.95729 4.37008L1.93764 4.33912C1.92563 4.32032 1.91362 4.30153 1.9027 4.28273C1.83827 4.1799 1.77603 4.07707 1.71378 3.97314C1.66792 3.89685 1.62206 3.82055 1.57729 3.74316L1.52924 3.66244L1.3993 3.42915C1.38073 3.39597 1.36108 3.3628 1.34252 3.32853L1.30539 3.26219L1.26389 3.18811L1.25734 3.17484L1.22786 3.12398C1.22131 3.1096 1.21366 3.09634 1.20602 3.08307C1.16452 3.00788 1.12412 2.93159 1.08372 2.86193C1.08372 2.86193 1.07826 2.85198 1.07498 2.84645C1.03895 2.78011 1.00401 2.71267 0.965787 2.64522C0.91774 2.55345 0.869694 2.46168 0.822739 2.3688L0.713542 2.14767C0.686243 2.09349 0.660036 2.0371 0.633828 1.98513C0.615265 1.94864 0.597794 1.91216 0.580322 1.87456C0.562851 1.83697 0.549747 1.81264 0.535551 1.78169C0.535551 1.77173 0.525724 1.76178 0.521356 1.75183L0.50716 1.72198L0.487505 1.67996L0.400147 1.492C0.394687 1.48315 0.391411 1.4732 0.387043 1.46436C0.36302 1.41239 0.338997 1.36042 0.316066 1.30846C0.30187 1.2775 0.287674 1.24764 0.274571 1.21668L0.176293 0.995547L0.136983 0.905988C0.127155 0.881663 0.116236 0.85734 0.105316 0.831909L15.4049 0.98781H15.5512L16.0972 0.993337L17.1892 1.00439L18.0092 1.01324H18.2276L18.992 1.02098L23.896 1.07074L30.3255 1.13597L36.2331 1.19678H36.4962L37.23 1.20452L38.2314 1.21447L38.9193 1.21779H39.0525H39.1377L39.8344 1.22553L80.472 1.63795Z" fill="#6D4FFF"/>
</svg>
