<svg width="86" height="16" viewBox="0 0 86 16" fill="none" xmlns="http://www.w3.org/2000/svg">
<path opacity="0.1" d="M20.5 8.56708C20.5174 8.61905 20.5338 8.67212 20.5513 8.7274L20.6026 8.89768H21.2884C21.1417 8.89943 20.9962 8.87103 20.8607 8.81421C20.7252 8.75738 20.6025 8.67331 20.5 8.56708ZM20.5 8.56708C20.5174 8.61905 20.5338 8.67212 20.5513 8.7274L20.6026 8.89768H21.2884C21.1417 8.89943 20.9962 8.87103 20.8607 8.81421C20.7252 8.75738 20.6025 8.67331 20.5 8.56708ZM20.5 8.56708C20.5174 8.61905 20.5338 8.67212 20.5513 8.7274L20.6026 8.89768H21.2884C21.1417 8.89943 20.9962 8.87103 20.8607 8.81421C20.7252 8.75738 20.6025 8.67331 20.5 8.56708ZM20.5 8.56708C20.5174 8.61905 20.5338 8.67212 20.5513 8.7274L20.6026 8.89768H21.2884C21.1417 8.89943 20.9962 8.87103 20.8607 8.81421C20.7252 8.75738 20.6025 8.67331 20.5 8.56708ZM20.5 8.56708C20.5163 8.61794 20.5327 8.67101 20.5491 8.72519C20.5655 8.77937 20.584 8.83576 20.6015 8.89547H21.2862C21.14 8.89721 20.995 8.86901 20.8599 8.81258C20.7248 8.75615 20.6024 8.67264 20.5 8.56708ZM52.7611 3.4113L52.4422 3.39472L52.2882 3.38698L52.1321 3.37813H52.0851L51.8667 3.36708L50.8381 3.314L50.6197 3.30295L49.6369 3.25209L49.2504 3.23218L13.317 1.37575L13.1423 1.3658L10.2234 1.21543L9.75717 1.1911L9.07141 1.15572L8.75474 1.14024L8.32888 1.11813L7.90082 1.09601L0.278887 0.702393C0.257047 0.854239 0.2363 1.00572 0.216645 1.15683C0.216645 1.17562 0.216645 1.19331 0.209001 1.21101C0.190437 1.35806 0.172966 1.50401 0.156586 1.65328C0.139115 1.81139 0.123827 1.9695 0.109631 2.12761C0.0954358 2.28572 0.0823323 2.43167 0.0714126 2.58426C0.0714126 2.59089 0.0714126 2.59752 0.0714126 2.60416C0.059401 2.76338 0.0495734 2.92149 0.0408376 3.08071C0.0321019 3.23992 0.0255498 3.38808 0.02009 3.54177C0.02009 3.55394 0.02009 3.5661 0.02009 3.57937C0.02009 3.73084 0.0113542 3.88343 0.00807827 4.03491C0.00480237 4.18638 0.00807827 4.35334 0.00807827 4.51256C0.00807827 4.75286 0.0113546 4.99279 0.0179064 5.23236C0.0179064 5.32413 0.017906 5.417 0.0277337 5.50988C0.0437493 5.95215 0.0714127 6.39221 0.110724 6.83006C0.118367 6.9163 0.126011 7.00144 0.134747 7.08658C0.143483 7.17171 0.152218 7.25796 0.160954 7.34309C0.178425 7.50342 0.196989 7.66374 0.216645 7.82296C0.216645 7.83844 0.216644 7.85392 0.223196 7.86829C0.234116 7.94901 0.243944 8.02972 0.255956 8.11154C0.278887 8.28182 0.304002 8.45098 0.331302 8.62126C0.342221 8.69092 0.353141 8.76168 0.365152 8.83134C0.384808 8.95001 0.405555 9.06832 0.427394 9.18626C0.438314 9.2526 0.451418 9.31784 0.46343 9.38307L0.512568 9.63738C0.526763 9.70924 0.542051 9.78222 0.557339 9.85851L0.567166 9.90605C0.601017 10.0708 0.637052 10.2378 0.676363 10.397L0.735329 10.6491C0.775732 10.816 0.818319 10.9808 0.860906 11.1499L0.927516 11.3998C0.966827 11.5642 1.01196 11.7312 1.06292 11.9007C1.13608 12.1495 1.21252 12.396 1.29223 12.6426L7.79054 12.8516L8.08974 12.8615L9.36188 12.8958L10.4746 12.9323L10.7443 12.94L16.986 13.1424L18.1053 13.1778L19.6264 13.2275L19.8666 13.2353H19.9987L20.2095 13.243L21.1999 13.274L38.3438 13.8268L39.5122 13.8644L40.7931 13.9064L41.0115 13.913H41.0912L42.0674 13.944L51.7302 14.2635L51.9093 14.2691H51.9312L53.2492 14.3111H53.2623L53.5484 14.321L60.3481 14.5422L61.5372 14.5809L63.3368 14.6384H63.4187H63.5453L63.8729 14.6494L64.2955 14.6627L65.3263 14.6959L82.6821 15.2553C82.7913 15.0563 82.9005 14.8551 82.9977 14.6538C83.0457 14.561 83.0916 14.4681 83.1374 14.3752C83.2444 14.1592 83.3475 13.9433 83.4465 13.7273C83.4912 13.6311 83.5349 13.5349 83.5775 13.4376C83.631 13.3171 83.6867 13.1954 83.7358 13.0749C83.7719 12.9887 83.809 12.9024 83.845 12.8162C83.8811 12.73 83.9236 12.6249 83.9619 12.5287C84.0456 12.3186 84.1264 12.1086 84.2043 11.8985C84.2338 11.82 84.2622 11.7415 84.2905 11.6619C84.3189 11.5823 84.3397 11.5248 84.3637 11.4562C84.403 11.3456 84.4401 11.2351 84.4729 11.1245C84.5057 11.0139 84.5537 10.8791 84.593 10.7552C84.6323 10.6314 84.664 10.5341 84.7022 10.418C84.7219 10.3539 84.7404 10.2897 84.759 10.2267C84.807 10.0653 84.8518 9.90495 84.8955 9.74352C84.9141 9.67607 84.9326 9.60863 84.9501 9.54008C84.9752 9.44609 85.0003 9.35211 85.0233 9.25923C85.0648 9.09891 85.103 8.93748 85.1401 8.77605C85.163 8.67986 85.1849 8.58367 85.2056 8.48858C85.2198 8.42113 85.2351 8.35258 85.2493 8.28403C85.3126 7.98771 85.3694 7.69249 85.4218 7.39948C85.4338 7.33425 85.4448 7.27012 85.4557 7.20488C85.471 7.11422 85.4852 7.02466 85.4994 6.93399C85.5092 6.87207 85.519 6.81016 85.5277 6.74714C85.5496 6.60561 85.5692 6.46408 85.5878 6.32255C85.6064 6.18103 85.6271 6.02181 85.6446 5.87033C85.6446 5.85706 85.6446 5.84269 85.6446 5.82831C85.6519 5.76787 85.6584 5.70706 85.6642 5.64588C85.6719 5.57622 85.6795 5.50767 85.6861 5.43912C85.697 5.32855 85.7068 5.22793 85.7156 5.12289C85.7156 5.12289 85.7156 5.11515 85.7156 5.11073L52.7611 3.4113ZM33.0849 8.89547H31.0451C31.6064 8.89547 32.065 9.30015 32.065 9.79438C32.065 10.2886 31.6064 10.6922 31.0451 10.6922H19.2245C18.6786 10.6811 18.2276 10.282 18.2276 9.79438C18.2311 9.6492 18.2705 9.50724 18.3422 9.38148C18.414 9.25573 18.5157 9.15021 18.6381 9.07459C18.819 8.95639 19.03 8.89414 19.2453 8.89547H21.2862C21.1398 8.89678 20.9947 8.86806 20.8595 8.81105C20.7244 8.75405 20.6021 8.66993 20.5 8.56376C20.3534 8.41154 20.2705 8.20799 20.2685 7.99544C20.2668 7.97004 20.2668 7.94455 20.2685 7.91915C20.3132 7.4614 20.7522 7.09984 21.284 7.09984H19.8295C19.2682 7.09984 18.8096 6.69517 18.8096 6.20093C18.8096 5.70669 19.2682 5.30201 19.8295 5.30201H31.6282C32.1895 5.30201 32.6481 5.70669 32.6481 6.20093C32.6481 6.69517 32.1895 7.09984 31.6282 7.09984H33.0849C33.6451 7.09984 34.1048 7.50342 34.1048 7.99766C34.1048 8.49189 33.6451 8.89547 33.0849 8.89547ZM20.5 8.56376C20.5174 8.61573 20.5338 8.6688 20.5513 8.72408L20.6026 8.89436H21.2884C21.1419 8.89654 20.9966 8.86867 20.8611 8.81242C20.7256 8.75617 20.6027 8.67271 20.5 8.56708V8.56376ZM20.5 8.56376C20.5174 8.61573 20.5338 8.6688 20.5513 8.72408L20.6026 8.89436H21.2884C21.1419 8.89654 20.9966 8.86867 20.8611 8.81242C20.7256 8.75617 20.6027 8.67271 20.5 8.56708V8.56376ZM20.5 8.56376C20.5174 8.61573 20.5338 8.6688 20.5513 8.72408L20.6026 8.89436H21.2884C21.1419 8.89654 20.9966 8.86867 20.8611 8.81242C20.7256 8.75617 20.6027 8.67271 20.5 8.56708V8.56376ZM20.5 8.56376C20.5174 8.61573 20.5338 8.6688 20.5513 8.72408L20.6026 8.89436H21.2884C21.1419 8.89654 20.9966 8.86867 20.8611 8.81242C20.7256 8.75617 20.6027 8.67271 20.5 8.56708V8.56376ZM20.5 8.56376C20.5174 8.61573 20.5338 8.6688 20.5513 8.72408L20.6026 8.89436H21.2884C21.1419 8.89654 20.9966 8.86867 20.8611 8.81242C20.7256 8.75617 20.6027 8.67271 20.5 8.56708V8.56376Z" fill="#6D4FFF"/>
</svg>
