<svg width="9" height="6" viewBox="0 0 9 6" fill="none" xmlns="http://www.w3.org/2000/svg">
<path opacity="0.1" d="M0.549257 3.17789C0.442282 3.40587 0.377158 3.65164 0.357069 3.90322C0.348178 4.02915 0.372513 4.15521 0.427583 4.26848C0.482653 4.38175 0.566477 4.47816 0.670463 4.54783C0.775218 4.601 0.889759 4.6315 1.00679 4.63739C1.58553 4.69378 2.15991 4.52682 2.73429 4.43063C3.43642 4.32006 4.18551 4.32006 4.82977 4.62081C5.18903 4.79219 5.49915 5.04981 5.82019 5.28422C6.14123 5.51862 6.48629 5.74196 6.87612 5.82157C7.26595 5.90118 7.7082 5.81383 7.96809 5.51198C8.19303 5.25215 8.24981 4.88285 8.23999 4.53788C8.19535 3.59821 7.78789 2.7139 7.10543 2.07554C6.42219 1.44549 5.56988 1.03457 4.65615 0.894674C4.29804 0.81655 3.92786 0.814129 3.56878 0.887568C3.20971 0.961007 2.86948 1.10872 2.5694 1.32146C1.96867 1.69864 1.44551 2.1897 1.02863 2.76769C0.91251 2.94823 0.778202 3.11608 0.627875 3.26856C0.552438 3.34491 0.461816 3.40411 0.362028 3.44224C0.26224 3.48037 0.155575 3.49655 0.0491333 3.4897" fill="black"/>
</svg>
