<svg width="87" height="49" viewBox="0 0 87 49" fill="none" xmlns="http://www.w3.org/2000/svg">
<path d="M43.0833 0.941162C19.2899 0.941162 0 10.8387 0 23.0491C0 28.3168 3.60318 33.1465 9.59277 36.9453C7.48236 42.2927 0.454395 47.0703 0.370247 47.1235C0.189426 47.2441 0.0685072 47.3955 0.0224225 47.5591C-0.0236622 47.7226 0.00710607 47.8911 0.110928 48.0437C0.214749 48.1963 0.387077 48.3264 0.606629 48.4178C0.826181 48.5093 1.08334 48.5582 1.34635 48.5584C12.4975 48.5584 20.8685 45.1837 25.0085 43.0973C30.788 44.4654 36.9112 45.1632 43.0833 45.1571C66.8785 45.1571 86.1667 35.2595 86.1667 23.0491C86.1667 10.8387 66.8785 0.941162 43.0833 0.941162ZM59.2396 25.6001C59.2396 25.8256 59.0977 26.0419 58.8452 26.2013C58.5928 26.3608 58.2503 26.4504 57.8932 26.4504H48.4687V32.4025C48.4687 32.628 48.3269 32.8443 48.0744 33.0038C47.8219 33.1632 47.4795 33.2528 47.1224 33.2528H39.0443C38.6872 33.2528 38.3447 33.1632 38.0923 33.0038C37.8398 32.8443 37.6979 32.628 37.6979 32.4025V26.4504H28.2734C27.9164 26.4504 27.5739 26.3608 27.3214 26.2013C27.0689 26.0419 26.9271 25.8256 26.9271 25.6001V20.4982C26.9271 20.2727 27.0689 20.0564 27.3214 19.897C27.5739 19.7375 27.9164 19.6479 28.2734 19.6479H37.6979V13.6958C37.6979 13.4703 37.8398 13.254 38.0923 13.0945C38.3447 12.935 38.6872 12.8455 39.0443 12.8455H47.1224C47.4795 12.8455 47.8219 12.935 48.0744 13.0945C48.3269 13.254 48.4687 13.4703 48.4687 13.6958V19.6479H57.8932C58.2503 19.6479 58.5928 19.7375 58.8452 19.897C59.0977 20.0564 59.2396 20.2727 59.2396 20.4982V25.6001Z" fill="#019874"/>
</svg>
