<svg width="6" height="14" viewBox="0 0 6 14" fill="none" xmlns="http://www.w3.org/2000/svg">
<path d="M5.26159 0.297119C5.22883 0.407687 5.19607 0.512725 5.16222 0.621082C5.13929 0.698479 5.11526 0.775876 5.09124 0.855485C5.0836 0.877599 5.07595 0.900817 5.0694 0.924037C4.66646 2.23316 4.21111 3.65506 3.7099 5.16321C3.61526 5.44847 3.51881 5.73706 3.42053 6.02896C3.05035 7.12579 2.65615 8.26464 2.24339 9.43555C2.18661 9.60029 2.12764 9.76725 2.06868 9.92978L2.05994 9.953C1.96057 10.2316 1.8612 10.5125 1.75856 10.7944C1.45936 11.6281 1.15069 12.4739 0.832567 13.332L0.580322 13.123C0.898449 12.2819 1.20784 11.4538 1.5085 10.6385L1.65591 10.2361C1.70614 10.099 1.75637 9.96295 1.80551 9.82696C1.88522 9.60582 1.96385 9.39574 2.04138 9.18124C2.45778 8.03281 2.85234 6.91939 3.22507 5.84099C3.31897 5.56457 3.41289 5.28815 3.50462 5.02168C3.97198 3.64953 4.39784 2.34926 4.77457 1.13301C4.84227 0.911876 4.90779 0.701797 4.97113 0.490613C4.97768 0.470711 4.98423 0.450811 4.98969 0.430909L5.14257 0.352403L5.26159 0.297119Z" fill="#444053"/>
</svg>
