<svg width="144" height="187" viewBox="0 0 144 187" fill="none" xmlns="http://www.w3.org/2000/svg">
<path d="M103.423 187L102.847 99.3264L94.4532 44.1981L78.8047 92.6784L78.7742 92.7182L22.0658 167.499L0 157.344L0.120895 157.083C1.4694 154.169 33.2448 85.7444 41.7858 85.7444C42.5316 85.7919 43.279 85.6739 43.9635 85.4007C44.6481 85.1275 45.2492 84.7072 45.7152 84.1761C48.222 81.1355 46.1806 74.6836 46.1596 74.6188C43.7147 65.4099 49.8621 62.2737 51.0865 61.7501L54.3798 0L54.7212 0.0213872L144 5.70959L140.254 82.9137L132.197 184.066L131.921 184.095L103.423 187Z" fill="#2F2E41"/>
</svg>
