<svg width="87" height="81" viewBox="0 0 87 81" fill="none" xmlns="http://www.w3.org/2000/svg">
<path d="M86.813 26.2003C86.813 26.2721 86.813 26.344 86.813 26.4214C86.813 26.5154 86.813 26.6094 86.8054 26.7034C86.7977 26.7973 86.8054 26.8593 86.7977 26.9367C86.781 27.3303 86.7559 27.7235 86.7224 28.1164C86.7224 28.1164 86.7224 28.1241 86.7224 28.1286C86.7136 28.2391 86.7038 28.3386 86.6929 28.4448C86.6864 28.5133 86.6787 28.5819 86.6711 28.6516C86.6634 28.7212 86.6591 28.7732 86.6514 28.834C86.6514 28.8484 86.6514 28.8627 86.6514 28.876C86.6339 29.0275 86.6154 29.1779 86.5946 29.3282C86.5739 29.4786 86.5564 29.6113 86.5346 29.7528C86.5258 29.8158 86.516 29.8778 86.5062 29.9397C86.492 30.0303 86.4778 30.1199 86.4625 30.2106C86.4516 30.2758 86.4407 30.3399 86.4286 30.4052C86.3762 30.7015 86.3194 30.9967 86.2561 31.2897C86.2419 31.3583 86.2266 31.4268 86.2124 31.4943C86.1917 31.5893 86.1698 31.6855 86.1469 31.7817C86.1098 31.9432 86.0716 32.1046 86.0301 32.2649C86.0071 32.3578 85.982 32.4518 85.9569 32.5458C85.9394 32.6143 85.9209 32.6818 85.9023 32.7492C85.8586 32.9106 85.8139 33.071 85.7658 33.2324C85.7473 33.2954 85.7287 33.3595 85.709 33.4237C85.6752 33.5342 85.6402 33.6448 85.5998 33.7609C85.5594 33.877 85.5201 34.0075 85.4797 34.1302C85.4393 34.2529 85.4055 34.3513 85.3705 34.4619C85.3465 34.5304 85.3225 34.599 85.2974 34.6676C85.2722 34.7361 85.2406 34.8257 85.2111 34.9042C85.1332 35.1142 85.0524 35.3243 84.9687 35.5344C84.9305 35.6306 84.8922 35.7257 84.8518 35.8219C84.8114 35.9181 84.7798 35.9944 84.7426 36.0806C84.6913 36.2011 84.6334 36.3227 84.5843 36.4433C84.5417 36.5406 84.498 36.6368 84.4533 36.733C84.3535 36.9497 84.2505 37.1656 84.1442 37.3809C84.0984 37.4738 84.0525 37.5666 84.0045 37.6595C83.9029 37.8607 83.797 38.062 83.6889 38.261C83.6681 38.2997 83.6474 38.3384 83.6256 38.3771C83.5884 38.4445 83.5513 38.5131 83.5164 38.5805L83.4836 38.638C83.4061 38.7751 83.3275 38.9122 83.2466 39.0482C83.203 39.1223 83.1593 39.1964 83.1145 39.2694C83.0534 39.3733 82.99 39.4761 82.9256 39.579C82.8797 39.6542 82.8328 39.7282 82.7847 39.8001C82.752 39.8532 82.7181 39.9062 82.6832 39.9593C82.6104 40.0765 82.534 40.1926 82.4539 40.3076C82.2977 40.5431 82.1361 40.7753 81.9701 41.0064L82.0215 41.0506L79.2642 44.3588L72.7954 52.135L71.2448 54.0003C72.5514 55.2004 73.636 56.627 74.4476 58.213C76.5966 62.4941 78.4376 66.3751 79.8867 68.6063C78.1395 67.2663 75.2469 65.5867 70.9522 64.7033C70.7032 64.6524 70.4477 64.6027 70.1878 64.5573C69.684 64.4689 69.1959 64.3642 68.7235 64.2433C68.275 64.1305 67.8382 64.0052 67.4131 63.8674C67.3159 63.8364 67.2187 63.8033 67.1226 63.7701C66.1072 63.4244 65.1196 62.9997 64.1689 62.4997L63.9144 62.8048L62.7799 64.1703L54.9734 73.5564L51.9563 77.1842L49.2439 80.4548L49.1259 80.5897L49.103 80.5698L48.83 80.3365L48.5799 80.1231L47.8549 79.505L44.8247 76.9166L43.3156 75.6296L42.2968 74.7616L40.97 73.6327L40.7516 73.4492L39.9163 72.736L39.1115 72.0516L35.9371 69.3449L34.3461 67.9883L33.7729 67.4995L33.5097 67.2784L32.1415 66.1108L29.8068 64.1206L29.5033 63.8619L29.4738 63.8364L28.5008 63.0072L27.2866 61.9601L25.9325 60.8058L25.6956 60.6034L25.0229 60.0285L24.1078 59.2468L21.5559 57.0708L21.1541 56.728L21.0875 56.6716L19.503 55.3205L18.4798 54.447L18.114 54.1363L17.9251 53.9749L17.3082 53.4497L15.4267 51.8509L10.0826 47.2944C9.98869 47.2148 9.89588 47.1341 9.80415 47.0534L9.74955 47.0047L9.72881 46.987C9.63381 46.903 9.54099 46.8189 9.44817 46.7349C9.38484 46.6774 9.3215 46.6243 9.25926 46.5613L9.21231 46.5171L9.1588 46.4673L9.02449 46.3413L9.01029 46.3269L8.99282 46.3103C8.9142 46.2363 8.83776 46.1611 8.76132 46.0892L8.65213 45.9853L8.57569 45.909L8.45666 45.7873L8.44793 45.7785C8.31908 45.6491 8.1935 45.5176 8.06792 45.386L7.9085 45.2157C7.85281 45.156 7.7993 45.0952 7.74252 45.0344L7.65516 44.9382C7.6082 44.8873 7.56234 44.8354 7.51757 44.7845C7.49136 44.7569 7.46625 44.7281 7.44113 44.6994L7.31447 44.5534C7.23912 44.4661 7.16377 44.3776 7.08952 44.2892C7.03929 44.2306 6.99015 44.172 6.94101 44.1122L6.90498 44.0691C6.83218 43.9829 6.76229 43.8966 6.69532 43.8104L6.66256 43.7695C6.60359 43.6965 6.54681 43.6235 6.49003 43.5484C6.45727 43.5085 6.4267 43.4676 6.39612 43.4278C6.36555 43.388 6.31641 43.325 6.27819 43.273C6.23997 43.2211 6.21485 43.1912 6.18428 43.1492C6.1764 43.1401 6.1691 43.1305 6.16244 43.1205C6.1002 43.0386 6.03905 42.9557 5.97899 42.8728L5.94951 42.833L5.91129 42.7799L5.84904 42.6926L5.81628 42.6472L5.76387 42.5742L5.69726 42.4781L5.6645 42.4327L5.61755 42.3642C5.56622 42.2912 5.51599 42.2171 5.46576 42.143L5.35657 41.9871C5.29323 41.8932 5.23099 41.7981 5.16984 41.703L5.15455 41.6798C5.08794 41.5769 5.02242 41.4741 4.958 41.3702L4.93834 41.3392C4.92633 41.3204 4.91432 41.3016 4.9034 41.2828C4.83897 41.18 4.77673 41.0772 4.71449 40.9732C4.66863 40.8969 4.62276 40.8206 4.57799 40.7432L4.52995 40.6625L4.39891 40.4292C4.38035 40.3961 4.36069 40.3629 4.34213 40.3286L4.305 40.2623L4.26351 40.1882L4.25695 40.1749L4.22747 40.1241C4.22092 40.1097 4.21328 40.0964 4.20563 40.0832C4.16414 40.008 4.12373 39.9328 4.08333 39.862C4.08333 39.862 4.07787 39.8521 4.0746 39.8465C4.03856 39.7802 4.00362 39.7128 3.9654 39.6453C3.91735 39.5535 3.86931 39.4618 3.82235 39.3689L3.71315 39.1478C3.68586 39.0936 3.65965 39.0372 3.63344 38.9852C3.61488 38.9487 3.59741 38.9122 3.57993 38.8747C3.56246 38.8371 3.54936 38.8127 3.53516 38.7818C3.53516 38.7718 3.52534 38.7619 3.52097 38.7519L3.50677 38.7221L3.48712 38.6801L3.39976 38.4921C3.3943 38.4832 3.39102 38.4733 3.38666 38.4644C3.36263 38.4125 3.33861 38.3605 3.31568 38.3085C3.30148 38.2776 3.28729 38.2477 3.27418 38.2168L3.17591 37.9956L3.1366 37.9061C3.12677 37.8818 3.11585 37.8574 3.10493 37.832C3.07108 37.7524 3.03723 37.6728 3.00447 37.5932L2.96079 37.4892C2.95096 37.466 2.94113 37.4417 2.9324 37.4174C2.92366 37.393 2.89964 37.34 2.88435 37.3002C2.84504 37.2029 2.80682 37.1045 2.7686 37.0061C2.75331 36.9685 2.73803 36.9287 2.72383 36.89L2.71728 36.8712C2.71728 36.8623 2.70964 36.8546 2.70745 36.8468L2.69762 36.8225L2.68452 36.786C2.6736 36.7573 2.66268 36.7296 2.65285 36.7009C2.64303 36.6721 2.63211 36.6478 2.62337 36.6213C2.5917 36.5384 2.56222 36.4554 2.53274 36.3725C2.48797 36.2487 2.44429 36.1248 2.4017 35.9999C2.39928 35.9909 2.39637 35.982 2.39297 35.9734C2.37222 35.9136 2.35256 35.855 2.33291 35.7964C2.31325 35.7378 2.30124 35.698 2.28595 35.6494C2.20624 35.4028 2.1298 35.1563 2.05664 34.9075C2.00859 34.7416 1.96164 34.5758 1.91578 34.4099L1.84917 34.16C1.80658 33.9931 1.76399 33.8283 1.72359 33.6592L1.66462 33.4071C1.6275 33.2445 1.59146 33.0809 1.55543 32.9162L1.5456 32.8686C1.53031 32.7956 1.51502 32.7227 1.50083 32.6475L1.45169 32.3932C1.43968 32.3279 1.42657 32.2627 1.41565 32.1964C1.39381 32.0784 1.37307 31.9601 1.35341 31.8414C1.3414 31.7718 1.33048 31.701 1.31956 31.6314C1.29226 31.4611 1.26715 31.2919 1.24422 31.1216C1.2322 31.0398 1.22238 30.9591 1.21146 30.8784C1.21146 30.864 1.21146 30.8485 1.2049 30.8331C1.18525 30.6738 1.16669 30.5135 1.14921 30.3532C1.14048 30.2681 1.13065 30.1829 1.12301 30.0967C1.11536 30.0104 1.10663 29.9264 1.09898 29.8402C1.05967 29.3979 1.03201 28.9578 1.01599 28.52C1.01599 28.4271 1.00835 28.3342 1.00617 28.2425C0.999614 28.0022 0.996338 27.7622 0.996338 27.5227C0.996338 27.3634 0.996338 27.2042 0.996338 27.045C0.996338 26.8858 1.00289 26.7409 1.00835 26.5895C1.00835 26.5762 1.00835 26.564 1.00835 26.5519C1.00835 26.3982 1.02036 26.2445 1.0291 26.0908C1.03783 25.9371 1.04766 25.7735 1.05967 25.6143C1.05967 25.6076 1.05967 25.601 1.05967 25.5944C1.07059 25.4418 1.0837 25.2892 1.09789 25.1377C1.11209 24.9862 1.12737 24.8215 1.14485 24.6634C1.16123 24.5174 1.1787 24.3715 1.19726 24.2211C1.19726 24.2034 1.19726 24.1857 1.2049 24.1669C1.22456 24.0151 1.24531 23.8636 1.26715 23.7125C1.29335 23.5256 1.32284 23.3388 1.3545 23.153C1.38617 22.9673 1.42221 22.7638 1.4637 22.5692C1.48008 22.483 1.49755 22.3956 1.51502 22.3094C1.54451 22.1657 1.57399 22.023 1.60566 21.8804C1.61985 21.8152 1.63405 21.751 1.64934 21.6858C1.66462 21.6206 1.67991 21.5509 1.69738 21.4834C1.73123 21.3386 1.76618 21.1949 1.80658 21.0511C1.81968 20.9981 1.83279 20.9406 1.84698 20.893C1.87865 20.7714 1.91141 20.6509 1.94526 20.5293C1.97911 20.4076 2.01514 20.2827 2.05446 20.1588C2.09377 20.035 2.12216 19.9311 2.16365 19.8172C2.18112 19.7553 2.20078 19.6934 2.22153 19.6314C2.22153 19.6259 2.22153 19.6204 2.22153 19.616C2.25647 19.5054 2.29141 19.3948 2.33072 19.2898C2.33946 19.2644 2.34819 19.2389 2.35584 19.2135C2.40061 19.0819 2.44538 18.9514 2.49124 18.821C2.54366 18.6739 2.60044 18.5269 2.65176 18.3787C2.68015 18.3035 2.70854 18.2272 2.73803 18.152C2.75331 18.1111 2.7686 18.0713 2.78498 18.0304C2.81883 17.9431 2.85378 17.8557 2.89418 17.7695C2.92039 17.7031 2.94769 17.6368 2.97498 17.5716C3.11184 17.2391 3.25744 16.9093 3.41177 16.582C3.68476 15.9687 3.98688 15.3672 4.31811 14.7775C4.36943 14.6868 4.42075 14.5962 4.47316 14.5055C4.52558 14.4149 4.58236 14.3242 4.6315 14.2346C4.68064 14.1451 4.7407 14.0544 4.7942 13.9648C5.06719 13.5226 5.35547 13.0803 5.65795 12.638C5.71036 12.5628 5.76715 12.4877 5.81628 12.4169L5.96916 12.2046C6.18755 11.9039 6.41396 11.6068 6.64836 11.3134C6.70624 11.2405 6.76411 11.1686 6.82308 11.0923C6.88205 11.016 6.94101 10.9486 6.99998 10.8712C7.14557 10.6965 7.29117 10.5243 7.43677 10.3548C7.53068 10.2442 7.62458 10.1425 7.71959 10.0375C7.92269 9.81634 8.12798 9.5952 8.33873 9.37407C8.41735 9.29225 8.49707 9.21153 8.57678 9.13192C8.58942 9.11782 8.60292 9.10453 8.61718 9.09212C8.69034 9.01914 8.76241 8.94728 8.83558 8.87098L8.93058 8.77811L9.11403 8.6012L9.22323 8.49063L9.40777 8.32036C9.49731 8.2378 9.58794 8.15598 9.67967 8.07489L9.84456 7.92895L10.0466 7.75425C10.0873 7.71887 10.1277 7.68459 10.1678 7.65142C10.3614 7.48631 10.5569 7.32561 10.7542 7.16935C10.7902 7.1406 10.8262 7.11185 10.8634 7.08421C10.9387 7.0234 11.0141 6.96479 11.0905 6.9073L11.2619 6.77572C11.4476 6.6353 11.6343 6.49709 11.8232 6.36331L12.0067 6.23394L12.296 6.03381L12.5843 5.84032L12.7918 5.70653C12.842 5.67226 12.8933 5.64019 12.9447 5.60813L13.0691 5.52963C13.1609 5.47102 13.2526 5.41906 13.3454 5.35935C13.3891 5.33281 13.4328 5.30517 13.4764 5.27974C13.5758 5.21893 13.6752 5.15922 13.7756 5.10173L13.9504 5.00111C14.1687 4.87506 14.3893 4.75307 14.6121 4.63513L14.8774 4.49582L15.0893 4.38525C15.422 4.21645 15.7587 4.05539 16.0993 3.90207L16.3254 3.80145C16.4269 3.75612 16.5296 3.71189 16.6333 3.66766L16.9827 3.52282C17.0799 3.48302 17.1771 3.44432 17.2754 3.41225L17.2918 3.40562L17.5102 3.32048L17.8935 3.17785C18.0179 3.13252 18.1435 3.08829 18.2691 3.04517L18.2975 3.03522C18.3859 3.00536 18.4744 2.9744 18.5639 2.94566C18.612 2.92944 18.66 2.91396 18.7081 2.89922C18.8173 2.86273 18.9265 2.82845 19.0357 2.78865L19.1186 2.76322C19.2398 2.72563 19.3611 2.69024 19.4834 2.65265C19.5154 2.64307 19.5471 2.63422 19.5784 2.62612C19.6788 2.59626 19.7793 2.56862 19.8797 2.54098L19.9758 2.51555L20.251 2.44368C20.5852 2.35891 20.9204 2.28078 21.2567 2.20928C21.3845 2.18163 21.5133 2.1551 21.6422 2.13077H21.6586C21.7816 2.10645 21.905 2.08323 22.0287 2.06111L22.1161 2.04563C22.2493 2.02131 22.3825 1.9992 22.5168 1.97819L22.5791 1.96824C22.6883 1.95055 22.7975 1.93396 22.9067 1.91848L23.0028 1.90521C23.1338 1.88642 23.2648 1.86873 23.3959 1.85325H23.4144L23.7999 1.80902L23.9091 1.79796L24.2367 1.7659L24.3459 1.75595L24.7183 1.7272H24.7477C24.8831 1.71725 25.0196 1.70951 25.155 1.70177C25.2904 1.69403 25.4062 1.68961 25.5318 1.68518L25.7043 1.67855C25.8266 1.67855 25.9489 1.67081 26.0712 1.6697C26.2197 1.6697 26.3682 1.6697 26.5167 1.6697C26.6467 1.6697 26.7755 1.6697 26.9055 1.6697C27.0354 1.6697 27.1654 1.6697 27.2942 1.67855C27.5126 1.68518 27.731 1.69403 27.9494 1.7073L28.1503 1.71946C28.3505 1.73125 28.5503 1.74673 28.7498 1.7659C28.8015 1.7659 28.8528 1.77032 28.9038 1.77917C29.1342 1.80128 29.3635 1.82561 29.5928 1.85435C29.8636 1.88605 30.1337 1.9229 30.403 1.96492C30.5308 1.98372 30.6575 2.00472 30.7852 2.02684C30.913 2.04895 31.0418 2.07107 31.1696 2.09539C31.4564 2.14994 31.7429 2.20891 32.029 2.2723L32.2878 2.3309L32.516 2.38618L32.7344 2.44147C32.8567 2.47243 32.9779 2.50339 33.0991 2.53656C33.3328 2.59921 33.5654 2.66555 33.7969 2.73558C34.1987 2.8572 34.5973 2.98767 34.998 3.1303C35.1072 3.17011 35.2263 3.21212 35.3398 3.25525L35.3737 3.26741C35.4858 3.30942 35.5983 3.35255 35.7111 3.39677C35.8203 3.43989 35.9295 3.48302 36.0387 3.52835L36.1479 3.57368L36.4667 3.72074C36.5978 3.77713 36.7277 3.8313 36.8577 3.89212L37.1929 4.04581C37.3141 4.10219 37.4353 4.15637 37.5554 4.21829C37.6461 4.26141 37.7367 4.30675 37.8273 4.35318C37.9518 4.414 38.0752 4.47702 38.1986 4.54225L38.3591 4.62629L38.595 4.75344L38.6299 4.77224C39.59 5.29756 40.5157 5.88478 41.4013 6.53026L41.647 6.70607C41.8021 6.81663 41.955 6.93936 42.1078 7.05878L42.2553 7.16935C42.4948 7.35805 42.731 7.55228 42.9639 7.75204L43.0164 7.79626C43.0961 7.71334 43.1769 7.63041 43.2577 7.54859C43.3975 7.40559 43.5394 7.2648 43.6836 7.12622C43.7589 7.05435 43.8342 6.98138 43.9107 6.90509C43.9871 6.8288 44.0428 6.78015 44.1094 6.71933C44.1957 6.63862 44.282 6.56012 44.3704 6.48161C44.4381 6.4197 44.5069 6.35888 44.5768 6.29807C44.663 6.22178 44.7504 6.14549 44.8378 6.07694L45.0747 5.87681C45.1501 5.81378 45.2254 5.75076 45.3019 5.68884C45.5202 5.50825 45.743 5.33281 45.9701 5.16254C46.0488 5.10173 46.1274 5.04313 46.2071 4.98453C46.2486 4.95246 46.2912 4.9215 46.3338 4.89054L46.5347 4.74459C46.6166 4.68489 46.7007 4.62629 46.7836 4.56769L47.0228 4.40294L47.2565 4.24372C47.5098 4.07566 47.7653 3.91202 48.0209 3.7528C48.0722 3.72074 48.1235 3.68867 48.1759 3.65771C48.3342 3.56152 48.4937 3.46643 48.6542 3.37466C48.7459 3.32159 48.8387 3.26409 48.9326 3.21655C49.1925 3.0706 49.4557 2.93018 49.72 2.79418L49.8914 2.70683L50.0617 2.62169C50.1567 2.57415 50.2528 2.52771 50.3478 2.48238C50.4428 2.43704 50.5389 2.39061 50.635 2.34638L50.9244 2.2148C51.0205 2.17058 51.1177 2.12856 51.2149 2.08654C51.312 2.04453 51.4256 1.99477 51.5315 1.95165L51.7991 1.84108C51.8973 1.80128 51.9945 1.76258 52.0928 1.73052L52.3789 1.61995H52.3887C52.5853 1.54587 52.784 1.4751 52.9828 1.40545L53.2874 1.30151L53.5812 1.20643C53.6805 1.17436 53.781 1.1423 53.8814 1.11244L54.1828 1.02178C54.3845 0.962808 54.5869 0.906418 54.79 0.852608L55.0935 0.774105C55.2966 0.722139 55.5008 0.672383 55.705 0.62705C55.9092 0.581717 56.1134 0.536385 56.3187 0.49658C56.524 0.456776 56.7293 0.416971 56.9357 0.380484L57.248 0.327412C57.4806 0.289819 57.7121 0.255543 57.9458 0.224584L58.2985 0.182568C58.6479 0.140552 58.998 0.106276 59.3489 0.0797397C59.5837 0.0620489 59.8174 0.0465694 60.0522 0.0355126C60.5348 0.0111877 61.0178 0.00123658 61.5012 0.00565929C61.5482 0.00565929 61.5951 0.00565929 61.6421 0.00565929H61.8386C61.9336 0.00565929 62.0275 0.00565937 62.1225 0.0133991L62.3638 0.0222445C62.4643 0.0222445 62.5648 0.03109 62.6663 0.0366183C62.7679 0.0421467 62.8476 0.0465694 62.9382 0.0532035L63.2123 0.072C63.3029 0.0775284 63.3936 0.0852681 63.4842 0.0941135L63.6829 0.111804C63.7976 0.121755 63.9123 0.132812 64.0269 0.14608C64.0542 0.14608 64.0826 0.151609 64.1099 0.156032C64.2115 0.165983 64.313 0.178145 64.4135 0.191413L64.5685 0.211315C64.6668 0.223478 64.764 0.236746 64.8623 0.25112L65.0807 0.283184C65.2019 0.300875 65.3242 0.319672 65.4454 0.34068C65.5666 0.361688 65.6802 0.379378 65.797 0.401492C65.9313 0.425817 66.0667 0.451247 66.201 0.477784C66.2775 0.493263 66.3528 0.507637 66.4282 0.524222C66.5275 0.544124 66.6258 0.565132 66.7252 0.587246C66.7896 0.60162 66.8529 0.614888 66.9163 0.630367C66.9796 0.645847 67.0135 0.651375 67.0615 0.663538L67.4841 0.766366L67.5551 0.784056L67.7309 0.829389L68.1142 0.933323C68.2598 0.973865 68.4053 1.01588 68.5509 1.05937H68.564L68.8698 1.15335C68.9724 1.18542 69.074 1.21748 69.1755 1.25176L69.2847 1.28714C69.5111 1.36085 69.7365 1.43935 69.9607 1.52265C70.0306 1.54697 70.1004 1.57351 70.1692 1.60005C70.796 1.83445 71.4148 2.09576 72.0256 2.38397C72.0977 2.41714 72.1697 2.45252 72.244 2.4868C72.7667 2.73816 73.2828 3.00905 73.7924 3.29947L73.9693 3.4012C74.0665 3.45648 74.1615 3.51176 74.2576 3.57036C74.4257 3.67209 74.5935 3.77528 74.761 3.87995L74.9695 4.01264C74.9936 4.02811 75.0176 4.04249 75.0405 4.05907C75.4307 4.31117 75.8154 4.57579 76.1947 4.85295H76.2024C76.2733 4.90492 76.3432 4.95578 76.4131 5.00885C76.5114 5.08183 76.6086 5.1548 76.7047 5.22999L76.8608 5.35051L76.9504 5.42127C77.1011 5.53994 77.251 5.66083 77.4003 5.78393L77.563 5.93209L77.7355 6.07583C77.825 6.15323 77.9146 6.22952 78.003 6.30802C78.1544 6.4407 78.304 6.57486 78.4518 6.71049C78.5108 6.76467 78.5708 6.82106 78.6287 6.87413L78.6593 6.90288L78.7292 6.96922C78.9246 7.15276 79.1168 7.34072 79.3046 7.5298C79.3833 7.6083 79.4597 7.6868 79.5361 7.76641C79.5875 7.81838 79.6388 7.87698 79.689 7.92452C79.8091 8.05057 79.9278 8.17809 80.045 8.30709L80.1706 8.4453C80.4359 8.7383 80.6936 9.03794 80.9415 9.3409C81.0037 9.41498 81.0638 9.49016 81.1239 9.56203C81.1643 9.61179 81.2047 9.66154 81.2429 9.7124C81.2811 9.76327 81.3226 9.81192 81.3608 9.86278C81.3713 9.87411 81.3808 9.88632 81.3892 9.89926C81.4351 9.95676 81.4788 10.0098 81.5224 10.0717C81.5956 10.1668 81.6677 10.263 81.7408 10.3603C81.8282 10.4775 81.9134 10.5947 81.9963 10.713C82.064 10.807 82.1307 10.901 82.1951 10.9961C82.2737 11.1067 82.3523 11.225 82.4299 11.34C82.5838 11.5699 82.7334 11.801 82.8808 12.0354C82.954 12.1526 83.0261 12.2698 83.0992 12.3881C83.1724 12.5065 83.2401 12.6248 83.3089 12.7431C83.3777 12.8614 83.4465 12.9819 83.5131 13.1013C83.5797 13.2207 83.6354 13.3224 83.6944 13.433C83.8858 13.7854 84.0678 14.1421 84.2403 14.5033C84.2698 14.5619 84.2971 14.6205 84.3244 14.6802C84.3626 14.7598 84.3998 14.8383 84.4336 14.9179L84.4478 14.9489C84.4959 15.0595 84.5428 15.159 84.5898 15.264C84.6509 15.4033 84.7121 15.5437 84.771 15.6842C84.8082 15.7715 84.8442 15.8589 84.8802 15.9473C85.0105 16.265 85.1339 16.5853 85.2504 16.9082C85.2777 16.9822 85.3039 17.0563 85.3301 17.1293C85.3563 17.2023 85.376 17.2598 85.3978 17.325C85.4328 17.4245 85.4666 17.5251 85.4994 17.6268C85.5245 17.7009 85.5485 17.775 85.5725 17.848C85.5966 17.921 85.6118 17.9696 85.6304 18.0315C85.6988 18.2527 85.7647 18.4738 85.8281 18.6949C85.8444 18.7513 85.8597 18.8055 85.875 18.863C85.9012 18.9581 85.9274 19.0521 85.9515 19.1472C85.9864 19.2776 86.0202 19.4092 86.0519 19.5408C86.0836 19.6723 86.1142 19.7951 86.1436 19.9222C86.1436 19.93 86.1436 19.9366 86.1436 19.9432C86.1633 20.0306 86.183 20.1168 86.2015 20.2042L86.2375 20.3711C86.2703 20.5248 86.302 20.6796 86.3315 20.8344C86.3511 20.9328 86.3697 21.0301 86.3871 21.1285C86.4155 21.2844 86.4428 21.4403 86.468 21.5962C86.4843 21.6957 86.5007 21.7941 86.5149 21.8937C86.5149 21.918 86.5226 21.9423 86.5258 21.9666C86.54 22.0617 86.5542 22.1568 86.5673 22.253C86.5673 22.2851 86.5772 22.3182 86.5804 22.3514C86.5957 22.462 86.6099 22.5725 86.623 22.6831C86.6416 22.8357 86.658 22.9883 86.6743 23.1409C86.7082 23.4726 86.7366 23.8043 86.7573 24.136C86.765 24.2465 86.7715 24.3648 86.7781 24.4798C86.7846 24.5948 86.789 24.7098 86.7934 24.8248C86.7934 24.9088 86.7999 24.9929 86.8021 25.078C86.8141 25.4495 86.8174 25.8254 86.813 26.2003Z" fill="url(#paint0_linear_130_659)"/>
<defs>
<linearGradient id="paint0_linear_130_659" x1="43.9074" y1="80.5897" x2="43.9074" y2="0.000132979" gradientUnits="userSpaceOnUse">
<stop stop-opacity="0.1"/>
<stop offset="0.47" stop-opacity="0.3"/>
<stop offset="1" stop-opacity="0.5"/>
</linearGradient>
</defs>
</svg>
