<svg width="1" height="2" viewBox="0 0 1 2" fill="none" xmlns="http://www.w3.org/2000/svg">
<path d="M0.909969 1.5945C0.915429 1.66416 0.920886 1.73492 0.927438 1.80568L0.690483 1.60335C0.682839 1.51047 0.676286 1.41869 0.668642 1.32803C0.668642 1.30481 0.668643 1.2816 0.663183 1.25838C0.656632 1.17435 0.65117 1.09253 0.644619 1.0096C0.638067 0.921146 0.631515 0.833797 0.623871 0.746449C0.623871 0.721018 0.623871 0.696688 0.623871 0.672363L0.72324 0.755289L0.855371 0.865857C0.855371 0.874702 0.855371 0.882446 0.855371 0.890185C0.85594 0.898283 0.85594 0.906409 0.855371 0.914507C0.863015 1.00738 0.869564 1.10137 0.877208 1.19535C0.877208 1.21526 0.877208 1.23405 0.877208 1.25395C0.889584 1.36452 0.900506 1.47804 0.909969 1.5945Z" fill="#444053"/>
</svg>
