<svg width="17" height="11" viewBox="0 0 17 11" fill="none" xmlns="http://www.w3.org/2000/svg">
<path d="M4.44673 0.659171C4.44673 0.659171 8.7327 2.87052 9.56806 4.18849L12.4661 6.15107C12.4661 6.15107 13.9425 7.17493 14.3913 7.21363C14.8401 7.25232 16.0096 7.46572 16.0631 7.44803C16.1166 7.43034 15.6012 9.99109 15.6012 9.99109C15.6012 9.99109 14.5693 10.063 14.3378 9.99109C14.1063 9.91922 13.0405 9.27019 13.0405 9.27019C13.0405 9.27019 9.94588 8.15456 9.32783 8.11808C9.32783 8.11808 7.4966 7.21805 6.53566 7.05551C5.57473 6.89298 2.80113 6.02944 2.28573 4.55336C2.28573 4.55336 1.6633 3.74291 1.28985 3.43663C0.916398 3.13036 -0.319712 -1.46594 4.44673 0.659171Z" fill="#FFB9B9"/>
</svg>
