<svg width="13" height="19" viewBox="0 0 13 19" fill="none" xmlns="http://www.w3.org/2000/svg">
<path d="M9.7867 18.4387C9.7867 18.4387 7.48592 18.3403 7.2435 13.7793C7.00109 9.21842 9.39905 8.44556 9.39905 8.44556C9.39905 8.44556 10.1634 8.01545 10.4965 7.99776C10.8295 7.98007 11.9586 8.08732 11.9586 8.08732L10.7171 7.84517C10.7171 7.84517 12.4642 7.17181 12.9873 7.11874L11.0992 7.52231C11.0992 7.52231 11.0719 6.46307 11.524 6.11257C11.524 6.11257 11.1386 6.08383 10.9333 6.84675C10.875 7.06675 10.7668 7.26991 10.6172 7.44C10.4676 7.6101 10.2808 7.74241 10.0717 7.82638C9.37066 8.10279 8.40317 8.53954 8.1826 8.91326C8.1826 8.91326 7.7742 9.34447 7.83644 8.22221C7.89868 7.09995 8.19133 6.13911 8.29725 6.11257C8.29725 6.11257 9.13042 5.21587 10.301 5.16169C10.301 5.16169 9.61853 4.88306 8.46651 5.75434C8.46651 5.75434 8.36823 5.31207 8.80283 4.7935C9.23744 4.27494 9.91118 3.17811 10.6472 3.06091C10.6472 3.06091 9.61853 2.99899 8.80283 4.3446C8.80283 4.3446 8.50145 4.54251 8.47524 4.03943C8.44158 3.65685 8.37322 3.27822 8.27105 2.90832C8.27105 2.90832 8.02317 4.06707 8.54622 4.58674C8.54622 4.58674 7.54379 5.90692 7.58857 7.38742C7.58857 7.38742 7.27845 8.06078 7.1627 7.27133C7.1627 7.27133 7.09609 6.18334 6.96287 5.2601C6.90896 4.88832 6.93137 4.50928 7.02869 4.14667C7.12602 3.78406 7.29617 3.44568 7.52851 3.15268C7.7469 2.87405 7.90414 2.59984 7.81897 2.45942L6.65821 3.86031C6.65821 3.86031 5.68308 1.57156 4.9733 1.07732C4.26352 0.583081 4.17617 0.47583 4.17617 0.47583L5.31946 1.83139L3.88352 1.32057L5.31946 1.99282C5.31946 1.99282 5.98446 2.54566 6.36556 4.03943C6.74666 5.5332 6.7816 6.47192 6.7816 6.47192C6.7816 6.47192 4.73416 4.82999 4.34433 4.88306L5.66889 5.89807C6.02932 6.17404 6.32706 6.52512 6.542 6.9276C6.75694 7.33007 6.88408 7.77456 6.91482 8.23105C6.91482 8.23105 4.35306 7.56765 3.73283 7.4416L2.56224 6.22535L3.44891 7.37415L1.62314 7.34762L0.577039 6.59355C0.577039 6.59355 1.40147 7.29344 1.32176 7.33877C1.24205 7.38411 0.0365143 7.43718 0.0365143 7.43718C0.0365143 7.43718 3.10276 7.41949 3.44018 7.64394C3.7776 7.86839 4.53215 7.94911 4.53215 7.94911L2.36022 8.28081L4.94928 8.09174C4.94928 8.09174 6.90827 8.45108 7.01419 9.07026C7.01419 9.07026 6.61562 10.1251 6.34918 10.543C6.13079 10.8902 5.68526 12.0147 5.59572 13.0021C5.50618 13.9894 5.38388 15.5064 5.72021 16.4297C6.05653 17.3529 6.18102 17.8836 6.01285 18.1623C5.84469 18.4409 5.68526 18.7991 6.23125 18.871C6.77723 18.9429 9.19157 18.8345 9.19157 18.8345C9.19157 18.8345 9.92865 18.9882 9.7867 18.4387Z" fill="#6D4FFF"/>
</svg>
