<svg width="75" height="10" viewBox="0 0 75 10" fill="none" xmlns="http://www.w3.org/2000/svg">
<path opacity="0.1" d="M74.7368 9.36355H0.441513C0.535422 9.25299 0.629331 9.15126 0.724332 9.04623C0.927439 8.82509 1.13273 8.60395 1.34348 8.38282C1.4221 8.301 1.50181 8.22028 1.58153 8.14067C1.59417 8.12657 1.60766 8.11328 1.62193 8.10087C1.69509 8.0279 1.76716 7.95603 1.84032 7.87974L1.93533 7.78686L2.11878 7.60995L2.22797 7.49938L2.41252 7.32911C2.50206 7.24655 2.59269 7.16473 2.68442 7.08365L2.8493 6.9377L3.05132 6.763C3.09208 6.72762 3.13249 6.69334 3.17253 6.66017C3.36617 6.49506 3.56163 6.33437 3.75891 6.1781C3.79495 6.14935 3.83098 6.1206 3.86811 6.09296C3.94345 6.03215 4.0188 5.97355 4.09524 5.91605L4.26668 5.78448C4.45231 5.64405 4.63904 5.50585 4.82795 5.37206L5.0114 5.24269L5.30077 5.04257L5.58905 4.84907L5.79653 4.71529C5.84676 4.68101 5.89808 4.64895 5.9494 4.61688L6.07388 4.53838C6.16561 4.47978 6.25733 4.42781 6.35015 4.3681C6.39383 4.34157 6.43751 4.31392 6.48119 4.28849C6.58056 4.22768 6.67993 4.16798 6.78039 4.11048L6.9551 4.00986C7.1735 3.88382 7.39407 3.76182 7.61684 3.64388L7.88218 3.50457L8.09403 3.394C8.42671 3.2252 8.7634 3.06414 9.1041 2.91082L9.33013 2.8102C9.43169 2.76487 9.53433 2.72064 9.63807 2.67642L9.9875 2.53157C10.0847 2.49177 10.1819 2.45307 10.2801 2.421L10.2965 2.41437L10.5149 2.32923L10.8982 2.1866C11.0227 2.14127 11.1483 2.09704 11.2738 2.05392L11.3022 2.04397C11.3907 2.01412 11.4791 1.98316 11.5687 1.95441C11.6167 1.93819 11.6648 1.92271 11.7128 1.90797C11.822 1.87148 11.9312 1.83721 12.0404 1.7974L12.1234 1.77197C12.2446 1.73438 12.3658 1.699 12.4881 1.6614C18.8881 3.10984 25.4345 3.68922 31.6227 3.75335C32.5827 4.27867 33.5084 4.86589 34.3941 5.51137L34.6474 5.70597C34.8025 5.81654 34.9554 5.93927 35.1082 6.05868L35.2556 6.16925C35.4951 6.35795 35.7314 6.55218 35.9643 6.75194L36.0167 6.79617C36.0965 6.71325 36.1773 6.63032 36.2581 6.5485C36.3978 6.4055 36.5398 6.26471 36.6839 6.12613C36.7593 6.05426 36.8346 5.98129 36.9111 5.905C36.9875 5.8287 37.0432 5.78005 37.1098 5.71924C37.1961 5.63853 37.2823 5.56002 37.3708 5.48152C37.4385 5.4196 37.5073 5.35879 37.5772 5.29798C37.6634 5.22169 37.7508 5.14539 37.8381 5.07684L38.0751 4.87671C38.1504 4.81369 38.2258 4.75067 38.3022 4.68875C38.5206 4.50816 38.7434 4.33272 38.9705 4.16245C39.0491 4.10163 39.1278 4.04303 39.2075 3.98443C39.249 3.95237 39.2916 3.92141 39.3341 3.89045L39.5351 3.7445C39.617 3.68479 39.701 3.62619 39.784 3.56759C45.3852 3.24115 50.962 2.57544 56.4846 1.57406C58.2261 1.25791 59.9288 0.75265 61.5633 0.0670166L61.8691 0.160999C61.9717 0.193064 62.0733 0.225128 62.1748 0.259404L62.284 0.294786C62.5104 0.368498 62.7357 0.447001 62.96 0.530296C63.0299 0.554621 63.0997 0.581157 63.1685 0.607693C63.7953 0.842097 64.4141 1.10341 65.0249 1.39162C65.097 1.42479 65.169 1.46017 65.2433 1.49445C65.766 1.7458 66.2821 2.01669 66.7917 2.30712L66.9686 2.40884C67.0658 2.46413 67.1608 2.51941 67.2569 2.57801C67.425 2.67973 67.5928 2.78293 67.7603 2.8876C67.8531 2.9462 67.947 3.00591 68.0398 3.06672C68.43 3.31881 68.8147 3.58344 69.194 3.8606L69.4124 4.02203C69.5107 4.095 69.6079 4.16798 69.704 4.24316L69.9497 4.43444C70.1003 4.55312 70.2503 4.67401 70.3995 4.79711L70.5633 4.932L70.7359 5.07574C70.8254 5.15313 70.915 5.22943 71.0034 5.30793C71.1548 5.44061 71.3044 5.57477 71.4522 5.7104C71.5112 5.76457 71.5712 5.82096 71.6291 5.87404L71.6597 5.90278L71.7296 5.96912C71.925 6.15267 72.1172 6.34063 72.305 6.5297C72.3837 6.60821 72.4601 6.68671 72.5365 6.76632C72.5878 6.81828 72.6392 6.87689 72.6894 6.92443C72.8095 7.05048 72.9282 7.178 73.0454 7.30699L73.171 7.4452C73.4363 7.73821 73.694 8.03785 73.9419 8.3408C74.0041 8.41488 74.0642 8.49007 74.1243 8.56194C74.1647 8.61169 74.2051 8.66145 74.2433 8.71231C74.2815 8.76317 74.323 8.81182 74.3612 8.86268C74.3717 8.87402 74.3812 8.88622 74.3896 8.89917C74.4355 8.95667 74.4791 9.00974 74.5228 9.07166C74.5927 9.17006 74.667 9.26626 74.7368 9.36355Z" fill="#6D4FFF"/>
</svg>
