<svg width="14" height="19" viewBox="0 0 14 19" fill="none" xmlns="http://www.w3.org/2000/svg">
<path d="M3.26086 18.0925C3.26086 18.0925 5.56164 17.9941 5.80406 13.4331C6.04647 8.87222 3.64851 8.09935 3.64851 8.09935C3.64851 8.09935 2.88413 7.66924 2.55654 7.65155C2.22895 7.63386 1.0944 7.74111 1.0944 7.74111L2.33487 7.49897C2.33487 7.49897 0.587726 6.82561 0.0657654 6.77143L1.95378 7.17611C1.95378 7.17611 1.97998 6.11687 1.52791 5.76637C1.52791 5.76637 1.91337 5.73762 2.11976 6.50054C2.17775 6.72065 2.2859 6.92393 2.43552 7.09406C2.58515 7.26419 2.77209 7.39643 2.98132 7.48017C3.68127 7.75659 4.64985 8.19333 4.87042 8.56705C4.87042 8.56705 5.27773 8.99827 5.21548 7.876C5.15324 6.75374 4.85623 5.7907 4.74703 5.76416C4.74703 5.76416 3.91386 4.86745 2.74436 4.81328C2.74436 4.81328 3.42684 4.53465 4.57887 5.40592C4.57887 5.40592 4.67605 4.96365 4.24254 4.44509C3.80903 3.92652 3.13747 2.83411 2.40148 2.71249C2.40148 2.71249 3.43012 2.64946 4.24582 3.99618C4.24582 3.99618 4.5472 4.1941 4.57341 3.69101C4.60648 3.30835 4.67485 2.92967 4.77761 2.55991C4.77761 2.55991 5.02548 3.71755 4.50243 4.23833C4.50243 4.23833 5.50377 5.5585 5.46009 7.03901C5.46009 7.03901 5.7702 7.71236 5.88486 6.9218C5.88486 6.9218 5.95147 5.83492 6.08579 4.91168C6.13954 4.53983 6.11696 4.16075 6.01944 3.79813C5.92193 3.43552 5.75158 3.09718 5.51905 2.80426C5.30066 2.52452 5.14341 2.25142 5.22968 2.111L6.39044 3.51189C6.39044 3.51189 7.36775 1.22314 8.07425 0.733325C8.78076 0.24351 8.87249 0.131836 8.87249 0.131836L7.7292 1.4874L9.16514 0.975469L7.7292 1.64883C7.7292 1.64883 7.06419 2.19614 6.68309 3.69544C6.30199 5.19473 6.26596 6.12793 6.26596 6.12793C6.26596 6.12793 8.31449 4.48489 8.70432 4.53907L7.37867 5.55408C7.01839 5.83011 6.72082 6.18122 6.50606 6.5837C6.29131 6.98618 6.16437 7.43064 6.13383 7.88706C6.13383 7.88706 8.69559 7.22365 9.31583 7.09761L10.4864 5.88136L9.59974 7.03569L11.4255 7.00915L12.4716 6.25508C12.4716 6.25508 11.6472 6.95498 11.7269 6.9992C11.8066 7.04343 13.0121 7.09871 13.0121 7.09871C13.0121 7.09871 9.9448 7.07992 9.60848 7.30437C9.27215 7.52882 8.51651 7.60954 8.51651 7.60954L10.6884 7.94124L8.10047 7.75217C8.10047 7.75217 6.14147 8.11151 6.03446 8.73069C6.03446 8.73069 6.43412 9.78441 6.69947 10.2024C6.91786 10.5506 7.36448 11.6751 7.45293 12.6625C7.54138 13.6499 7.67132 15.1668 7.32954 16.0901C6.98775 17.0133 6.86873 17.5396 7.04016 17.8183C7.2116 18.0969 7.36775 18.4562 6.82177 18.5281C6.27579 18.6 3.86035 18.4916 3.86035 18.4916C3.86035 18.4916 3.11891 18.6387 3.26086 18.0925Z" fill="#6D4FFF"/>
</svg>
