<svg width="1" height="2" viewBox="0 0 1 2" fill="none" xmlns="http://www.w3.org/2000/svg">
<path d="M0.813264 0.644043C0.813264 0.644043 -0.0439298 0.77783 0.1832 1.3561C0.184793 1.38782 0.196192 1.41823 0.215787 1.44303C0.235383 1.46784 0.262183 1.48577 0.292396 1.49431C0.292396 1.49431 0.284751 1.44898 0.373201 1.44566C0.40465 1.44438 0.435825 1.43918 0.466019 1.43018C0.506802 1.41766 0.542694 1.39253 0.568664 1.35831C0.568664 1.35831 0.787057 1.20683 0.793609 0.79331C0.793609 0.79331 0.843838 0.692692 0.836194 0.670578L0.70625 0.763458C0.746369 0.817636 0.764709 0.885199 0.757572 0.952528C0.757572 0.952528 0.712802 0.765669 0.686595 0.776726C0.681135 0.776726 0.619987 0.828693 0.619987 0.828693C0.687184 0.916755 0.71845 1.02756 0.707343 1.13828C0.707343 1.13828 0.684412 0.909405 0.598146 0.847487L0.509697 0.92931C0.587903 1.02095 0.627155 1.14019 0.618894 1.26101C0.618894 1.26101 0.586135 1.02219 0.496594 0.945894L0.421248 1.03766C0.490951 1.12288 0.527115 1.23116 0.5228 1.34173C0.5228 1.34173 0.457283 1.06973 0.404869 1.05978C0.376613 1.09699 0.352787 1.13744 0.333888 1.1803C0.333888 1.1803 0.425616 1.30082 0.401593 1.38042C0.401593 1.38042 0.339351 1.20352 0.319696 1.20683C0.291773 1.27722 0.276607 1.35213 0.274924 1.42797C0.262496 1.35096 0.270406 1.272 0.297855 1.19909C0.253555 1.21743 0.215574 1.24858 0.188658 1.28865C0.188658 1.28865 0.183197 1.2013 0.309865 1.16482C0.326571 1.12577 0.347443 1.0887 0.372108 1.05425C0.301277 1.06393 0.233012 1.0876 0.171186 1.12391C0.19609 1.08998 0.229403 1.06332 0.267753 1.04663C0.306104 1.02993 0.348131 1.02379 0.38958 1.02882L0.463833 0.935943C0.381412 0.940898 0.300309 0.959188 0.223602 0.990121C0.258164 0.957561 0.299747 0.933611 0.345052 0.920176C0.390356 0.90674 0.438131 0.904187 0.48458 0.912722L0.569754 0.83201C0.49088 0.832269 0.412359 0.842672 0.336074 0.862968C0.412516 0.81255 0.505078 0.793567 0.59487 0.809895L0.658203 0.763458C0.658203 0.763458 0.549007 0.763458 0.516248 0.763458C0.483489 0.763458 0.481305 0.763458 0.481305 0.763458C0.54586 0.737881 0.616084 0.730618 0.684412 0.74245C0.730113 0.713513 0.773227 0.680584 0.813264 0.644043Z" fill="#6D4FFF"/>
</svg>
