<svg width="3" height="7" viewBox="0 0 3 7" fill="none" xmlns="http://www.w3.org/2000/svg">
<path d="M2.50352 0.949415C2.41642 1.00703 2.33554 1.07373 2.26219 1.14844C1.69546 1.71897 1.31109 2.90646 1.11017 4.65564C1.09815 4.76621 1.08724 4.86683 1.07741 4.97629C1.02718 5.4849 0.990778 6.03774 0.968211 6.63481L0.749817 6.45126C0.766196 6.07644 0.786943 5.71931 0.814243 5.37876C0.821886 5.28257 0.82953 5.18637 0.838266 5.09239L0.848093 4.99841C0.916525 4.13013 1.07612 3.27169 1.32419 2.43765C1.54258 1.7643 1.81558 1.26674 2.14863 0.950515C2.22045 0.88193 2.2983 0.820126 2.38122 0.765869L2.50352 0.949415Z" fill="#444053"/>
</svg>
