<svg width="14" height="9" viewBox="0 0 14 9" fill="none" xmlns="http://www.w3.org/2000/svg">
<path d="M12.9444 4.05973C12.536 4.6955 8.677 6.04995 7.89406 6.12403C7.61398 6.16448 7.33678 6.2232 7.06417 6.29984C6.89601 6.34296 6.71256 6.39161 6.51819 6.44579C5.02874 6.85599 2.9671 7.50945 2.9671 7.50945L2.61659 7.60454L2.21911 7.7151L0.368222 8.21266L0.102875 8.28453L0.255746 7.15674L0.287418 6.92123L0.307072 6.77749L0.440289 5.80007L2.34687 4.84808C2.34687 4.84808 2.48118 4.78617 2.67446 4.69218L2.90377 4.58162C3.43992 4.3251 4.16936 3.96686 4.1923 3.90936C4.22833 3.8198 6.05956 2.59582 6.05956 2.59582C6.57497 2.10932 10.612 0.236297 10.612 0.236297C15.4581 -0.830682 13.3539 3.42286 12.9444 4.05973Z" fill="#FFB9B9"/>
</svg>
