<svg width="5" height="9" viewBox="0 0 5 9" fill="none" xmlns="http://www.w3.org/2000/svg">
<path opacity="0.1" d="M3.45377 0.624714C3.43957 1.01281 4.18648 1.88408 4.56867 2.33851C4.41331 2.71648 4.22204 3.07826 3.99757 3.41876L3.98774 3.43314L3.70165 3.82455C3.52475 4.07222 3.33584 4.34311 3.17095 4.57641C2.92635 4.92691 2.73962 5.1978 2.73962 5.1978C2.73962 5.1978 1.26329 9.14175 0.872362 8.13338C0.735835 7.77751 0.67302 7.39701 0.687819 7.01553C0.708567 6.2305 1.01541 5.30505 1.61926 4.15404C1.6826 4.03463 1.74266 3.91742 1.80053 3.80575C1.97962 3.45636 2.12812 3.14235 2.26353 2.8615C2.49664 2.37401 2.70297 1.87385 2.88158 1.36331C2.88158 1.36331 3.47233 0.138216 3.45377 0.624714Z" fill="black"/>
</svg>
