<svg width="12" height="10" viewBox="0 0 12 10" fill="none" xmlns="http://www.w3.org/2000/svg">
<path opacity="0.1" d="M3.91496 6.15101C3.50547 6.78789 8.67703 6.9073 7.89409 6.97917C7.61401 7.02013 7.33681 7.07923 7.06419 7.15608C5.59877 7.5309 2.96822 8.36569 2.96822 8.36569L2.6177 8.46078L0.106171 9.13966L0.290714 7.77747L0.443592 6.6552L2.34689 5.701C2.34689 5.701 2.59368 5.59044 2.90707 5.43564C3.44323 5.17913 4.17266 4.82199 4.19559 4.7645C4.23163 4.67494 6.06286 3.44984 6.06286 3.44984C6.57827 2.96445 10.6153 1.09143 10.6153 1.09143C15.4582 0.0244531 4.32335 5.51636 3.91496 6.15101Z" fill="black"/>
</svg>
