<svg width="2" height="2" viewBox="0 0 2 2" fill="none" xmlns="http://www.w3.org/2000/svg">
<path d="M1.37418 0.473145C1.37418 0.473145 0.516983 0.605826 0.744113 1.1852C0.745766 1.21678 0.757207 1.24702 0.77681 1.27164C0.796414 1.29625 0.823183 1.31398 0.853309 1.3223C0.853309 1.3223 0.845665 1.27808 0.934114 1.27365C0.965563 1.27237 0.996738 1.26718 1.02693 1.25818C1.06783 1.24651 1.10387 1.22167 1.12958 1.18741C1.12958 1.18741 1.34797 1.03593 1.35452 0.621305C1.35452 0.621305 1.40475 0.520688 1.39711 0.49968L1.26717 0.592556C1.30742 0.646244 1.32579 0.713525 1.31849 0.780523C1.31849 0.780523 1.27372 0.594769 1.24751 0.60472C1.24205 0.60472 1.1809 0.657794 1.1809 0.657794C1.2481 0.745857 1.27936 0.856667 1.26826 0.967383C1.26826 0.967383 1.24532 0.737401 1.15906 0.676589L1.07061 0.757305C1.14861 0.849067 1.18783 0.968212 1.17981 1.08901C1.17981 1.08901 1.14705 0.851288 1.05751 0.774996L0.981071 0.866766C1.05173 0.951504 1.08836 1.06003 1.08371 1.17083C1.08371 1.17083 1.0182 0.898832 0.965782 0.88888C0.937527 0.926089 0.913703 0.966541 0.894805 1.0094C0.894805 1.0094 0.98653 1.12992 0.962506 1.20953C0.962506 1.20953 0.900264 1.03262 0.880609 1.03593C0.852137 1.10616 0.836949 1.18117 0.835838 1.25707C0.823212 1.17971 0.831125 1.10034 0.858768 1.02709C0.81422 1.04555 0.776178 1.07714 0.749571 1.11775C0.749571 1.11775 0.743021 1.0293 0.870781 0.993918C0.887256 0.954759 0.908142 0.917657 0.933024 0.88335C0.862185 0.892313 0.793853 0.915627 0.732103 0.951902C0.757208 0.918264 0.790587 0.891885 0.828909 0.875394C0.867232 0.858902 0.909156 0.852878 0.950496 0.857922L1.02475 0.763938C0.942216 0.768876 0.861049 0.787554 0.784515 0.819222C0.818934 0.78644 0.86051 0.762345 0.905858 0.748896C0.951207 0.735447 0.999049 0.733023 1.0455 0.741823L1.13067 0.661111C1.05183 0.660778 0.973277 0.670812 0.896987 0.690963C0.973704 0.641241 1.06613 0.62268 1.15578 0.638996L1.21912 0.591453C1.21912 0.591453 1.10992 0.591453 1.07716 0.591453C1.0444 0.591453 1.04222 0.591453 1.04222 0.591453C1.10678 0.565876 1.177 0.558613 1.24533 0.570445C1.29098 0.541859 1.3341 0.509303 1.37418 0.473145Z" fill="#6D4FFF"/>
</svg>
