<svg width="87" height="56" viewBox="0 0 87 56" fill="none" xmlns="http://www.w3.org/2000/svg">
<path d="M43.0833 0.900635C19.2899 0.900635 0 12.3447 0 26.463C0 32.5537 3.60318 38.1381 9.59277 42.5304C7.48236 48.7133 0.454395 54.2375 0.370247 54.2989C0.189426 54.4384 0.0685072 54.6135 0.0224225 54.8026C-0.0236622 54.9917 0.00710607 55.1865 0.110928 55.3629C0.214749 55.5394 0.387077 55.6898 0.606629 55.7956C0.826181 55.9013 1.08334 55.9578 1.34635 55.958C12.4975 55.958 20.8685 52.0561 25.0085 49.6436C30.788 51.2255 36.9112 52.0323 43.0833 52.0253C66.8785 52.0253 86.1667 40.5813 86.1667 26.463C86.1667 12.3447 66.8785 0.900635 43.0833 0.900635ZM59.2396 29.4125C59.2396 29.6732 59.0977 29.9233 58.8452 30.1077C58.5928 30.2921 58.2503 30.3957 57.8932 30.3957H48.4687V37.2778C48.4687 37.5386 48.3269 37.7887 48.0744 37.973C47.8219 38.1574 47.4795 38.261 47.1224 38.261H39.0443C38.6872 38.261 38.3447 38.1574 38.0923 37.973C37.8398 37.7887 37.6979 37.5386 37.6979 37.2778V30.3957H28.2734C27.9164 30.3957 27.5739 30.2921 27.3214 30.1077C27.0689 29.9233 26.9271 29.6732 26.9271 29.4125V23.5135C26.9271 23.2527 27.0689 23.0027 27.3214 22.8183C27.5739 22.6339 27.9164 22.5303 28.2734 22.5303H37.6979V15.6481C37.6979 15.3874 37.8398 15.1373 38.0923 14.9529C38.3447 14.7686 38.6872 14.665 39.0443 14.665H47.1224C47.4795 14.665 47.8219 14.7686 48.0744 14.9529C48.3269 15.1373 48.4687 15.3874 48.4687 15.6481V22.5303H57.8932C58.2503 22.5303 58.5928 22.6339 58.8452 22.8183C59.0977 23.0027 59.2396 23.2527 59.2396 23.5135V29.4125Z" fill="#019874"/>
</svg>
