<svg width="1" height="2" viewBox="0 0 1 2" fill="none" xmlns="http://www.w3.org/2000/svg">
<path d="M0.614793 0.269531C0.614793 0.269531 0.0862804 0.966106 0.645368 1.22484C0.668057 1.24659 0.696945 1.26055 0.727922 1.26472C0.758899 1.26889 0.790384 1.26306 0.817898 1.24806C0.817898 1.24806 0.781864 1.22152 0.843014 1.15739C0.864511 1.13403 0.883541 1.10846 0.899795 1.0811C0.920526 1.04341 0.929296 1.00017 0.924912 0.957263C0.924912 0.957263 0.977327 0.696324 0.70106 0.391156C0.70106 0.391156 0.668299 0.280588 0.648644 0.272848L0.618069 0.430959C0.684121 0.441622 0.743569 0.47766 0.784047 0.531576C0.784047 0.531576 0.624622 0.427641 0.61261 0.454178C0.61261 0.459706 0.600597 0.53821 0.600597 0.53821C0.709088 0.555007 0.807139 0.613152 0.874682 0.700745C0.874682 0.700745 0.701057 0.551477 0.596228 0.568062L0.588587 0.688581C0.707672 0.701979 0.816743 0.762366 0.892154 0.856646C0.892154 0.856646 0.705428 0.707379 0.588587 0.715119L0.596228 0.834531C0.704858 0.847416 0.805074 0.900118 0.877958 0.982691C0.877958 0.982691 0.645368 0.83232 0.600597 0.862173C0.605246 0.908603 0.615515 0.95428 0.631172 0.998172C0.631172 0.998172 0.779681 1.02139 0.816808 1.09547C0.816808 1.09547 0.650828 1.01144 0.638817 1.02802C0.666867 1.09874 0.707592 1.16359 0.758934 1.21931C0.695452 1.17237 0.645654 1.10896 0.614793 1.03577C0.595911 1.07995 0.590218 1.12876 0.598414 1.17618C0.598414 1.17618 0.533988 1.11648 0.598414 1.0026C0.582386 0.961655 0.571028 0.918992 0.564564 0.87544C0.519821 0.931539 0.48676 0.996232 0.467377 1.06562C0.462405 1.02365 0.468471 0.981096 0.484962 0.942264C0.501453 0.903432 0.527784 0.869699 0.561288 0.844482L0.55146 0.72507C0.495356 0.786173 0.449275 0.855977 0.414964 0.931831C0.414964 0.931831 0.402952 0.821264 0.550367 0.694111L0.556919 0.57691C0.500064 0.63171 0.450507 0.693781 0.409503 0.761556C0.429606 0.670888 0.483616 0.591631 0.560195 0.54042L0.574391 0.461918C0.574391 0.461918 0.49577 0.54042 0.476114 0.564745C0.456459 0.58907 0.446629 0.585753 0.446629 0.585753C0.47597 0.522367 0.521609 0.46814 0.57876 0.428749C0.595123 0.376784 0.607175 0.323526 0.614793 0.269531Z" fill="#6D4FFF"/>
</svg>
