<svg width="16" height="18" viewBox="0 0 16 18" fill="none" xmlns="http://www.w3.org/2000/svg">
<path d="M2.97162 1.40493C2.48679 1.90581 2.81983 2.86332 2.33173 3.36088C2.10241 3.59418 1.75517 3.65388 1.46907 3.81088C0.770215 4.19455 0.529982 5.12222 0.650098 5.91167C0.770215 6.70112 1.16332 7.42866 1.44505 8.18163C1.72678 8.9346 1.89275 9.79813 1.55424 10.5279C1.33585 11.0122 0.908891 11.3804 0.68067 11.8635C0.343252 12.5911 0.502678 13.4546 0.782222 14.2065C1.07815 15.0014 1.55752 15.802 2.33828 16.1127C2.89081 16.3338 3.50887 16.273 4.09198 16.3847C4.95682 16.5516 5.74959 17.0945 6.62972 17.0779C7.48582 17.0624 8.23818 16.5251 8.88572 15.9523C9.53326 15.3796 10.1677 14.7516 10.9812 14.4829C11.6244 14.2706 12.3189 14.3082 12.985 14.1943C13.6511 14.0804 14.3576 13.752 14.5923 13.1052C14.7813 12.5911 14.6175 12.015 14.4034 11.5108C14.1894 11.0066 13.9219 10.5058 13.8979 9.96287C13.8345 8.46136 15.5642 7.40544 15.6636 5.90725C15.7225 5.01497 15.17 4.18461 14.4897 3.61408C13.8094 3.04355 12.9959 2.66209 12.2654 2.15901C11.5348 1.65592 10.8797 1.0279 10.0487 0.747055C9.52582 0.590169 8.98045 0.524365 8.43583 0.552454C7.34386 0.574568 6.35345 0.844352 5.29206 1.02126C4.55389 1.14731 3.5733 0.783543 2.97162 1.40493Z" fill="#4A4A76"/>
</svg>
