<svg width="78" height="47" viewBox="0 0 78 47" fill="none" xmlns="http://www.w3.org/2000/svg">
<path d="M77.8838 34.6107C76.1366 33.2706 73.244 31.5911 68.9493 30.7076C68.7003 30.6568 68.4448 30.607 68.1849 30.5617C67.6812 30.4732 67.1931 30.3686 66.7206 30.2477C66.2722 30.1349 65.8354 30.0096 65.4102 29.8717C65.3131 29.8408 65.2159 29.8076 65.1198 29.7744C64.1043 29.4288 63.1167 29.004 62.166 28.504L61.9116 28.8092L60.777 30.1747L52.9705 39.5608L49.9534 43.1885L47.2443 46.4547L47.1263 46.5896L47.1034 46.5697L46.8304 46.3364L46.5803 46.123L45.8553 45.5049L42.8251 42.9165L41.316 41.6295L40.2971 40.7616L38.9704 39.6327L38.752 39.4491L37.9167 38.736L37.1119 38.0515L33.9375 35.3448L32.3465 33.9882L31.7732 33.4995L31.5101 33.2783L30.1418 32.1107L27.8072 30.1205L27.5036 29.8618L27.4742 29.8364L26.5012 29.0071L25.287 27.96L23.9329 26.8057L23.696 26.6034L23.0233 26.0284L22.1006 25.2412L19.5487 23.0652L19.1468 22.7224L19.0802 22.666L17.4958 21.3149L16.4726 20.4414L16.1068 20.1307L15.9179 19.9693L15.3009 19.4441L13.4271 17.8508L8.083 13.2943C7.98909 13.2147 7.89627 13.134 7.80454 13.0533L7.74995 13.0046L7.7292 12.9869C7.6342 12.9029 7.54138 12.8189 7.44856 12.7348C7.38523 12.6773 7.3219 12.6243 7.25965 12.5612L7.2127 12.517L7.15919 12.4673L7.02488 12.3412L7.01068 12.3268L6.99321 12.3103C6.91459 12.2362 6.83815 12.161 6.76172 12.0891L6.65252 11.9852L6.57608 11.9089L6.45706 11.7873L6.44832 11.7784C6.31947 11.6491 6.19389 11.5175 6.06832 11.3859L5.90889 11.2156C5.8532 11.1559 5.79969 11.0951 5.74291 11.0343L5.65555 10.9381C5.6086 10.8872 5.56273 10.8353 5.51796 10.7844C5.44917 10.7081 5.38147 10.6307 5.31486 10.5533C5.24825 10.4759 5.16417 10.3775 5.08991 10.2891C5.03968 10.2305 4.99054 10.1719 4.9414 10.1122L4.90537 10.069C4.83257 9.98281 4.76269 9.89656 4.69571 9.81032L4.66295 9.76941C4.60399 9.69643 4.5472 9.62346 4.49042 9.54827C4.45766 9.50847 4.42709 9.46756 4.39651 9.42775C4.36594 9.38795 4.3168 9.32493 4.27858 9.27296C4.24036 9.22099 4.21525 9.19114 4.18467 9.14912C4.17679 9.14002 4.1695 9.13042 4.16283 9.12037C4.10059 9.03855 4.03944 8.95563 3.97938 8.8727L3.9499 8.8329L3.91168 8.77983L3.84944 8.69248L3.81668 8.64714L3.69765 8.47798L3.66489 8.43264L3.61794 8.36409C3.56662 8.29112 3.51639 8.21704 3.46615 8.14296L3.35696 7.98706C3.29362 7.89307 3.23138 7.79798 3.17023 7.7029L3.15494 7.67968C3.08833 7.57685 3.02282 7.47402 2.95839 7.37009L2.93873 7.33913C2.92672 7.32033 2.91471 7.30154 2.90379 7.28274C2.83936 7.17991 2.77712 7.07708 2.71488 6.97315C2.66902 6.89686 2.62316 6.82057 2.57838 6.74317L2.53034 6.66245L2.3993 6.42916C2.38074 6.39599 2.36108 6.36281 2.34252 6.32854L2.30539 6.2622L2.2639 6.18812L2.25735 6.17485C2.23987 6.145 2.22349 6.11404 2.20602 6.08308C2.16453 6.00789 2.12413 5.93271 2.08372 5.86194C2.08372 5.86194 2.07826 5.85199 2.07499 5.84646C2.03895 5.78012 2.00401 5.71268 1.96579 5.64523C1.91774 5.55346 1.8697 5.46169 1.82274 5.36881L1.71355 5.14768C1.68625 5.0935 1.66004 5.03711 1.63383 4.98514C1.61527 4.94865 1.5978 4.91217 1.58033 4.87457C1.56285 4.83698 1.54975 4.81266 1.53555 4.7817C1.53555 4.77175 1.52573 4.76179 1.52136 4.75184L1.50716 4.72199L1.48751 4.67997L1.40015 4.49201C1.39469 4.48316 1.39142 4.47321 1.38705 4.46437C1.36302 4.4124 1.339 4.36043 1.31607 4.30847C1.30187 4.27751 1.28768 4.24765 1.27457 4.21669L1.1763 3.99556L1.13699 3.906C1.12716 3.88167 1.11624 3.85735 1.10532 3.83192C1.07147 3.75231 1.03762 3.6727 1.00486 3.59309L0.96118 3.48916C0.951353 3.46594 0.941525 3.44162 0.932789 3.41729C0.924053 3.39297 0.90003 3.33989 0.884742 3.30009C0.845431 3.20279 0.807213 3.10438 0.768994 3.00598C0.753706 2.96839 0.738418 2.92858 0.724223 2.88988L0.717671 2.87109C0.717671 2.86224 0.710028 2.8545 0.707844 2.84676L0.698016 2.82244L0.684912 2.78595C0.673992 2.7572 0.663073 2.72956 0.653245 2.70081C0.643418 2.67206 0.632497 2.64774 0.623762 2.6212C0.592095 2.53828 0.562611 2.45535 0.533128 2.37242C0.488357 2.24859 0.444679 2.12475 0.402092 1.99981C0.399674 1.99081 0.396757 1.98195 0.393356 1.97328C2.58821 2.05288 4.79617 2.03851 6.78465 1.86271C9.09088 1.65484 11.1023 1.22363 12.4629 0.458496C12.4629 0.458496 13.7459 0.7902 15.6067 1.30213C15.9703 1.40164 16.3557 1.50779 16.7576 1.62056C17.332 1.78089 17.9402 1.95227 18.5681 2.13249L18.8509 2.21431L18.9994 2.25633L19.208 2.31714L20.1853 2.60241C21.7981 3.07895 23.4492 3.58756 24.9026 4.07848C26.5067 4.62027 27.8706 5.13993 28.6797 5.56783C28.8315 5.64744 28.9636 5.72484 29.0739 5.79781C29.1492 5.84757 29.2301 5.89622 29.3174 5.94376C30.8243 6.7697 34.0129 7.24515 36.9142 7.43975C37.2888 7.46407 37.6579 7.48508 38.0182 7.50056C38.5904 7.52599 39.1397 7.53926 39.6485 7.54147H39.8735C40.113 7.54147 40.3408 7.53852 40.557 7.53262C40.9469 7.52378 41.2985 7.50608 41.601 7.48176C41.9264 7.46487 42.2491 7.41374 42.5641 7.32918C44.0732 6.82499 50.9242 5.38761 52.2487 6.27215C53.5733 7.15669 66.4203 8.49567 68.7593 7.32918C71.0983 6.16269 69.4887 4.89005 72.1772 6.27215C72.8444 6.61491 74.7608 8.19492 77.2646 10.3742L70.7958 18.1504L69.2452 20.0157C70.5518 21.2158 71.6364 22.6424 72.448 24.2284C74.5937 28.4941 76.4347 32.375 77.8838 34.6107Z" fill="#6D4FFF"/>
</svg>
