<svg width="8" height="5" viewBox="0 0 8 5" fill="none" xmlns="http://www.w3.org/2000/svg">
<path d="M7.62048 2.23736C7.61392 2.53479 7.48508 2.92288 7.37151 3.21257C7.27869 3.45029 7.19461 3.62056 7.19461 3.62056C7.19461 3.62056 6.60167 3.77647 5.4289 3.64379C4.25612 3.5111 2.60616 3.96886 2.57122 4.08606C2.56139 4.11923 2.52536 4.14244 2.47731 4.16014C2.36472 4.19036 2.24872 4.20559 2.13224 4.20547C0.887401 4.14576 0.792404 3.3541 0.792404 3.3541C0.792404 3.3541 1.0654 1.40921 1.61029 0.604279C1.71051 0.449113 1.85425 0.327822 2.02305 0.255988C2.53736 0.0436976 3.11502 0.412992 3.11502 0.412992C3.24028 0.494977 3.37579 0.559676 3.51795 0.605379C4.45377 0.964724 6.66064 1.57395 7.30818 1.77408L7.40536 1.80394C7.57025 1.86143 7.62484 2.02618 7.62048 2.23736Z" fill="#4A4A76"/>
</svg>
