<svg width="12" height="4" viewBox="0 0 12 4" fill="none" xmlns="http://www.w3.org/2000/svg">
<path opacity="0.1" d="M11.5193 2.44574C10.0299 2.85595 7.96821 3.5094 7.96821 3.5094L7.61769 3.60449L7.22022 3.71506C6.62073 3.51714 6.00813 3.32807 5.62048 3.23962C5.52136 3.2151 5.42065 3.19773 5.3191 3.18765L5.25904 3.15891C4.93145 3.0019 3.38413 2.27436 2.52912 2.1262C1.65939 1.95465 0.816943 1.66336 0.025238 1.26045C0.539555 1.04816 1.11721 1.41746 1.11721 1.41746C1.24247 1.49945 1.37798 1.56415 1.52014 1.60985C2.45596 1.96919 4.66282 2.57842 5.31036 2.77855L5.44358 1.80113L7.34688 0.848036C7.34688 0.848036 7.48119 0.786121 7.67447 0.692139L8.46288 1.22618C8.46288 1.22618 9.94249 2.25004 10.3913 2.28542C10.6414 2.30643 11.1338 2.38604 11.5193 2.44574Z" fill="black"/>
</svg>
