<svg width="14" height="16" viewBox="0 0 14 16" fill="none" xmlns="http://www.w3.org/2000/svg">
<path d="M11.7707 3.81572L11.6462 5.00322C12.1616 6.62414 11.1002 8.21521 11.1002 8.21521C11.1002 8.21521 11.2596 9.32089 11.0642 9.61279C10.8687 9.90469 10.7803 10.9274 10.7803 10.9274C10.7803 10.9274 10.7617 11.6295 10.6023 11.7921C10.4428 11.9546 10.4778 12.1337 10.4592 12.6202C10.445 13.0083 11.1919 13.8796 11.5741 14.334C11.6702 14.4446 11.7434 14.5364 11.7761 14.5828C11.9356 14.8172 12.0251 15.8798 11.3841 15.861L11.2225 15.8543C11.0762 15.8466 10.8949 15.8344 10.7104 15.8201C9.97767 15.7604 9.07242 15.6631 9.07242 15.6631C8.98739 15.7142 8.89952 15.7603 8.80926 15.8013C8.59086 15.8986 8.29276 15.9992 8.09402 15.9118C7.7566 15.7681 3.45316 15.84 2.93775 15.4983C2.55338 15.2429 1.52583 15.3181 0.947087 15.223C0.749441 15.1909 0.604213 15.139 0.555075 15.0472C0.35852 14.6879 1.08796 14.1472 1.08796 14.1472C1.08796 14.1472 0.909963 13.643 1.37296 13.4992C1.83595 13.3555 1.56842 12.7971 1.56842 12.7971C1.56842 12.7971 1.56842 12.4367 2.13734 11.5721C2.70625 10.7074 2.45728 8.22295 2.45728 8.22295C1.14146 6.4406 1.97681 5.01649 1.97681 5.01649L0.909964 1.19858L1.53239 0.622523L4.4807 0.656799L4.25138 1.90069C3.93144 4.22261 7.04355 5.21772 7.04355 5.21772C9.94163 5.30728 9.33668 2.08423 9.33668 2.08423L8.93047 0.588247C8.93047 0.588247 9.63916 0.337257 11.169 0.158137C11.8952 0.0718942 12.2042 0.178041 12.3287 0.311828C12.4969 0.496665 12.6852 0.661716 12.8899 0.803856C13.0264 0.899144 13.1476 1.01512 13.2492 1.14772L12.2664 2.9168L11.7707 3.81572Z" fill="#6D4FFF"/>
</svg>
